<svg xmlns="http://www.w3.org/2000/svg" xmlns:xlink="http://www.w3.org/1999/xlink" contentStyleType="text/css" height="803px" preserveAspectRatio="none" style="width:1252px;height:803px;background:#FFFFFF;" version="1.1" viewBox="0 0 1252 803" width="1252px" zoomAndPan="magnify"><defs/><g><!--class users--><g id="elem_users"><rect codeLine="5" fill="#F1F1F1" height="172.6719" id="users" rx="2.5" ry="2.5" style="stroke:#181818;stroke-width:0.5;" width="159" x="545" y="7"/><text fill="#000000" font-family="sans-serif" font-size="14" lengthAdjust="spacing" textLength="39" x="605" y="24.9951">users</text><line style="stroke:#181818;stroke-width:0.5;" x1="546" x2="703" y1="33.2969" y2="33.2969"/><ellipse cx="556" cy="46.9453" fill="#000000" rx="3" ry="3" style="stroke:#000000;stroke-width:1.0;"/><text fill="#000000" font-family="sans-serif" font-size="14" lengthAdjust="spacing" textLength="129" x="565" y="50.292">_id : ObjectId &#171;PK&#187;</text><line style="stroke:#181818;stroke-width:1.0;" x1="546" x2="703" y1="57.5938" y2="57.5938"/><text fill="#000000" font-family="sans-serif" font-size="14" lengthAdjust="spacing" textLength="122" x="551" y="74.5889">username : string</text><text fill="#000000" font-family="sans-serif" font-size="14" lengthAdjust="spacing" textLength="88" x="551" y="90.8857">email : string</text><text fill="#000000" font-family="sans-serif" font-size="14" lengthAdjust="spacing" textLength="119" x="551" y="107.1826">password : string</text><text fill="#000000" font-family="sans-serif" font-size="14" lengthAdjust="spacing" textLength="103" x="551" y="123.4795">is_admin : bool</text><text fill="#000000" font-family="sans-serif" font-size="14" lengthAdjust="spacing" textLength="147" x="551" y="139.7764">created_at : datetime</text><text fill="#000000" font-family="sans-serif" font-size="14" lengthAdjust="spacing" textLength="122" x="551" y="156.0732">share_key : string</text><text fill="#000000" font-family="sans-serif" font-size="14" lengthAdjust="spacing" textLength="133" x="551" y="172.3701">shared_keys : array</text></g><!--class user_settings--><g id="elem_user_settings"><rect codeLine="17" fill="#F1F1F1" height="107.4844" id="user_settings" rx="2.5" ry="2.5" style="stroke:#181818;stroke-width:0.5;" width="171" x="7" y="239.67"/><text fill="#000000" font-family="sans-serif" font-size="14" lengthAdjust="spacing" textLength="94" x="45.5" y="257.6651">user_settings</text><line style="stroke:#181818;stroke-width:0.5;" x1="8" x2="177" y1="265.9669" y2="265.9669"/><ellipse cx="18" cy="279.6153" fill="#000000" rx="3" ry="3" style="stroke:#000000;stroke-width:1.0;"/><text fill="#000000" font-family="sans-serif" font-size="14" lengthAdjust="spacing" textLength="129" x="27" y="282.962">_id : ObjectId &#171;PK&#187;</text><line style="stroke:#181818;stroke-width:1.0;" x1="8" x2="177" y1="290.2638" y2="290.2638"/><text fill="#000000" font-family="sans-serif" font-size="14" lengthAdjust="spacing" textLength="159" x="13" y="307.2589">user_id : ObjectId &#171;FK&#187;</text><text fill="#000000" font-family="sans-serif" font-size="14" lengthAdjust="spacing" textLength="79" x="13" y="323.5557">meals : dict</text><text fill="#000000" font-family="sans-serif" font-size="14" lengthAdjust="spacing" textLength="152" x="13" y="339.8526">updated_at : datetime</text></g><!--class user_goals--><g id="elem_user_goals"><rect codeLine="25" fill="#F1F1F1" height="91.1875" id="user_goals" rx="2.5" ry="2.5" style="stroke:#181818;stroke-width:0.5;" width="171" x="213" y="247.82"/><text fill="#000000" font-family="sans-serif" font-size="14" lengthAdjust="spacing" textLength="148" x="224.5" y="265.8151">user_goals_collection</text><line style="stroke:#181818;stroke-width:0.5;" x1="214" x2="383" y1="274.1169" y2="274.1169"/><ellipse cx="224" cy="287.7653" fill="#000000" rx="3" ry="3" style="stroke:#000000;stroke-width:1.0;"/><text fill="#000000" font-family="sans-serif" font-size="14" lengthAdjust="spacing" textLength="129" x="233" y="291.112">_id : ObjectId &#171;PK&#187;</text><line style="stroke:#181818;stroke-width:1.0;" x1="214" x2="383" y1="298.4138" y2="298.4138"/><text fill="#000000" font-family="sans-serif" font-size="14" lengthAdjust="spacing" textLength="159" x="219" y="315.4089">user_id : ObjectId &#171;FK&#187;</text><text fill="#000000" font-family="sans-serif" font-size="14" lengthAdjust="spacing" textLength="137" x="219" y="331.7057">target_macros : dict</text></g><!--class user_ingredients--><g id="elem_user_ingredients"><rect codeLine="32" fill="#F1F1F1" height="172.6719" id="user_ingredients" rx="2.5" ry="2.5" style="stroke:#181818;stroke-width:0.5;" width="195" x="357" y="615.38"/><text fill="#000000" font-family="sans-serif" font-size="14" lengthAdjust="spacing" textLength="189" x="360" y="633.3751">user_ingredients_collection</text><line style="stroke:#181818;stroke-width:0.5;" x1="358" x2="551" y1="641.6769" y2="641.6769"/><ellipse cx="368" cy="655.3253" fill="#000000" rx="3" ry="3" style="stroke:#000000;stroke-width:1.0;"/><text fill="#000000" font-family="sans-serif" font-size="14" lengthAdjust="spacing" textLength="129" x="377" y="658.672">_id : ObjectId &#171;PK&#187;</text><line style="stroke:#181818;stroke-width:1.0;" x1="358" x2="551" y1="665.9738" y2="665.9738"/><text fill="#000000" font-family="sans-serif" font-size="14" lengthAdjust="spacing" textLength="87" x="363" y="682.9689">code : string</text><text fill="#000000" font-family="sans-serif" font-size="14" lengthAdjust="spacing" textLength="152" x="363" y="699.2657">product_name : string</text><text fill="#000000" font-family="sans-serif" font-size="14" lengthAdjust="spacing" textLength="113" x="363" y="715.5626">nutriments : dict</text><text fill="#000000" font-family="sans-serif" font-size="14" lengthAdjust="spacing" textLength="156" x="363" y="731.8595">categories_tags : array</text><text fill="#000000" font-family="sans-serif" font-size="14" lengthAdjust="spacing" textLength="114" x="363" y="748.1564">priority_user : int</text><text fill="#000000" font-family="sans-serif" font-size="14" lengthAdjust="spacing" textLength="159" x="363" y="764.4532">user_id : ObjectId &#171;FK&#187;</text><text fill="#000000" font-family="sans-serif" font-size="14" lengthAdjust="spacing" textLength="122" x="363" y="780.7501">share_key : string</text></g><!--class ingredients--><g id="elem_ingredients"><rect codeLine="44" fill="#F1F1F1" height="188.9688" id="ingredients" rx="2.5" ry="2.5" style="stroke:#181818;stroke-width:0.5;" width="171" x="834" y="607.23"/><text fill="#000000" font-family="sans-serif" font-size="14" lengthAdjust="spacing" textLength="151" x="844" y="625.2251">ingredients_collection</text><line style="stroke:#181818;stroke-width:0.5;" x1="835" x2="1004" y1="633.5269" y2="633.5269"/><ellipse cx="845" cy="647.1753" fill="#000000" rx="3" ry="3" style="stroke:#000000;stroke-width:1.0;"/><text fill="#000000" font-family="sans-serif" font-size="14" lengthAdjust="spacing" textLength="111" x="854" y="650.522">_id : string &#171;PK&#187;</text><line style="stroke:#181818;stroke-width:1.0;" x1="835" x2="1004" y1="657.8238" y2="657.8238"/><text fill="#000000" font-family="sans-serif" font-size="14" lengthAdjust="spacing" textLength="109" x="840" y="674.8189">barcode : string</text><text fill="#000000" font-family="sans-serif" font-size="14" lengthAdjust="spacing" textLength="156" x="840" y="691.1157">categories_tags : array</text><text fill="#000000" font-family="sans-serif" font-size="14" lengthAdjust="spacing" textLength="91" x="840" y="707.4126">name : string</text><text fill="#000000" font-family="sans-serif" font-size="14" lengthAdjust="spacing" textLength="111" x="840" y="723.7095">nova_group : int</text><text fill="#000000" font-family="sans-serif" font-size="14" lengthAdjust="spacing" textLength="100" x="840" y="740.0064">nutrients : dict</text><text fill="#000000" font-family="sans-serif" font-size="14" lengthAdjust="spacing" textLength="159" x="840" y="756.3032">pnns_groups_1 : string</text><text fill="#000000" font-family="sans-serif" font-size="14" lengthAdjust="spacing" textLength="159" x="840" y="772.6001">pnns_groups_2 : string</text><text fill="#000000" font-family="sans-serif" font-size="14" lengthAdjust="spacing" textLength="114" x="840" y="788.897">priority_auto : int</text></g><!--class temp_ingredients--><g id="elem_temp_ingredients"><rect codeLine="57" fill="#F1F1F1" height="107.4844" id="temp_ingredients" rx="2.5" ry="2.5" style="stroke:#181818;stroke-width:0.5;" width="200" x="524.5" y="239.67"/><text fill="#000000" font-family="sans-serif" font-size="14" lengthAdjust="spacing" textLength="194" x="527.5" y="257.6651">temp_ingredients_collection</text><line style="stroke:#181818;stroke-width:0.5;" x1="525.5" x2="723.5" y1="265.9669" y2="265.9669"/><ellipse cx="535.5" cy="279.6153" fill="#000000" rx="3" ry="3" style="stroke:#000000;stroke-width:1.0;"/><text fill="#000000" font-family="sans-serif" font-size="14" lengthAdjust="spacing" textLength="129" x="544.5" y="282.962">_id : ObjectId &#171;PK&#187;</text><line style="stroke:#181818;stroke-width:1.0;" x1="525.5" x2="723.5" y1="290.2638" y2="290.2638"/><text fill="#000000" font-family="sans-serif" font-size="14" lengthAdjust="spacing" textLength="147" x="530.5" y="307.2589">created_at : datetime</text><text fill="#000000" font-family="sans-serif" font-size="14" lengthAdjust="spacing" textLength="124" x="530.5" y="323.5557">ingredients : array</text><text fill="#000000" font-family="sans-serif" font-size="14" lengthAdjust="spacing" textLength="159" x="530.5" y="339.8526">user_id : ObjectId &#171;FK&#187;</text></g><!--class optimized_weights--><g id="elem_optimized_weights"><rect codeLine="65" fill="#F1F1F1" height="107.4844" id="optimized_weights" rx="2.5" ry="2.5" style="stroke:#181818;stroke-width:0.5;" width="208" x="759.5" y="239.67"/><text fill="#000000" font-family="sans-serif" font-size="14" lengthAdjust="spacing" textLength="202" x="762.5" y="257.6651">optimized_weights_collection</text><line style="stroke:#181818;stroke-width:0.5;" x1="760.5" x2="966.5" y1="265.9669" y2="265.9669"/><ellipse cx="770.5" cy="279.6153" fill="#000000" rx="3" ry="3" style="stroke:#000000;stroke-width:1.0;"/><text fill="#000000" font-family="sans-serif" font-size="14" lengthAdjust="spacing" textLength="129" x="779.5" y="282.962">_id : ObjectId &#171;PK&#187;</text><line style="stroke:#181818;stroke-width:1.0;" x1="760.5" x2="966.5" y1="290.2638" y2="290.2638"/><text fill="#000000" font-family="sans-serif" font-size="14" lengthAdjust="spacing" textLength="104" x="765.5" y="307.2589">meal_id : string</text><text fill="#000000" font-family="sans-serif" font-size="14" lengthAdjust="spacing" textLength="159" x="765.5" y="323.5557">user_id : ObjectId &#171;FK&#187;</text><text fill="#000000" font-family="sans-serif" font-size="14" lengthAdjust="spacing" textLength="93" x="765.5" y="339.8526">results : array</text></g><!--class optimized_macros--><g id="elem_optimized_macros"><rect codeLine="73" fill="#F1F1F1" height="107.4844" id="optimized_macros" rx="2.5" ry="2.5" style="stroke:#181818;stroke-width:0.5;" width="205" x="1040" y="647.97"/><text fill="#000000" font-family="sans-serif" font-size="14" lengthAdjust="spacing" textLength="199" x="1043" y="665.9651">optimized_macros_collection</text><line style="stroke:#181818;stroke-width:0.5;" x1="1041" x2="1244" y1="674.2669" y2="674.2669"/><ellipse cx="1051" cy="687.9153" fill="#000000" rx="3" ry="3" style="stroke:#000000;stroke-width:1.0;"/><text fill="#000000" font-family="sans-serif" font-size="14" lengthAdjust="spacing" textLength="129" x="1060" y="691.262">_id : ObjectId &#171;PK&#187;</text><line style="stroke:#181818;stroke-width:1.0;" x1="1041" x2="1244" y1="698.5638" y2="698.5638"/><text fill="#000000" font-family="sans-serif" font-size="14" lengthAdjust="spacing" textLength="104" x="1046" y="715.5589">meal_id : string</text><text fill="#000000" font-family="sans-serif" font-size="14" lengthAdjust="spacing" textLength="159" x="1046" y="731.8557">user_id : ObjectId &#171;FK&#187;</text><text fill="#000000" font-family="sans-serif" font-size="14" lengthAdjust="spacing" textLength="85" x="1046" y="748.1526">results : dict</text></g><!--class meal_logs--><g id="elem_meal_logs"><rect codeLine="81" fill="#F1F1F1" height="140.0781" id="meal_logs" rx="2.5" ry="2.5" style="stroke:#181818;stroke-width:0.5;" width="171" x="867" y="407.15"/><text fill="#000000" font-family="sans-serif" font-size="14" lengthAdjust="spacing" textLength="69" x="918" y="425.1451">meal_logs</text><line style="stroke:#181818;stroke-width:0.5;" x1="868" x2="1037" y1="433.4469" y2="433.4469"/><ellipse cx="878" cy="447.0953" fill="#000000" rx="3" ry="3" style="stroke:#000000;stroke-width:1.0;"/><text fill="#000000" font-family="sans-serif" font-size="14" lengthAdjust="spacing" textLength="129" x="887" y="450.442">_id : ObjectId &#171;PK&#187;</text><line style="stroke:#181818;stroke-width:1.0;" x1="868" x2="1037" y1="457.7438" y2="457.7438"/><text fill="#000000" font-family="sans-serif" font-size="14" lengthAdjust="spacing" textLength="104" x="873" y="474.7389">meal_id : string</text><text fill="#000000" font-family="sans-serif" font-size="14" lengthAdjust="spacing" textLength="75" x="873" y="491.0357">date : date</text><text fill="#000000" font-family="sans-serif" font-size="14" lengthAdjust="spacing" textLength="124" x="873" y="507.3326">ingredients : array</text><text fill="#000000" font-family="sans-serif" font-size="14" lengthAdjust="spacing" textLength="142" x="873" y="523.6295">type_of_meal : string</text><text fill="#000000" font-family="sans-serif" font-size="14" lengthAdjust="spacing" textLength="159" x="873" y="539.9264">user_id : ObjectId &#171;FK&#187;</text></g><!--link users to user_settings--><g id="link_users_user_settings"><path codeLine="91" d="M536.79,31.2 C382.05,31.2 64,31.2 64,31.2 C64,31.2 64,154.64 64,231.4 " fill="none" id="users-user_settings" style="stroke:#181818;stroke-width:1.0;"/><line style="stroke:#181818;stroke-width:1.0;" x1="540.79" x2="540.79" y1="27.2" y2="35.2"/><line style="stroke:#181818;stroke-width:1.0;" x1="537.79" x2="537.79" y1="27.2" y2="35.2"/><line style="stroke:#181818;stroke-width:1.0;" x1="536.79" x2="544.79" y1="31.2" y2="31.2"/><line style="stroke:#181818;stroke-width:1.0;" x1="68" x2="60" y1="235.4" y2="235.4"/><line style="stroke:#181818;stroke-width:1.0;" x1="68" x2="60" y1="232.4" y2="232.4"/><line style="stroke:#181818;stroke-width:1.0;" x1="64" x2="64" y1="231.4" y2="239.4"/><text fill="#000000" font-family="sans-serif" font-size="13" lengthAdjust="spacing" textLength="23" x="176.3" y="27.2669">has</text></g><!--link user_settings to users--><g id="link_user_settings_users"><path codeLine="100" d="M121,239.29 C121,169.28 121,56.2 121,56.2 C121,56.2 396.75,56.2 538.72,56.2 " fill="none" id="user_settings-to-users" style="stroke:#181818;stroke-width:1.0;stroke-dasharray:7.0,7.0;"/><polygon fill="#181818" points="544.72,56.2,535.72,52.2,539.72,56.2,535.72,60.2,544.72,56.2" style="stroke:#181818;stroke-width:1.0;"/><text fill="#000000" font-family="sans-serif" font-size="13" lengthAdjust="spacing" textLength="46" x="194.32" y="52.2669">user_id</text></g><!--link users to user_goals--><g id="link_users_user_goals"><path codeLine="92" d="M536.5,81.2 C431.95,81.2 270,81.2 270,81.2 C270,81.2 270,176.95 270,239.36 " fill="none" id="users-user_goals" style="stroke:#181818;stroke-width:1.0;"/><line style="stroke:#181818;stroke-width:1.0;" x1="540.5" x2="540.5" y1="77.2" y2="85.2"/><line style="stroke:#181818;stroke-width:1.0;" x1="537.5" x2="537.5" y1="77.2" y2="85.2"/><line style="stroke:#181818;stroke-width:1.0;" x1="536.5" x2="544.5" y1="81.2" y2="81.2"/><line style="stroke:#181818;stroke-width:1.0;" x1="274" x2="266" y1="243.36" y2="243.36"/><line style="stroke:#181818;stroke-width:1.0;" x1="274" x2="266" y1="240.36" y2="240.36"/><line style="stroke:#181818;stroke-width:1.0;" x1="270" x2="270" y1="239.36" y2="247.36"/><text fill="#000000" font-family="sans-serif" font-size="13" lengthAdjust="spacing" textLength="23" x="300.17" y="77.2669">has</text></g><!--link user_goals to users--><g id="link_user_goals_users"><path codeLine="101" d="M327,247.37 C327,191.65 327,105.2 327,105.2 C327,105.2 450.65,105.2 538.78,105.2 " fill="none" id="user_goals-to-users" style="stroke:#181818;stroke-width:1.0;stroke-dasharray:7.0,7.0;"/><polygon fill="#181818" points="544.78,105.2,535.78,101.2,539.78,105.2,535.78,109.2,544.78,105.2" style="stroke:#181818;stroke-width:1.0;"/><text fill="#000000" font-family="sans-serif" font-size="13" lengthAdjust="spacing" textLength="46" x="317.8" y="101.2669">user_id</text></g><!--link users to user_ingredients--><g id="link_users_user_ingredients"><path codeLine="93" d="M536.61,130.2 C483.26,130.2 430.83,130.2 430.83,130.2 C430.83,130.2 430.83,437.03 430.83,596.91 " fill="none" id="users-user_ingredients" style="stroke:#181818;stroke-width:1.0;"/><line style="stroke:#181818;stroke-width:1.0;" x1="540.61" x2="540.61" y1="126.2" y2="134.2"/><line style="stroke:#181818;stroke-width:1.0;" x1="537.61" x2="537.61" y1="126.2" y2="134.2"/><line style="stroke:#181818;stroke-width:1.0;" x1="536.61" x2="544.61" y1="130.2" y2="130.2"/><line style="stroke:#181818;stroke-width:1.0;" x1="430.83" x2="436.83" y1="606.91" y2="614.91"/><line style="stroke:#181818;stroke-width:1.0;" x1="430.83" x2="424.83" y1="606.91" y2="614.91"/><line style="stroke:#181818;stroke-width:1.0;" x1="430.83" x2="430.83" y1="606.91" y2="614.91"/><ellipse cx="430.83" cy="600.91" fill="none" rx="4" ry="4" style="stroke:#181818;stroke-width:1.0;"/><text fill="#000000" font-family="sans-serif" font-size="13" lengthAdjust="spacing" textLength="32" x="397.83" y="311.7369">owns</text></g><!--link user_ingredients to users--><g id="link_user_ingredients_users"><path codeLine="99" d="M477.67,615.12 C477.67,461.02 477.67,155.2 477.67,155.2 C477.67,155.2 504.2,155.2 538.64,155.2 " fill="none" id="user_ingredients-to-users" style="stroke:#181818;stroke-width:1.0;stroke-dasharray:7.0,7.0;"/><polygon fill="#181818" points="544.64,155.2,535.64,151.2,539.64,155.2,535.64,159.2,544.64,155.2" style="stroke:#181818;stroke-width:1.0;"/><text fill="#000000" font-family="sans-serif" font-size="13" lengthAdjust="spacing" textLength="46" x="430.67" y="347.7369">user_id</text></g><!--link users to temp_ingredients--><g id="link_users_temp_ingredients"><path codeLine="94" d="M598,187.93 C598,208.1 598,213.01 598,231.31 " fill="none" id="users-temp_ingredients" style="stroke:#181818;stroke-width:1.0;"/><line style="stroke:#181818;stroke-width:1.0;" x1="594" x2="602" y1="183.93" y2="183.93"/><line style="stroke:#181818;stroke-width:1.0;" x1="594" x2="602" y1="186.93" y2="186.93"/><line style="stroke:#181818;stroke-width:1.0;" x1="598" x2="598" y1="187.93" y2="179.93"/><line style="stroke:#181818;stroke-width:1.0;" x1="602" x2="594" y1="235.31" y2="235.31"/><line style="stroke:#181818;stroke-width:1.0;" x1="602" x2="594" y1="232.31" y2="232.31"/><line style="stroke:#181818;stroke-width:1.0;" x1="598" x2="598" y1="231.31" y2="239.31"/><text fill="#000000" font-family="sans-serif" font-size="13" lengthAdjust="spacing" textLength="23" x="574" y="205.6869">has</text></g><!--link temp_ingredients to users--><g id="link_temp_ingredients_users"><path codeLine="102" d="M651,239.27 C651,220.98 651,206.08 651,185.93 " fill="none" id="temp_ingredients-to-users" style="stroke:#181818;stroke-width:1.0;stroke-dasharray:7.0,7.0;"/><polygon fill="#181818" points="651,179.93,647,188.93,651,184.93,655,188.93,651,179.93" style="stroke:#181818;stroke-width:1.0;"/><text fill="#000000" font-family="sans-serif" font-size="13" lengthAdjust="spacing" textLength="46" x="604" y="205.6669">user_id</text></g><!--link users to optimized_weights--><g id="link_users_optimized_weights"><path codeLine="95" d="M712.39,130.2 C793.17,130.2 898.17,130.2 898.17,130.2 C898.17,130.2 898.17,173.98 898.17,221.52 " fill="none" id="users-optimized_weights" style="stroke:#181818;stroke-width:1.0;"/><line style="stroke:#181818;stroke-width:1.0;" x1="708.39" x2="708.39" y1="134.2" y2="126.2"/><line style="stroke:#181818;stroke-width:1.0;" x1="711.39" x2="711.39" y1="134.2" y2="126.2"/><line style="stroke:#181818;stroke-width:1.0;" x1="712.39" x2="704.39" y1="130.2" y2="130.2"/><line style="stroke:#181818;stroke-width:1.0;" x1="898.17" x2="904.17" y1="231.52" y2="239.52"/><line style="stroke:#181818;stroke-width:1.0;" x1="898.17" x2="892.17" y1="231.52" y2="239.52"/><line style="stroke:#181818;stroke-width:1.0;" x1="898.17" x2="898.17" y1="231.52" y2="239.52"/><ellipse cx="898.17" cy="225.52" fill="none" rx="4" ry="4" style="stroke:#181818;stroke-width:1.0;"/><text fill="#000000" font-family="sans-serif" font-size="13" lengthAdjust="spacing" textLength="23" x="831.94" y="126.2669">has</text></g><!--link optimized_weights to users--><g id="link_optimized_weights_users"><path codeLine="103" d="M828.83,239.18 C828.83,200.46 828.83,155.2 828.83,155.2 C828.83,155.2 767.69,155.2 710.38,155.2 " fill="none" id="optimized_weights-to-users" style="stroke:#181818;stroke-width:1.0;stroke-dasharray:7.0,7.0;"/><polygon fill="#181818" points="704.38,155.2,713.38,159.2,709.38,155.2,713.38,151.2,704.38,155.2" style="stroke:#181818;stroke-width:1.0;"/><text fill="#000000" font-family="sans-serif" font-size="13" lengthAdjust="spacing" textLength="46" x="761.6" y="151.2669">user_id</text></g><!--link users to optimized_macros--><g id="link_users_optimized_macros"><path codeLine="96" d="M712.49,31.2 C865.52,31.2 1176.67,31.2 1176.67,31.2 C1176.67,31.2 1176.67,470.33 1176.67,629.7 " fill="none" id="users-optimized_macros" style="stroke:#181818;stroke-width:1.0;"/><line style="stroke:#181818;stroke-width:1.0;" x1="708.49" x2="708.49" y1="35.2" y2="27.2"/><line style="stroke:#181818;stroke-width:1.0;" x1="711.49" x2="711.49" y1="35.2" y2="27.2"/><line style="stroke:#181818;stroke-width:1.0;" x1="712.49" x2="704.49" y1="31.2" y2="31.2"/><line style="stroke:#181818;stroke-width:1.0;" x1="1176.67" x2="1182.67" y1="639.7" y2="647.7"/><line style="stroke:#181818;stroke-width:1.0;" x1="1176.67" x2="1170.67" y1="639.7" y2="647.7"/><line style="stroke:#181818;stroke-width:1.0;" x1="1176.67" x2="1176.67" y1="639.7" y2="647.7"/><ellipse cx="1176.67" cy="633.7" fill="none" rx="4" ry="4" style="stroke:#181818;stroke-width:1.0;"/><text fill="#000000" font-family="sans-serif" font-size="13" lengthAdjust="spacing" textLength="23" x="1152.67" y="99.4269">has</text></g><!--link optimized_macros to users--><g id="link_optimized_macros_users"><path codeLine="104" d="M1108.33,647.51 C1108.33,492.13 1108.33,56.2 1108.33,56.2 C1108.33,56.2 847.82,56.2 710.4,56.2 " fill="none" id="optimized_macros-to-users" style="stroke:#181818;stroke-width:1.0;stroke-dasharray:7.0,7.0;"/><polygon fill="#181818" points="704.4,56.2,713.4,60.2,709.4,56.2,713.4,52.2,704.4,56.2" style="stroke:#181818;stroke-width:1.0;"/><text fill="#000000" font-family="sans-serif" font-size="13" lengthAdjust="spacing" textLength="46" x="1061.33" y="145.9569">user_id</text></g><!--link users to meal_logs--><g id="link_users_meal_logs"><path codeLine="97" d="M712.36,81.2 C826.46,81.2 1014.5,81.2 1014.5,81.2 C1014.5,81.2 1014.5,275.06 1014.5,388.85 " fill="none" id="users-meal_logs" style="stroke:#181818;stroke-width:1.0;"/><line style="stroke:#181818;stroke-width:1.0;" x1="708.36" x2="708.36" y1="85.2" y2="77.2"/><line style="stroke:#181818;stroke-width:1.0;" x1="711.36" x2="711.36" y1="85.2" y2="77.2"/><line style="stroke:#181818;stroke-width:1.0;" x1="712.36" x2="704.36" y1="81.2" y2="81.2"/><line style="stroke:#181818;stroke-width:1.0;" x1="1014.5" x2="1020.5" y1="398.85" y2="406.85"/><line style="stroke:#181818;stroke-width:1.0;" x1="1014.5" x2="1008.5" y1="398.85" y2="406.85"/><line style="stroke:#181818;stroke-width:1.0;" x1="1014.5" x2="1014.5" y1="398.85" y2="406.85"/><ellipse cx="1014.5" cy="392.85" fill="none" rx="4" ry="4" style="stroke:#181818;stroke-width:1.0;"/><text fill="#000000" font-family="sans-serif" font-size="13" lengthAdjust="spacing" textLength="26" x="987.5" y="85.0269">logs</text></g><!--link meal_logs to users--><g id="link_meal_logs_users"><path codeLine="105" d="M991,406.79 C991,298.94 991,105.2 991,105.2 C991,105.2 818.32,105.2 710.48,105.2 " fill="none" id="meal_logs-to-users" style="stroke:#181818;stroke-width:1.0;stroke-dasharray:7.0,7.0;"/><polygon fill="#181818" points="704.48,105.2,713.48,109.2,709.48,105.2,713.48,101.2,704.48,105.2" style="stroke:#181818;stroke-width:1.0;"/><text fill="#000000" font-family="sans-serif" font-size="13" lengthAdjust="spacing" textLength="46" x="944" y="108.7969">user_id</text></g><!--link meal_logs to optimized_weights--><g id="link_meal_logs_optimized_weights"><path codeLine="107" d="M934,406.66 C934,387.03 934,372.01 934,353.48 " fill="none" id="meal_logs-to-optimized_weights" style="stroke:#181818;stroke-width:1.0;stroke-dasharray:7.0,7.0;"/><polygon fill="#181818" points="934,347.48,930,356.48,934,352.48,938,356.48,934,347.48" style="stroke:#181818;stroke-width:1.0;"/><text fill="#000000" font-family="sans-serif" font-size="13" lengthAdjust="spacing" textLength="50" x="935" y="373.1369">meal_id</text></g><!--link optimized_weights to meal_logs--><g id="link_optimized_weights_meal_logs"><path codeLine="111" d="M900.5,347.56 C900.5,366.09 900.5,381.09 900.5,400.72 " fill="none" id="optimized_weights-to-meal_logs" style="stroke:#181818;stroke-width:1.0;stroke-dasharray:7.0,7.0;"/><polygon fill="#181818" points="900.5,406.72,904.5,397.72,900.5,401.72,896.5,397.72,900.5,406.72" style="stroke:#181818;stroke-width:1.0;"/><text fill="#000000" font-family="sans-serif" font-size="13" lengthAdjust="spacing" textLength="50" x="849.5" y="373.2069">meal_id</text></g><!--link meal_logs to optimized_macros--><g id="link_meal_logs_optimized_macros"><path codeLine="108" d="M1016,547.52 C1016,618.97 1016,719.2 1016,719.2 C1016,719.2 1019.73,719.2 1033.79,719.2 " fill="none" id="meal_logs-to-optimized_macros" style="stroke:#181818;stroke-width:1.0;stroke-dasharray:7.0,7.0;"/><polygon fill="#181818" points="1039.79,719.2,1030.79,715.2,1034.79,719.2,1030.79,723.2,1039.79,719.2" style="stroke:#181818;stroke-width:1.0;"/><text fill="#000000" font-family="sans-serif" font-size="13" lengthAdjust="spacing" textLength="50" x="1017" y="641.3169">meal_id</text></g><!--link optimized_macros to meal_logs--><g id="link_optimized_macros_meal_logs"><path codeLine="112" d="M1039.8,684.2 C1031.95,684.2 1027,684.2 1027,684.2 C1027,684.2 1027,613.58 1027,553.56 " fill="none" id="optimized_macros-to-meal_logs" style="stroke:#181818;stroke-width:1.0;stroke-dasharray:7.0,7.0;"/><polygon fill="#181818" points="1027,547.56,1023,556.56,1027,552.56,1031,556.56,1027,547.56" style="stroke:#181818;stroke-width:1.0;"/><text fill="#000000" font-family="sans-serif" font-size="13" lengthAdjust="spacing" textLength="50" x="1028" y="618.3469">meal_id</text></g><!--link meal_logs to user_ingredients--><g id="link_meal_logs_user_ingredients"><path codeLine="109" d="M866.67,477.2 C745.33,477.2 538.25,477.2 538.25,477.2 C538.25,477.2 538.25,545.73 538.25,608.91 " fill="none" id="meal_logs-to-user_ingredients" style="stroke:#181818;stroke-width:1.0;stroke-dasharray:7.0,7.0;"/><polygon fill="#181818" points="538.25,614.91,542.25,605.91,538.25,609.91,534.25,605.91,538.25,614.91" style="stroke:#181818;stroke-width:1.0;"/><text fill="#000000" font-family="sans-serif" font-size="13" lengthAdjust="spacing" textLength="137" x="495.6" y="473.2669">ingredients[].barcode</text></g><!--link meal_logs to ingredients--><g id="link_meal_logs_ingredients"><path codeLine="110" d="M936,547.62 C936,566.39 936,580.99 936,600.85 " fill="none" id="meal_logs-to-ingredients" style="stroke:#181818;stroke-width:1.0;stroke-dasharray:7.0,7.0;"/><polygon fill="#181818" points="936,606.85,940,597.85,936,601.85,932,597.85,936,606.85" style="stroke:#181818;stroke-width:1.0;"/><text fill="#000000" font-family="sans-serif" font-size="13" lengthAdjust="spacing" textLength="137" x="798" y="573.2969">ingredients[].barcode</text></g><!--SRC=[jLN1Zfim4Btp5TOUAoLIUqIh72jLFRJtgh8SF0LtmKRsq2ZTzDyx1XQCCLcqLIy9p3mFxxsnnvMIm1h0oaYNLVwbKBQe8NDFIhV2YeRLIWDUMs364YpBGAF2Atle75Ztm8HZ_HDxpXXxnxYIB6TVpZ-Xm4-IFJv-_NmwKUPme1yFrA81GZYqIfSKWqQeEWoqmhcBiJACASU5R9IcsDcOcYA51O4WkK2AINf4rG35NIKiy2UuXilxeFHHHs5XhRXcVvPAk0D4Gi-AfiXUPIl0nm7GWAZzTwKgq4DRcM0UqoaDBUA5gMkgfeoUQVMPV-M4mfQ0l165DHEtc0E99ziKnT9CWlmUFeMHYywtriYkG1xl2DtHKzDNdKmhoAVIM0MEeoZdBlegYk9uvPuInPN6LxGdjaYW_8xeBRr3aKZjMTXOyBQ8bGNcb-2bDLqxAUfTMPhIQkq6bEFl5yu6YGzBoqUpH8TcB1reHsZQUrsFyxkwld5GmpAp4Tjz2sYQbcgetrJq0ggirZnNW3r4_J4D-_dABhBWkXgJysJ-_72-jkcDv-z_iejFTb-eDkEWczxUoC4tTEphPa_zvS7D3-wNx-DFT8SxvNOx76wtQ1pdh18k0HW6Ovmrp-jXbJDpqL69rTvE55hlgxkWQRgkCBFjEVD_Wzx5vu_7qtYnvYzEPKiVDX634QdqIcGAj5Pv7pNAJ85cdQbib4wvEswvJUHaSHgOw7pmzktxSPpIqR8zAz8kXOrzePHqAW7y2m00]--></g></svg>