<svg xmlns="http://www.w3.org/2000/svg" xmlns:xlink="http://www.w3.org/1999/xlink" contentStyleType="text/css" height="1373px" preserveAspectRatio="none" style="width:1035px;height:1373px;background:#FFFFFF;" version="1.1" viewBox="0 0 1035 1373" width="1035px" zoomAndPan="magnify"><defs/><g><text fill="#000000" font-family="sans-serif" font-size="14" font-weight="bold" lengthAdjust="spacing" textLength="291" x="368" y="27.9951">User Meal Log and Optimization Flow</text><rect fill="#FFFFFF" height="1090.3828" style="stroke:#181818;stroke-width:1.0;" width="10" x="200" y="192.8594"/><rect fill="#FFFFFF" height="145.6641" style="stroke:#181818;stroke-width:1.0;" width="10" x="205" y="381.6563"/><rect fill="#FFFFFF" height="145.6641" style="stroke:#181818;stroke-width:1.0;" width="10" x="205" y="599.5859"/><rect fill="#FFFFFF" height="456.7266" style="stroke:#181818;stroke-width:1.0;" width="10" x="205" y="817.5156"/><rect fill="#FFFFFF" height="87.3984" style="stroke:#181818;stroke-width:1.0;" width="10" x="473" y="221.9922"/><rect fill="#FFFFFF" height="87.3984" style="stroke:#181818;stroke-width:1.0;" width="10" x="473" y="410.7891"/><rect fill="#FFFFFF" height="87.3984" style="stroke:#181818;stroke-width:1.0;" width="10" x="473" y="628.7188"/><rect fill="#FFFFFF" height="398.4609" style="stroke:#181818;stroke-width:1.0;" width="10" x="473" y="846.6484"/><rect fill="#FFFFFF" height="29.1328" style="stroke:#181818;stroke-width:1.0;" width="10" x="982" y="251.125"/><rect fill="#FFFFFF" height="29.1328" style="stroke:#181818;stroke-width:1.0;" width="10" x="982" y="439.9219"/><rect fill="#FFFFFF" height="29.1328" style="stroke:#181818;stroke-width:1.0;" width="10" x="982" y="657.8516"/><rect fill="#FFFFFF" height="29.1328" style="stroke:#181818;stroke-width:1.0;" width="10" x="982" y="1128.5781"/><rect fill="#FFFFFF" height="29.1328" style="stroke:#181818;stroke-width:1.0;" width="10" x="982" y="1186.8438"/><line style="stroke:#181818;stroke-width:0.5;stroke-dasharray:5.0,5.0;" x1="24" x2="24" y1="118.5938" y2="1292.2422"/><line style="stroke:#181818;stroke-width:0.5;stroke-dasharray:5.0,5.0;" x1="204.5" x2="204.5" y1="118.5938" y2="1292.2422"/><line style="stroke:#181818;stroke-width:0.5;stroke-dasharray:5.0,5.0;" x1="477.5" x2="477.5" y1="118.5938" y2="1292.2422"/><line style="stroke:#181818;stroke-width:0.5;stroke-dasharray:5.0,5.0;" x1="987" x2="987" y1="118.5938" y2="1292.2422"/><text fill="#000000" font-family="sans-serif" font-size="14" lengthAdjust="spacing" textLength="32" x="5" y="115.292">User</text><ellipse cx="24" cy="50.7969" fill="#E2E2F0" rx="8" ry="8" style="stroke:#181818;stroke-width:0.5;"/><path d="M24,58.7969 L24,85.7969 M11,66.7969 L37,66.7969 M24,85.7969 L11,100.7969 M24,85.7969 L37,100.7969 " fill="none" style="stroke:#181818;stroke-width:0.5;"/><text fill="#000000" font-family="sans-serif" font-size="14" lengthAdjust="spacing" textLength="32" x="5" y="1304.2373">User</text><ellipse cx="24" cy="1316.0391" fill="#E2E2F0" rx="8" ry="8" style="stroke:#181818;stroke-width:0.5;"/><path d="M24,1324.0391 L24,1351.0391 M11,1332.0391 L37,1332.0391 M24,1351.0391 L11,1366.0391 M24,1351.0391 L37,1366.0391 " fill="none" style="stroke:#181818;stroke-width:0.5;"/><rect fill="#E2E2F0" height="30.2969" rx="2.5" ry="2.5" style="stroke:#181818;stroke-width:0.5;" width="77" x="166.5" y="87.2969"/><text fill="#000000" font-family="sans-serif" font-size="14" lengthAdjust="spacing" textLength="63" x="173.5" y="107.292">Frontend</text><rect fill="#E2E2F0" height="30.2969" rx="2.5" ry="2.5" style="stroke:#181818;stroke-width:0.5;" width="77" x="166.5" y="1291.2422"/><text fill="#000000" font-family="sans-serif" font-size="14" lengthAdjust="spacing" textLength="63" x="173.5" y="1311.2373">Frontend</text><rect fill="#E2E2F0" height="30.2969" rx="2.5" ry="2.5" style="stroke:#181818;stroke-width:0.5;" width="75" x="440.5" y="87.2969"/><text fill="#000000" font-family="sans-serif" font-size="14" lengthAdjust="spacing" textLength="61" x="447.5" y="107.292">Backend</text><rect fill="#E2E2F0" height="30.2969" rx="2.5" ry="2.5" style="stroke:#181818;stroke-width:0.5;" width="75" x="440.5" y="1291.2422"/><text fill="#000000" font-family="sans-serif" font-size="14" lengthAdjust="spacing" textLength="61" x="447.5" y="1311.2373">Backend</text><text fill="#000000" font-family="sans-serif" font-size="14" lengthAdjust="spacing" textLength="66" x="951" y="115.292">Database</text><path d="M969,66.2969 C969,56.2969 987,56.2969 987,56.2969 C987,56.2969 1005,56.2969 1005,66.2969 L1005,92.2969 C1005,102.2969 987,102.2969 987,102.2969 C987,102.2969 969,102.2969 969,92.2969 L969,66.2969 " fill="#E2E2F0" style="stroke:#181818;stroke-width:1.5;"/><path d="M969,66.2969 C969,76.2969 987,76.2969 987,76.2969 C987,76.2969 1005,76.2969 1005,66.2969 " fill="none" style="stroke:#181818;stroke-width:1.5;"/><text fill="#000000" font-family="sans-serif" font-size="14" lengthAdjust="spacing" textLength="66" x="951" y="1304.2373">Database</text><path d="M969,1317.5391 C969,1307.5391 987,1307.5391 987,1307.5391 C987,1307.5391 1005,1307.5391 1005,1317.5391 L1005,1343.5391 C1005,1353.5391 987,1353.5391 987,1353.5391 C987,1353.5391 969,1353.5391 969,1343.5391 L969,1317.5391 " fill="#E2E2F0" style="stroke:#181818;stroke-width:1.5;"/><path d="M969,1317.5391 C969,1327.5391 987,1327.5391 987,1327.5391 C987,1327.5391 1005,1327.5391 1005,1317.5391 " fill="none" style="stroke:#181818;stroke-width:1.5;"/><rect fill="#FFFFFF" height="1090.3828" style="stroke:#181818;stroke-width:1.0;" width="10" x="200" y="192.8594"/><rect fill="#FFFFFF" height="145.6641" style="stroke:#181818;stroke-width:1.0;" width="10" x="205" y="381.6563"/><rect fill="#FFFFFF" height="145.6641" style="stroke:#181818;stroke-width:1.0;" width="10" x="205" y="599.5859"/><rect fill="#FFFFFF" height="456.7266" style="stroke:#181818;stroke-width:1.0;" width="10" x="205" y="817.5156"/><rect fill="#FFFFFF" height="87.3984" style="stroke:#181818;stroke-width:1.0;" width="10" x="473" y="221.9922"/><rect fill="#FFFFFF" height="87.3984" style="stroke:#181818;stroke-width:1.0;" width="10" x="473" y="410.7891"/><rect fill="#FFFFFF" height="87.3984" style="stroke:#181818;stroke-width:1.0;" width="10" x="473" y="628.7188"/><rect fill="#FFFFFF" height="398.4609" style="stroke:#181818;stroke-width:1.0;" width="10" x="473" y="846.6484"/><rect fill="#FFFFFF" height="29.1328" style="stroke:#181818;stroke-width:1.0;" width="10" x="982" y="251.125"/><rect fill="#FFFFFF" height="29.1328" style="stroke:#181818;stroke-width:1.0;" width="10" x="982" y="439.9219"/><rect fill="#FFFFFF" height="29.1328" style="stroke:#181818;stroke-width:1.0;" width="10" x="982" y="657.8516"/><rect fill="#FFFFFF" height="29.1328" style="stroke:#181818;stroke-width:1.0;" width="10" x="982" y="1128.5781"/><rect fill="#FFFFFF" height="29.1328" style="stroke:#181818;stroke-width:1.0;" width="10" x="982" y="1186.8438"/><rect fill="#EEEEEE" height="3" style="stroke:#EEEEEE;stroke-width:1.0;" width="1028" x="0" y="149.1602"/><line style="stroke:#000000;stroke-width:1.0;" x1="0" x2="1028" y1="149.1602" y2="149.1602"/><line style="stroke:#000000;stroke-width:1.0;" x1="0" x2="1028" y1="152.1602" y2="152.1602"/><rect fill="#EEEEEE" height="23.1328" style="stroke:#000000;stroke-width:2.0;" width="120" x="454" y="138.5938"/><text fill="#000000" font-family="sans-serif" font-size="13" font-weight="bold" lengthAdjust="spacing" textLength="101" x="460" y="154.6606">Save Settings</text><polygon fill="#181818" points="188,188.8594,198,192.8594,188,196.8594,192,192.8594" style="stroke:#181818;stroke-width:1.0;"/><line style="stroke:#181818;stroke-width:1.0;" x1="24" x2="194" y1="192.8594" y2="192.8594"/><text fill="#000000" font-family="sans-serif" font-size="13" lengthAdjust="spacing" textLength="134" x="31" y="187.7935">Set nutrition settings</text><polygon fill="#181818" points="461,217.9922,471,221.9922,461,225.9922,465,221.9922" style="stroke:#181818;stroke-width:1.0;"/><line style="stroke:#181818;stroke-width:1.0;" x1="210" x2="467" y1="221.9922" y2="221.9922"/><text fill="#000000" font-family="sans-serif" font-size="13" lengthAdjust="spacing" textLength="185" x="217" y="216.9263">POST /settings/save_settings</text><polygon fill="#181818" points="970,247.125,980,251.125,970,255.125,974,251.125" style="stroke:#181818;stroke-width:1.0;"/><line style="stroke:#181818;stroke-width:1.0;" x1="483" x2="976" y1="251.125" y2="251.125"/><text fill="#000000" font-family="sans-serif" font-size="13" lengthAdjust="spacing" textLength="87" x="490" y="246.0591">Save settings</text><polygon fill="#181818" points="494,276.2578,484,280.2578,494,284.2578,490,280.2578" style="stroke:#181818;stroke-width:1.0;"/><line style="stroke:#181818;stroke-width:1.0;stroke-dasharray:2.0,2.0;" x1="488" x2="986" y1="280.2578" y2="280.2578"/><text fill="#000000" font-family="sans-serif" font-size="13" lengthAdjust="spacing" textLength="18" x="500" y="275.1919">OK</text><polygon fill="#181818" points="221,305.3906,211,309.3906,221,313.3906,217,309.3906" style="stroke:#181818;stroke-width:1.0;"/><line style="stroke:#181818;stroke-width:1.0;stroke-dasharray:2.0,2.0;" x1="215" x2="477" y1="309.3906" y2="309.3906"/><text fill="#000000" font-family="sans-serif" font-size="13" lengthAdjust="spacing" textLength="95" x="227" y="304.3247">Settings saved</text><rect fill="#EEEEEE" height="3" style="stroke:#EEEEEE;stroke-width:1.0;" width="1028" x="0" y="337.957"/><line style="stroke:#000000;stroke-width:1.0;" x1="0" x2="1028" y1="337.957" y2="337.957"/><line style="stroke:#000000;stroke-width:1.0;" x1="0" x2="1028" y1="340.957" y2="340.957"/><rect fill="#EEEEEE" height="23.1328" style="stroke:#000000;stroke-width:2.0;" width="140" x="444" y="327.3906"/><text fill="#000000" font-family="sans-serif" font-size="13" font-weight="bold" lengthAdjust="spacing" textLength="121" x="450" y="343.4575">Create Meal Log</text><polygon fill="#181818" points="193,377.6563,203,381.6563,193,385.6563,197,381.6563" style="stroke:#181818;stroke-width:1.0;"/><line style="stroke:#181818;stroke-width:1.0;" x1="24" x2="199" y1="381.6563" y2="381.6563"/><text fill="#000000" font-family="sans-serif" font-size="13" lengthAdjust="spacing" textLength="102" x="31" y="376.5903">Create meal log</text><polygon fill="#181818" points="461,406.7891,471,410.7891,461,414.7891,465,410.7891" style="stroke:#181818;stroke-width:1.0;"/><line style="stroke:#181818;stroke-width:1.0;" x1="215" x2="467" y1="410.7891" y2="410.7891"/><text fill="#000000" font-family="sans-serif" font-size="13" lengthAdjust="spacing" textLength="130" x="222" y="405.7231">POST /logs/log_meal</text><polygon fill="#181818" points="970,435.9219,980,439.9219,970,443.9219,974,439.9219" style="stroke:#181818;stroke-width:1.0;"/><line style="stroke:#181818;stroke-width:1.0;" x1="483" x2="976" y1="439.9219" y2="439.9219"/><text fill="#000000" font-family="sans-serif" font-size="13" lengthAdjust="spacing" textLength="91" x="490" y="434.856">Save meal log</text><polygon fill="#181818" points="494,465.0547,484,469.0547,494,473.0547,490,469.0547" style="stroke:#181818;stroke-width:1.0;"/><line style="stroke:#181818;stroke-width:1.0;stroke-dasharray:2.0,2.0;" x1="488" x2="986" y1="469.0547" y2="469.0547"/><text fill="#000000" font-family="sans-serif" font-size="13" lengthAdjust="spacing" textLength="18" x="500" y="463.9888">OK</text><polygon fill="#181818" points="226,494.1875,216,498.1875,226,502.1875,222,498.1875" style="stroke:#181818;stroke-width:1.0;"/><line style="stroke:#181818;stroke-width:1.0;stroke-dasharray:2.0,2.0;" x1="220" x2="477" y1="498.1875" y2="498.1875"/><text fill="#000000" font-family="sans-serif" font-size="13" lengthAdjust="spacing" textLength="101" x="232" y="493.1216">Return meal log</text><polygon fill="#181818" points="35,523.3203,25,527.3203,35,531.3203,31,527.3203" style="stroke:#181818;stroke-width:1.0;"/><line style="stroke:#181818;stroke-width:1.0;stroke-dasharray:2.0,2.0;" x1="29" x2="199" y1="527.3203" y2="527.3203"/><text fill="#000000" font-family="sans-serif" font-size="13" lengthAdjust="spacing" textLength="146" x="41" y="522.2544">Show created meal log</text><rect fill="#EEEEEE" height="3" style="stroke:#EEEEEE;stroke-width:1.0;" width="1028" x="0" y="555.8867"/><line style="stroke:#000000;stroke-width:1.0;" x1="0" x2="1028" y1="555.8867" y2="555.8867"/><line style="stroke:#000000;stroke-width:1.0;" x1="0" x2="1028" y1="558.8867" y2="558.8867"/><rect fill="#EEEEEE" height="23.1328" style="stroke:#000000;stroke-width:2.0;" width="222" x="403" y="545.3203"/><text fill="#000000" font-family="sans-serif" font-size="13" font-weight="bold" lengthAdjust="spacing" textLength="203" x="409" y="561.3872">Add Ingredient to Meal Log</text><polygon fill="#181818" points="193,595.5859,203,599.5859,193,603.5859,197,599.5859" style="stroke:#181818;stroke-width:1.0;"/><line style="stroke:#181818;stroke-width:1.0;" x1="24" x2="199" y1="599.5859" y2="599.5859"/><text fill="#000000" font-family="sans-serif" font-size="13" lengthAdjust="spacing" textLength="93" x="31" y="594.52">Add ingredient</text><polygon fill="#181818" points="461,624.7188,471,628.7188,461,632.7188,465,628.7188" style="stroke:#181818;stroke-width:1.0;"/><line style="stroke:#181818;stroke-width:1.0;" x1="215" x2="467" y1="628.7188" y2="628.7188"/><text fill="#000000" font-family="sans-serif" font-size="13" lengthAdjust="spacing" textLength="239" x="222" y="623.6528">POST /logs/add_ingredient/{barcode}</text><polygon fill="#181818" points="970,653.8516,980,657.8516,970,661.8516,974,657.8516" style="stroke:#181818;stroke-width:1.0;"/><line style="stroke:#181818;stroke-width:1.0;" x1="483" x2="976" y1="657.8516" y2="657.8516"/><text fill="#000000" font-family="sans-serif" font-size="13" lengthAdjust="spacing" textLength="187" x="490" y="652.7856">Save ingredient into meal log</text><polygon fill="#181818" points="494,682.9844,484,686.9844,494,690.9844,490,686.9844" style="stroke:#181818;stroke-width:1.0;"/><line style="stroke:#181818;stroke-width:1.0;stroke-dasharray:2.0,2.0;" x1="488" x2="986" y1="686.9844" y2="686.9844"/><text fill="#000000" font-family="sans-serif" font-size="13" lengthAdjust="spacing" textLength="18" x="500" y="681.9185">OK</text><polygon fill="#181818" points="226,712.1172,216,716.1172,226,720.1172,222,716.1172" style="stroke:#181818;stroke-width:1.0;"/><line style="stroke:#181818;stroke-width:1.0;stroke-dasharray:2.0,2.0;" x1="220" x2="477" y1="716.1172" y2="716.1172"/><text fill="#000000" font-family="sans-serif" font-size="13" lengthAdjust="spacing" textLength="158" x="232" y="711.0513">Return updated meal log</text><polygon fill="#181818" points="35,741.25,25,745.25,35,749.25,31,745.25" style="stroke:#181818;stroke-width:1.0;"/><line style="stroke:#181818;stroke-width:1.0;stroke-dasharray:2.0,2.0;" x1="29" x2="199" y1="745.25" y2="745.25"/><text fill="#000000" font-family="sans-serif" font-size="13" lengthAdjust="spacing" textLength="150" x="41" y="740.1841">Show updated meal log</text><rect fill="#EEEEEE" height="3" style="stroke:#EEEEEE;stroke-width:1.0;" width="1028" x="0" y="773.8164"/><line style="stroke:#000000;stroke-width:1.0;" x1="0" x2="1028" y1="773.8164" y2="773.8164"/><line style="stroke:#000000;stroke-width:1.0;" x1="0" x2="1028" y1="776.8164" y2="776.8164"/><rect fill="#EEEEEE" height="23.1328" style="stroke:#000000;stroke-width:2.0;" width="125" x="451.5" y="763.25"/><text fill="#000000" font-family="sans-serif" font-size="13" font-weight="bold" lengthAdjust="spacing" textLength="106" x="457.5" y="779.3169">Optimize Meal</text><polygon fill="#181818" points="193,813.5156,203,817.5156,193,821.5156,197,817.5156" style="stroke:#181818;stroke-width:1.0;"/><line style="stroke:#181818;stroke-width:1.0;" x1="24" x2="199" y1="817.5156" y2="817.5156"/><text fill="#000000" font-family="sans-serif" font-size="13" lengthAdjust="spacing" textLength="88" x="31" y="812.4497">Click optimize</text><polygon fill="#181818" points="461,842.6484,471,846.6484,461,850.6484,465,846.6484" style="stroke:#181818;stroke-width:1.0;"/><line style="stroke:#181818;stroke-width:1.0;" x1="215" x2="467" y1="846.6484" y2="846.6484"/><text fill="#000000" font-family="sans-serif" font-size="13" lengthAdjust="spacing" textLength="199" x="222" y="841.5825">GET /optim/optimize/{meal_id}</text><line style="stroke:#181818;stroke-width:1.0;" x1="483" x2="525" y1="875.7813" y2="875.7813"/><line style="stroke:#181818;stroke-width:1.0;" x1="525" x2="525" y1="875.7813" y2="888.7813"/><line style="stroke:#181818;stroke-width:1.0;" x1="484" x2="525" y1="888.7813" y2="888.7813"/><polygon fill="#181818" points="494,884.7813,484,888.7813,494,892.7813,490,888.7813" style="stroke:#181818;stroke-width:1.0;"/><text fill="#000000" font-family="sans-serif" font-size="13" lengthAdjust="spacing" textLength="331" x="490" y="870.7153">build_input_object_from_meal_log(meal_id, user_id)</text><line style="stroke:#181818;stroke-width:1.0;" x1="483" x2="525" y1="917.9141" y2="917.9141"/><line style="stroke:#181818;stroke-width:1.0;" x1="525" x2="525" y1="917.9141" y2="930.9141"/><line style="stroke:#181818;stroke-width:1.0;" x1="484" x2="525" y1="930.9141" y2="930.9141"/><polygon fill="#181818" points="494,926.9141,484,930.9141,494,934.9141,490,930.9141" style="stroke:#181818;stroke-width:1.0;"/><text fill="#000000" font-family="sans-serif" font-size="13" lengthAdjust="spacing" textLength="236" x="490" y="912.8481">get_settings_obj(user_id, meal_type)</text><line style="stroke:#181818;stroke-width:1.0;" x1="483" x2="525" y1="960.0469" y2="960.0469"/><line style="stroke:#181818;stroke-width:1.0;" x1="525" x2="525" y1="960.0469" y2="973.0469"/><line style="stroke:#181818;stroke-width:1.0;" x1="484" x2="525" y1="973.0469" y2="973.0469"/><polygon fill="#181818" points="494,969.0469,484,973.0469,494,977.0469,490,973.0469" style="stroke:#181818;stroke-width:1.0;"/><text fill="#000000" font-family="sans-serif" font-size="13" lengthAdjust="spacing" textLength="263" x="490" y="954.981">linprog_optimizer(settings_obj, input_obj)</text><line style="stroke:#181818;stroke-width:1.0;" x1="483" x2="525" y1="1002.1797" y2="1002.1797"/><line style="stroke:#181818;stroke-width:1.0;" x1="525" x2="525" y1="1002.1797" y2="1015.1797"/><line style="stroke:#181818;stroke-width:1.0;" x1="484" x2="525" y1="1015.1797" y2="1015.1797"/><polygon fill="#181818" points="494,1011.1797,484,1015.1797,494,1019.1797,490,1015.1797" style="stroke:#181818;stroke-width:1.0;"/><text fill="#000000" font-family="sans-serif" font-size="13" lengthAdjust="spacing" textLength="43" x="490" y="997.1138">solve()</text><line style="stroke:#181818;stroke-width:1.0;" x1="483" x2="525" y1="1044.3125" y2="1044.3125"/><line style="stroke:#181818;stroke-width:1.0;" x1="525" x2="525" y1="1044.3125" y2="1057.3125"/><line style="stroke:#181818;stroke-width:1.0;" x1="484" x2="525" y1="1057.3125" y2="1057.3125"/><polygon fill="#181818" points="494,1053.3125,484,1057.3125,494,1061.3125,490,1057.3125" style="stroke:#181818;stroke-width:1.0;"/><text fill="#000000" font-family="sans-serif" font-size="13" lengthAdjust="spacing" textLength="234" x="490" y="1039.2466">fallback to gwo_optimizer() if needed</text><line style="stroke:#181818;stroke-width:1.0;" x1="483" x2="525" y1="1086.4453" y2="1086.4453"/><line style="stroke:#181818;stroke-width:1.0;" x1="525" x2="525" y1="1086.4453" y2="1099.4453"/><line style="stroke:#181818;stroke-width:1.0;" x1="484" x2="525" y1="1099.4453" y2="1099.4453"/><polygon fill="#181818" points="494,1095.4453,484,1099.4453,494,1103.4453,490,1099.4453" style="stroke:#181818;stroke-width:1.0;"/><text fill="#000000" font-family="sans-serif" font-size="13" lengthAdjust="spacing" textLength="114" x="490" y="1081.3794">get_json_results()</text><polygon fill="#181818" points="970,1124.5781,980,1128.5781,970,1132.5781,974,1128.5781" style="stroke:#181818;stroke-width:1.0;"/><line style="stroke:#181818;stroke-width:1.0;" x1="483" x2="976" y1="1128.5781" y2="1128.5781"/><text fill="#000000" font-family="sans-serif" font-size="13" lengthAdjust="spacing" textLength="445" x="490" y="1123.5122">save_optimization_macros_crud(meal_id, user_id, json_total_macros)</text><polygon fill="#181818" points="494,1153.7109,484,1157.7109,494,1161.7109,490,1157.7109" style="stroke:#181818;stroke-width:1.0;"/><line style="stroke:#181818;stroke-width:1.0;stroke-dasharray:2.0,2.0;" x1="488" x2="986" y1="1157.7109" y2="1157.7109"/><text fill="#000000" font-family="sans-serif" font-size="13" lengthAdjust="spacing" textLength="18" x="500" y="1152.645">OK</text><polygon fill="#181818" points="970,1182.8438,980,1186.8438,970,1190.8438,974,1186.8438" style="stroke:#181818;stroke-width:1.0;"/><line style="stroke:#181818;stroke-width:1.0;" x1="483" x2="976" y1="1186.8438" y2="1186.8438"/><text fill="#000000" font-family="sans-serif" font-size="13" lengthAdjust="spacing" textLength="480" x="490" y="1181.7778">save_optimization_weights_crud(meal_id, user_id, json_ingredient_weights)</text><polygon fill="#181818" points="494,1211.9766,484,1215.9766,494,1219.9766,490,1215.9766" style="stroke:#181818;stroke-width:1.0;"/><line style="stroke:#181818;stroke-width:1.0;stroke-dasharray:2.0,2.0;" x1="488" x2="986" y1="1215.9766" y2="1215.9766"/><text fill="#000000" font-family="sans-serif" font-size="13" lengthAdjust="spacing" textLength="18" x="500" y="1210.9106">OK</text><polygon fill="#181818" points="226,1241.1094,216,1245.1094,226,1249.1094,222,1245.1094" style="stroke:#181818;stroke-width:1.0;"/><line style="stroke:#181818;stroke-width:1.0;stroke-dasharray:2.0,2.0;" x1="220" x2="477" y1="1245.1094" y2="1245.1094"/><text fill="#000000" font-family="sans-serif" font-size="13" lengthAdjust="spacing" textLength="161" x="232" y="1240.0435">Return weights + macros</text><polygon fill="#181818" points="35,1270.2422,25,1274.2422,35,1278.2422,31,1274.2422" style="stroke:#181818;stroke-width:1.0;"/><line style="stroke:#181818;stroke-width:1.0;stroke-dasharray:2.0,2.0;" x1="29" x2="199" y1="1274.2422" y2="1274.2422"/><text fill="#000000" font-family="sans-serif" font-size="13" lengthAdjust="spacing" textLength="152" x="41" y="1269.1763">Render optimized result</text><!--SRC=[hLHTZzem47pFhrZn12edtYjHgIbGdQuLrT4-MoPUShuBTcHlGEsf_xrhaq32HtGdzGMPxEpix6XiqbGW_FBeu3lA0hxP7AHHi2n9R_KVITeQM1HsdoGo8-iYD2cb8vtfKXg2mS9PGsZK0AI7nRnRJ6NsqjJIUQ8aoRNq28DPVOgLMPeaqociv0vXXKJQv1wcqoJgkll4hF0n5C1Kv7JKv6jOaALtaZ2CPXoZqu3-iLpzX4c3cdYc5fSzB2cDFRCqJ0ZpBq6iZijt3VFo8L7OBWQ6biY3-Z1GjO4yAYxvnM7uUtJxVCswlWtrmkRz-p70XnyHuBrhNVAzPwr7fCgP4qbthyK16TVWSKzs3rdSGbtju4M24P-LWdkJErGQEIfaRtiIeFe8VOCbKYbnQfYyhgNBhCA_lHQT6lZ8SlwBPLMfRXfntRg-Zjgw-dRMARf8KA6p5x0rvfPRN-TiLWHD6kZaDSmKMbtpAJQjArq4PykAX5q_OqPYu-msna-mrc5DC8QA5V5XrExEaOvtCBGFQz0uxYheTuaTVC6378UxqUU6xUun77LqkhmjTZZiVDh8ebZpInH2bkzjYt04UWC6KV5bFLFwxAqH3drLa6UwTbpYQs9RJwJOoinPBp9NgGiFnX2fo19_Fm17RyzK_zmzwlo9-WUVSjt0tpl-BDCr2to0mpQzcNxavvyFZUKA3fPsK_qF]--></g></svg>