<svg xmlns="http://www.w3.org/2000/svg" xmlns:xlink="http://www.w3.org/1999/xlink" contentStyleType="text/css" height="1344px" preserveAspectRatio="none" style="width:874px;height:1344px;background:#FFFFFF;" version="1.1" viewBox="0 0 874 1344" width="874px" zoomAndPan="magnify"><defs/><g><ellipse cx="279.25" cy="20" fill="#222222" rx="10" ry="10" style="stroke:#222222;stroke-width:1.0;"/><path d="M391.25,40 L391.25,114.3359 L371.25,118.3359 L391.25,122.3359 L391.25,196.6719 A0,0 0 0 0 391.25,196.6719 L633.25,196.6719 A0,0 0 0 0 633.25,196.6719 L633.25,50 L623.25,40 L391.25,40 A0,0 0 0 0 391.25,40 " fill="#FEFFDD" style="stroke:#181818;stroke-width:0.5;"/><path d="M623.25,40 L623.25,50 L633.25,50 L623.25,40 " fill="#FEFFDD" style="stroke:#181818;stroke-width:0.5;"/><text fill="#000000" font-family="sans-serif" font-size="18" lengthAdjust="spacing" textLength="48" x="397.25" y="61.708">Load:</text><text fill="#000000" font-family="sans-serif" font-size="18" lengthAdjust="spacing" textLength="81" x="397.25" y="82.6611">- settings</text><text fill="#000000" font-family="sans-serif" font-size="18" lengthAdjust="spacing" textLength="92" x="397.25" y="103.6143">- input_list</text><text fill="#000000" font-family="sans-serif" font-size="18" lengthAdjust="spacing" textLength="123" x="397.25" y="124.5674">- is_indivisible</text><text fill="#000000" font-family="sans-serif" font-size="18" lengthAdjust="spacing" textLength="221" x="397.25" y="145.5205">- user_designated_values</text><text fill="#000000" font-family="sans-serif" font-size="18" lengthAdjust="spacing" textLength="24" x="397.25" y="166.4736">- n</text><text fill="#000000" font-family="sans-serif" font-size="18" lengthAdjust="spacing" textLength="49" x="397.25" y="187.4268">- n_in</text><rect fill="#F1F1F1" height="40.9531" rx="12.5" ry="12.5" style="stroke:#181818;stroke-width:0.5;" width="184" x="187.25" y="97.8594"/><text fill="#000000" font-family="sans-serif" font-size="18" lengthAdjust="spacing" textLength="164" x="197.25" y="124.5674">Initialize optimizer</text><path d="M421.75,206.6719 L421.75,239.1016 L401.75,243.1016 L421.75,247.1016 L421.75,279.5313 A0,0 0 0 0 421.75,279.5313 L752.75,279.5313 A0,0 0 0 0 752.75,279.5313 L752.75,216.6719 L742.75,206.6719 L421.75,206.6719 A0,0 0 0 0 421.75,206.6719 " fill="#FEFFDD" style="stroke:#181818;stroke-width:0.5;"/><path d="M742.75,206.6719 L742.75,216.6719 L752.75,216.6719 L742.75,206.6719 " fill="#FEFFDD" style="stroke:#181818;stroke-width:0.5;"/><text fill="#000000" font-family="sans-serif" font-size="18" lengthAdjust="spacing" textLength="222" x="427.75" y="228.3799">Ingredient variables -&gt; 0</text><text fill="#000000" font-family="sans-serif" font-size="18" lengthAdjust="spacing" textLength="281" x="427.75" y="249.333">Slack variables -&gt; slack weights</text><text fill="#000000" font-family="sans-serif" font-size="18" lengthAdjust="spacing" textLength="310" x="427.75" y="270.2861">Excess variables -&gt; excess weights</text><rect fill="#F1F1F1" height="40.9531" rx="12.5" ry="12.5" style="stroke:#181818;stroke-width:0.5;" width="245" x="156.75" y="222.625"/><text fill="#000000" font-family="sans-serif" font-size="18" lengthAdjust="spacing" textLength="225" x="166.75" y="249.333">Create objective vector c</text><path d="M434.25,289.5313 L434.25,332.4375 L414.25,336.4375 L434.25,340.4375 L434.25,383.3438 A0,0 0 0 0 434.25,383.3438 L693.25,383.3438 A0,0 0 0 0 693.25,383.3438 L693.25,299.5313 L683.25,289.5313 L434.25,289.5313 A0,0 0 0 0 434.25,289.5313 " fill="#FEFFDD" style="stroke:#181818;stroke-width:0.5;"/><path d="M683.25,289.5313 L683.25,299.5313 L693.25,299.5313 L683.25,289.5313 " fill="#FEFFDD" style="stroke:#181818;stroke-width:0.5;"/><text fill="#000000" font-family="sans-serif" font-size="18" lengthAdjust="spacing" textLength="238" x="440.25" y="311.2393">Build food-property matrix</text><text fill="#000000" font-family="sans-serif" font-size="18" lengthAdjust="spacing" textLength="151" x="440.25" y="332.1924">and expand it as:</text><text fill="#000000" font-family="sans-serif" font-size="18" lengthAdjust="spacing" textLength="6" x="440.25" y="353.1455">&#160;</text><text fill="#000000" font-family="sans-serif" font-size="18" lengthAdjust="spacing" textLength="129" x="440.25" y="374.0986">[A_food | I | -I]</text><rect fill="#F1F1F1" height="40.9531" rx="12.5" ry="12.5" style="stroke:#181818;stroke-width:0.5;" width="270" x="144.25" y="315.9609"/><text fill="#000000" font-family="sans-serif" font-size="18" lengthAdjust="spacing" textLength="250" x="154.25" y="342.6689">Create equality matrix A_eq</text><path d="M373.75,393.3438 L373.75,467.6797 L353.75,471.6797 L373.75,475.6797 L373.75,550.0156 A0,0 0 0 0 373.75,550.0156 L617.75,550.0156 A0,0 0 0 0 617.75,550.0156 L617.75,403.3438 L607.75,393.3438 L373.75,393.3438 A0,0 0 0 0 373.75,393.3438 " fill="#FEFFDD" style="stroke:#181818;stroke-width:0.5;"/><path d="M607.75,393.3438 L607.75,403.3438 L617.75,403.3438 L607.75,393.3438 " fill="#FEFFDD" style="stroke:#181818;stroke-width:0.5;"/><text fill="#000000" font-family="sans-serif" font-size="18" lengthAdjust="spacing" textLength="179" x="379.75" y="415.0518">For each ingredient:</text><text fill="#000000" font-family="sans-serif" font-size="18" lengthAdjust="spacing" textLength="223" x="379.75" y="436.0049">- fixed value -&gt; (val, val)</text><text fill="#000000" font-family="sans-serif" font-size="18" lengthAdjust="spacing" textLength="199" x="379.75" y="456.958">- priority 1 -&gt; (0.1, &#8734;)</text><text fill="#000000" font-family="sans-serif" font-size="18" lengthAdjust="spacing" textLength="200" x="379.75" y="477.9111">- otherwise -&gt; (0.1, 2)</text><text fill="#000000" font-family="sans-serif" font-size="18" lengthAdjust="spacing" textLength="6" x="379.75" y="498.8643">&#160;</text><text fill="#000000" font-family="sans-serif" font-size="18" lengthAdjust="spacing" textLength="176" x="379.75" y="519.8174">Deviation variables:</text><text fill="#000000" font-family="sans-serif" font-size="18" lengthAdjust="spacing" textLength="52" x="379.75" y="540.7705">(0, &#8734;)</text><rect fill="#F1F1F1" height="40.9531" rx="12.5" ry="12.5" style="stroke:#181818;stroke-width:0.5;" width="149" x="204.75" y="451.2031"/><text fill="#000000" font-family="sans-serif" font-size="18" lengthAdjust="spacing" textLength="129" x="214.75" y="477.9111">Create bounds</text><polygon fill="#F1F1F1" points="161.75,571.7139,396.75,571.7139,408.75,583.7139,396.75,595.7139,161.75,595.7139,149.75,583.7139,161.75,571.7139" style="stroke:#181818;stroke-width:0.5;"/><text fill="#000000" font-family="sans-serif" font-size="18" lengthAdjust="spacing" textLength="235" x="161.75" y="589.9453">Any indivisible ingredient?</text><text fill="#000000" font-family="sans-serif" font-size="18" lengthAdjust="spacing" textLength="22" x="127.75" y="579.4688">no</text><text fill="#000000" font-family="sans-serif" font-size="18" lengthAdjust="spacing" textLength="30" x="408.75" y="579.4688">yes</text><rect fill="#F1F1F1" height="40.9531" rx="12.5" ry="12.5" style="stroke:#181818;stroke-width:0.5;" width="171" x="39.5" y="605.7139"/><text fill="#000000" font-family="sans-serif" font-size="18" lengthAdjust="spacing" textLength="151" x="49.5" y="632.4219">Run linprog once</text><rect fill="#F1F1F1" height="40.9531" rx="12.5" ry="12.5" style="stroke:#181818;stroke-width:0.5;" width="143" x="53.5" y="666.667"/><text fill="#000000" font-family="sans-serif" font-size="18" lengthAdjust="spacing" textLength="123" x="63.5" y="693.375">Store solution</text><rect fill="#F1F1F1" height="40.9531" rx="12.5" ry="12.5" style="stroke:#181818;stroke-width:0.5;" width="228" x="11" y="727.6201"/><text fill="#000000" font-family="sans-serif" font-size="18" lengthAdjust="spacing" textLength="208" x="21" y="754.3281">Set update_flag = False</text><rect fill="#F1F1F1" height="40.9531" rx="12.5" ry="12.5" style="stroke:#181818;stroke-width:0.5;" width="177" x="345" y="605.7139"/><text fill="#000000" font-family="sans-serif" font-size="18" lengthAdjust="spacing" textLength="157" x="355" y="632.4219">Run initial linprog</text><rect fill="#F1F1F1" height="40.9531" rx="12.5" ry="12.5" style="stroke:#181818;stroke-width:0.5;" width="255" x="306" y="666.667"/><text fill="#000000" font-family="sans-serif" font-size="18" lengthAdjust="spacing" textLength="235" x="316" y="693.375">Extract ingredient solution</text><rect fill="#F1F1F1" height="40.9531" rx="12.5" ry="12.5" style="stroke:#181818;stroke-width:0.5;" width="265" x="301" y="727.6201"/><text fill="#000000" font-family="sans-serif" font-size="18" lengthAdjust="spacing" textLength="245" x="311" y="754.3281">Keep only indivisible values</text><rect fill="#F1F1F1" height="40.9531" rx="12.5" ry="12.5" style="stroke:#181818;stroke-width:0.5;" width="249" x="309" y="788.5732"/><text fill="#000000" font-family="sans-serif" font-size="18" lengthAdjust="spacing" textLength="229" x="319" y="815.2813">Convert to portion counts</text><rect fill="#F1F1F1" height="40.9531" rx="12.5" ry="12.5" style="stroke:#181818;stroke-width:0.5;" width="282" x="292.5" y="849.5264"/><text fill="#000000" font-family="sans-serif" font-size="18" lengthAdjust="spacing" textLength="262" x="302.5" y="876.2344">Apply minimum threshold 0.5</text><rect fill="#F1F1F1" height="40.9531" rx="12.5" ry="12.5" style="stroke:#181818;stroke-width:0.5;" width="249" x="309" y="910.4795"/><text fill="#000000" font-family="sans-serif" font-size="18" lengthAdjust="spacing" textLength="229" x="319" y="937.1875">Round to integer portions</text><rect fill="#F1F1F1" height="40.9531" rx="12.5" ry="12.5" style="stroke:#181818;stroke-width:0.5;" width="349" x="259" y="971.4326"/><text fill="#000000" font-family="sans-serif" font-size="18" lengthAdjust="spacing" textLength="329" x="269" y="998.1406">Convert rounded portions to weights</text><path d="M530,1026.9092 L530,1048.8623 L510,1052.8623 L530,1056.8623 L530,1078.8154 A0,0 0 0 0 530,1078.8154 L862,1078.8154 A0,0 0 0 0 862,1078.8154 L862,1036.9092 L852,1026.9092 L530,1026.9092 A0,0 0 0 0 530,1026.9092 " fill="#FEFFDD" style="stroke:#181818;stroke-width:0.5;"/><path d="M852,1026.9092 L852,1036.9092 L862,1036.9092 L852,1026.9092 " fill="#FEFFDD" style="stroke:#181818;stroke-width:0.5;"/><text fill="#000000" font-family="sans-serif" font-size="18" lengthAdjust="spacing" textLength="311" x="536" y="1048.6172">Nonzero rounded indivisible values</text><text fill="#000000" font-family="sans-serif" font-size="18" lengthAdjust="spacing" textLength="240" x="536" y="1069.5703">are fixed in filtered bounds</text><rect fill="#F1F1F1" height="40.9531" rx="12.5" ry="12.5" style="stroke:#181818;stroke-width:0.5;" width="153" x="357" y="1032.3857"/><text fill="#000000" font-family="sans-serif" font-size="18" lengthAdjust="spacing" textLength="133" x="367" y="1059.0938">Update bounds</text><rect fill="#F1F1F1" height="40.9531" rx="12.5" ry="12.5" style="stroke:#181818;stroke-width:0.5;" width="190" x="338.5" y="1098.8154"/><text fill="#000000" font-family="sans-serif" font-size="18" lengthAdjust="spacing" textLength="170" x="348.5" y="1125.5234">Run second linprog</text><rect fill="#F1F1F1" height="40.9531" rx="12.5" ry="12.5" style="stroke:#181818;stroke-width:0.5;" width="143" x="362" y="1159.7686"/><text fill="#000000" font-family="sans-serif" font-size="18" lengthAdjust="spacing" textLength="123" x="372" y="1186.4766">Store solution</text><rect fill="#F1F1F1" height="40.9531" rx="12.5" ry="12.5" style="stroke:#181818;stroke-width:0.5;" width="228" x="319.5" y="1220.7217"/><text fill="#000000" font-family="sans-serif" font-size="18" lengthAdjust="spacing" textLength="208" x="329.5" y="1247.4297">Set update_flag = False</text><polygon fill="#F1F1F1" points="279.25,1267.6748,291.25,1279.6748,279.25,1291.6748,267.25,1279.6748,279.25,1267.6748" style="stroke:#181818;stroke-width:0.5;"/><ellipse cx="279.25" cy="1322.6748" fill="none" rx="11" ry="11" style="stroke:#222222;stroke-width:1.0;"/><ellipse cx="279.25" cy="1322.6748" fill="#222222" rx="6" ry="6" style="stroke:#222222;stroke-width:1.0;"/><line style="stroke:#181818;stroke-width:1.0;" x1="279.25" x2="279.25" y1="30" y2="97.8594"/><polygon fill="#181818" points="275.25,87.8594,279.25,97.8594,283.25,87.8594,279.25,91.8594" style="stroke:#181818;stroke-width:1.0;"/><line style="stroke:#181818;stroke-width:1.0;" x1="279.25" x2="279.25" y1="138.8125" y2="222.625"/><polygon fill="#181818" points="275.25,212.625,279.25,222.625,283.25,212.625,279.25,216.625" style="stroke:#181818;stroke-width:1.0;"/><line style="stroke:#181818;stroke-width:1.0;" x1="279.25" x2="279.25" y1="263.5781" y2="315.9609"/><polygon fill="#181818" points="275.25,305.9609,279.25,315.9609,283.25,305.9609,279.25,309.9609" style="stroke:#181818;stroke-width:1.0;"/><line style="stroke:#181818;stroke-width:1.0;" x1="279.25" x2="279.25" y1="356.9141" y2="451.2031"/><polygon fill="#181818" points="275.25,441.2031,279.25,451.2031,283.25,441.2031,279.25,445.2031" style="stroke:#181818;stroke-width:1.0;"/><line style="stroke:#181818;stroke-width:1.0;" x1="125" x2="125" y1="646.667" y2="666.667"/><polygon fill="#181818" points="121,656.667,125,666.667,129,656.667,125,660.667" style="stroke:#181818;stroke-width:1.0;"/><line style="stroke:#181818;stroke-width:1.0;" x1="125" x2="125" y1="707.6201" y2="727.6201"/><polygon fill="#181818" points="121,717.6201,125,727.6201,129,717.6201,125,721.6201" style="stroke:#181818;stroke-width:1.0;"/><line style="stroke:#181818;stroke-width:1.0;" x1="433.5" x2="433.5" y1="646.667" y2="666.667"/><polygon fill="#181818" points="429.5,656.667,433.5,666.667,437.5,656.667,433.5,660.667" style="stroke:#181818;stroke-width:1.0;"/><line style="stroke:#181818;stroke-width:1.0;" x1="433.5" x2="433.5" y1="707.6201" y2="727.6201"/><polygon fill="#181818" points="429.5,717.6201,433.5,727.6201,437.5,717.6201,433.5,721.6201" style="stroke:#181818;stroke-width:1.0;"/><line style="stroke:#181818;stroke-width:1.0;" x1="433.5" x2="433.5" y1="768.5732" y2="788.5732"/><polygon fill="#181818" points="429.5,778.5732,433.5,788.5732,437.5,778.5732,433.5,782.5732" style="stroke:#181818;stroke-width:1.0;"/><line style="stroke:#181818;stroke-width:1.0;" x1="433.5" x2="433.5" y1="829.5264" y2="849.5264"/><polygon fill="#181818" points="429.5,839.5264,433.5,849.5264,437.5,839.5264,433.5,843.5264" style="stroke:#181818;stroke-width:1.0;"/><line style="stroke:#181818;stroke-width:1.0;" x1="433.5" x2="433.5" y1="890.4795" y2="910.4795"/><polygon fill="#181818" points="429.5,900.4795,433.5,910.4795,437.5,900.4795,433.5,904.4795" style="stroke:#181818;stroke-width:1.0;"/><line style="stroke:#181818;stroke-width:1.0;" x1="433.5" x2="433.5" y1="951.4326" y2="971.4326"/><polygon fill="#181818" points="429.5,961.4326,433.5,971.4326,437.5,961.4326,433.5,965.4326" style="stroke:#181818;stroke-width:1.0;"/><line style="stroke:#181818;stroke-width:1.0;" x1="433.5" x2="433.5" y1="1012.3857" y2="1032.3857"/><polygon fill="#181818" points="429.5,1022.3857,433.5,1032.3857,437.5,1022.3857,433.5,1026.3857" style="stroke:#181818;stroke-width:1.0;"/><line style="stroke:#181818;stroke-width:1.0;" x1="433.5" x2="433.5" y1="1073.3389" y2="1098.8154"/><polygon fill="#181818" points="429.5,1088.8154,433.5,1098.8154,437.5,1088.8154,433.5,1092.8154" style="stroke:#181818;stroke-width:1.0;"/><line style="stroke:#181818;stroke-width:1.0;" x1="433.5" x2="433.5" y1="1139.7686" y2="1159.7686"/><polygon fill="#181818" points="429.5,1149.7686,433.5,1159.7686,437.5,1149.7686,433.5,1153.7686" style="stroke:#181818;stroke-width:1.0;"/><line style="stroke:#181818;stroke-width:1.0;" x1="433.5" x2="433.5" y1="1200.7217" y2="1220.7217"/><polygon fill="#181818" points="429.5,1210.7217,433.5,1220.7217,437.5,1210.7217,433.5,1214.7217" style="stroke:#181818;stroke-width:1.0;"/><line style="stroke:#181818;stroke-width:1.0;" x1="149.75" x2="125" y1="583.7139" y2="583.7139"/><line style="stroke:#181818;stroke-width:1.0;" x1="125" x2="125" y1="583.7139" y2="605.7139"/><polygon fill="#181818" points="121,595.7139,125,605.7139,129,595.7139,125,599.7139" style="stroke:#181818;stroke-width:1.0;"/><line style="stroke:#181818;stroke-width:1.0;" x1="408.75" x2="433.5" y1="583.7139" y2="583.7139"/><line style="stroke:#181818;stroke-width:1.0;" x1="433.5" x2="433.5" y1="583.7139" y2="605.7139"/><polygon fill="#181818" points="429.5,595.7139,433.5,605.7139,437.5,595.7139,433.5,599.7139" style="stroke:#181818;stroke-width:1.0;"/><line style="stroke:#181818;stroke-width:1.0;" x1="125" x2="125" y1="768.5732" y2="1279.6748"/><line style="stroke:#181818;stroke-width:1.0;" x1="125" x2="267.25" y1="1279.6748" y2="1279.6748"/><polygon fill="#181818" points="257.25,1275.6748,267.25,1279.6748,257.25,1283.6748,261.25,1279.6748" style="stroke:#181818;stroke-width:1.0;"/><line style="stroke:#181818;stroke-width:1.0;" x1="433.5" x2="433.5" y1="1261.6748" y2="1279.6748"/><line style="stroke:#181818;stroke-width:1.0;" x1="433.5" x2="291.25" y1="1279.6748" y2="1279.6748"/><polygon fill="#181818" points="301.25,1275.6748,291.25,1279.6748,301.25,1283.6748,297.25,1279.6748" style="stroke:#181818;stroke-width:1.0;"/><line style="stroke:#181818;stroke-width:1.0;" x1="279.25" x2="279.25" y1="492.1563" y2="571.7139"/><polygon fill="#181818" points="275.25,561.7139,279.25,571.7139,283.25,561.7139,279.25,565.7139" style="stroke:#181818;stroke-width:1.0;"/><line style="stroke:#181818;stroke-width:1.0;" x1="279.25" x2="279.25" y1="1291.6748" y2="1311.6748"/><polygon fill="#181818" points="275.25,1301.6748,279.25,1311.6748,283.25,1301.6748,279.25,1305.6748" style="stroke:#181818;stroke-width:1.0;"/><!--SRC=[bLHBZjD04DttAMgPI9DHWeI4CW8KXeaKWLXCn0eXgsDNd68wNPxkiYT1781JS3XECjLsVjQmOU6aNPzNhz-h93wGhsomMoXmRMidS_Qof9y8apV6HB51Z9akF0bPby9S2Mtr46wCPq48L6x4V6PRJCq88egGBwCU5RUMp56Kz18pyWKr56dbK0Drn90L6AdqLh386kjgJ6q-FLfiq1UG9kZusu1Q1BpwWRbGWz3eDmV8UnmMlWnO47g1nWQoEYZ2w1sCpTBP_A4VZ6te2LDdD7Ux76FiLs0NEvQyf8EFjKeYUzXQ2RI3MOQFFK8VQd85h9cBKHMumd2gDLRHS5UbBnAmSMhCjrcMIk4NBFGPBRx_O-IAQr_4tf2vwe0stwZUn-id8zQqmm9QLTDb1dgwIgz3pLM1E2JYapOrlfvSmT_VVrAAPOFXYIAUCw-6ndp4XgmG-xD4KpCO7zhEF6aDWvdVmuNN5xpU3q7XFGmy3mt0zBxsu7HD0fV0FiUR55ogiGYHNPtcTI4KgAj21SZMpfRm5kRMHIr7_OJ17kC9Zhf5FSAsxNSx2JQN2o8NyAdW4sAb15oVTxUHBS8j-qRT0s6eEBGwvEg4TDbPLMdhLaTlwwtUC63Si1e_ldxTvk-JQQcNl629uOZHnmwfIYqx9bF3OVSwbbzR1Kuh072n101VsEjlaaymBs-YHLQLxHQ3l1wSe0foGDJqsSU3cX5prjYbcFzbZt9OfpyHhfu1]--></g></svg>