<svg xmlns="http://www.w3.org/2000/svg" xmlns:xlink="http://www.w3.org/1999/xlink" contentStyleType="text/css" height="1243px" preserveAspectRatio="none" style="width:766px;height:1243px;background:#FFFFFF;" version="1.1" viewBox="0 0 766 1243" width="766px" zoomAndPan="magnify"><defs/><g><!--class User--><g id="elem_User"><rect codeLine="5" fill="#F1F1F1" height="194.6719" id="User" rx="2.5" ry="2.5" style="stroke:#181818;stroke-width:0.5;" width="313" x="7" y="245.38"/><ellipse cx="143.25" cy="261.38" fill="#ADD1B2" rx="11" ry="11" style="stroke:#181818;stroke-width:1.0;"/><path d="M146.2188,267.0206 Q145.6406,267.3175 145,267.4581 Q144.3594,267.6144 143.6563,267.6144 Q141.1563,267.6144 139.8281,265.9738 Q138.5156,264.3175 138.5156,261.1925 Q138.5156,258.0675 139.8281,256.4113 Q141.1563,254.755 143.6563,254.755 Q144.3594,254.755 145,254.9113 Q145.6563,255.0675 146.2188,255.3644 L146.2188,258.0831 Q145.5938,257.505 145,257.2394 Q144.4063,256.9581 143.7813,256.9581 Q142.4375,256.9581 141.75,258.0363 Q141.0625,259.0988 141.0625,261.1925 Q141.0625,263.2863 141.75,264.3644 Q142.4375,265.4269 143.7813,265.4269 Q144.4063,265.4269 145,265.1613 Q145.5938,264.88 146.2188,264.3019 L146.2188,267.0206 Z " fill="#000000"/><text fill="#000000" font-family="sans-serif" font-size="14" lengthAdjust="spacing" textLength="32" x="163.75" y="266.2267">User</text><line style="stroke:#181818;stroke-width:0.5;" x1="8" x2="319" y1="277.38" y2="277.38"/><text fill="#000000" font-family="sans-serif" font-size="14" lengthAdjust="spacing" textLength="81" x="13" y="294.3751">+userId: int</text><text fill="#000000" font-family="sans-serif" font-size="14" lengthAdjust="spacing" textLength="96" x="13" y="310.672">+email: string</text><text fill="#000000" font-family="sans-serif" font-size="14" lengthAdjust="spacing" textLength="162" x="13" y="326.9689">+passwordHash: string</text><text fill="#000000" font-family="sans-serif" font-size="14" lengthAdjust="spacing" textLength="99" x="13" y="343.2657">+name: string</text><text fill="#000000" font-family="sans-serif" font-size="14" lengthAdjust="spacing" textLength="103" x="13" y="359.5626">+isActive: bool</text><line style="stroke:#181818;stroke-width:0.5;" x1="8" x2="319" y1="366.8644" y2="366.8644"/><text fill="#000000" font-family="sans-serif" font-size="14" lengthAdjust="spacing" textLength="114" x="13" y="383.8595">+register(): bool</text><text fill="#000000" font-family="sans-serif" font-size="14" lengthAdjust="spacing" textLength="301" x="13" y="400.1564">+login(email: string, password: string): bool</text><text fill="#000000" font-family="sans-serif" font-size="14" lengthAdjust="spacing" textLength="260" x="13" y="416.4532">+createMealLog(date: date): MealLog</text><text fill="#000000" font-family="sans-serif" font-size="14" lengthAdjust="spacing" textLength="287" x="13" y="432.7501">+updateSettings(settings: Settings): void</text></g><!--class Admin--><g id="elem_Admin"><rect codeLine="17" fill="#F1F1F1" height="178.375" id="Admin" rx="2.5" ry="2.5" style="stroke:#181818;stroke-width:0.5;" width="313" x="7" y="7"/><ellipse cx="137.75" cy="23" fill="#ADD1B2" rx="11" ry="11" style="stroke:#181818;stroke-width:1.0;"/><path d="M140.7188,28.6406 Q140.1406,28.9375 139.5,29.0781 Q138.8594,29.2344 138.1563,29.2344 Q135.6563,29.2344 134.3281,27.5938 Q133.0156,25.9375 133.0156,22.8125 Q133.0156,19.6875 134.3281,18.0313 Q135.6563,16.375 138.1563,16.375 Q138.8594,16.375 139.5,16.5313 Q140.1563,16.6875 140.7188,16.9844 L140.7188,19.7031 Q140.0938,19.125 139.5,18.8594 Q138.9063,18.5781 138.2813,18.5781 Q136.9375,18.5781 136.25,19.6563 Q135.5625,20.7188 135.5625,22.8125 Q135.5625,24.9063 136.25,25.9844 Q136.9375,27.0469 138.2813,27.0469 Q138.9063,27.0469 139.5,26.7813 Q140.0938,26.5 140.7188,25.9219 L140.7188,28.6406 Z " fill="#000000"/><text fill="#000000" font-family="sans-serif" font-size="14" lengthAdjust="spacing" textLength="43" x="158.25" y="27.8467">Admin</text><line style="stroke:#181818;stroke-width:0.5;" x1="8" x2="319" y1="39" y2="39"/><text fill="#000000" font-family="sans-serif" font-size="14" lengthAdjust="spacing" textLength="92" x="13" y="55.9951">+adminId: int</text><text fill="#000000" font-family="sans-serif" font-size="14" lengthAdjust="spacing" textLength="96" x="13" y="72.292">+email: string</text><text fill="#000000" font-family="sans-serif" font-size="14" lengthAdjust="spacing" textLength="162" x="13" y="88.5889">+passwordHash: string</text><text fill="#000000" font-family="sans-serif" font-size="14" lengthAdjust="spacing" textLength="86" x="13" y="104.8857">+role: string</text><text fill="#000000" font-family="sans-serif" font-size="14" lengthAdjust="spacing" textLength="103" x="13" y="121.1826">+isActive: bool</text><line style="stroke:#181818;stroke-width:0.5;" x1="8" x2="319" y1="128.4844" y2="128.4844"/><text fill="#000000" font-family="sans-serif" font-size="14" lengthAdjust="spacing" textLength="301" x="13" y="145.4795">+login(email: string, password: string): bool</text><text fill="#000000" font-family="sans-serif" font-size="14" lengthAdjust="spacing" textLength="226" x="13" y="161.7764">+searchUser(email: string): User</text><text fill="#000000" font-family="sans-serif" font-size="14" lengthAdjust="spacing" textLength="212" x="13" y="178.0732">+updateUser(user: User): void</text></g><!--class Settings--><g id="elem_Settings"><rect codeLine="28" fill="#F1F1F1" height="210.9688" id="Settings" rx="2.5" ry="2.5" style="stroke:#181818;stroke-width:0.5;" width="384" x="45.5" y="1025.69"/><ellipse cx="204.75" cy="1041.69" fill="#ADD1B2" rx="11" ry="11" style="stroke:#181818;stroke-width:1.0;"/><path d="M207.7188,1047.3306 Q207.1406,1047.6275 206.5,1047.7681 Q205.8594,1047.9244 205.1563,1047.9244 Q202.6563,1047.9244 201.3281,1046.2838 Q200.0156,1044.6275 200.0156,1041.5025 Q200.0156,1038.3775 201.3281,1036.7213 Q202.6563,1035.065 205.1563,1035.065 Q205.8594,1035.065 206.5,1035.2213 Q207.1563,1035.3775 207.7188,1035.6744 L207.7188,1038.3931 Q207.0938,1037.815 206.5,1037.5494 Q205.9063,1037.2681 205.2813,1037.2681 Q203.9375,1037.2681 203.25,1038.3463 Q202.5625,1039.4088 202.5625,1041.5025 Q202.5625,1043.5963 203.25,1044.6744 Q203.9375,1045.7369 205.2813,1045.7369 Q205.9063,1045.7369 206.5,1045.4713 Q207.0938,1045.19 207.7188,1044.6119 L207.7188,1047.3306 Z " fill="#000000"/><text fill="#000000" font-family="sans-serif" font-size="14" lengthAdjust="spacing" textLength="57" x="225.25" y="1046.5367">Settings</text><line style="stroke:#181818;stroke-width:0.5;" x1="46.5" x2="428.5" y1="1057.69" y2="1057.69"/><text fill="#000000" font-family="sans-serif" font-size="14" lengthAdjust="spacing" textLength="106" x="51.5" y="1074.6851">+settingsId: int</text><text fill="#000000" font-family="sans-serif" font-size="14" lengthAdjust="spacing" textLength="239" x="51.5" y="1090.982">+optimizedNutrients: List&lt;String&gt;</text><text fill="#000000" font-family="sans-serif" font-size="14" lengthAdjust="spacing" textLength="149" x="51.5" y="1107.2789">+goalList: List&lt;float&gt;</text><text fill="#000000" font-family="sans-serif" font-size="14" lengthAdjust="spacing" textLength="169" x="51.5" y="1123.5757">+excessList: List&lt;float&gt;</text><text fill="#000000" font-family="sans-serif" font-size="14" lengthAdjust="spacing" textLength="155" x="51.5" y="1139.8726">+slackList: List&lt;float&gt;</text><line style="stroke:#181818;stroke-width:0.5;" x1="46.5" x2="428.5" y1="1147.1744" y2="1147.1744"/><text fill="#000000" font-family="sans-serif" font-size="14" lengthAdjust="spacing" textLength="372" x="51.5" y="1164.1695">+setOptimizedNutrients(nutrients: List&lt;String&gt;): void</text><text fill="#000000" font-family="sans-serif" font-size="14" lengthAdjust="spacing" textLength="242" x="51.5" y="1180.4664">+setGoals(goals: List&lt;float&gt;): void</text><text fill="#000000" font-family="sans-serif" font-size="14" lengthAdjust="spacing" textLength="320" x="51.5" y="1196.7632">+setExcessWeights(excess: List&lt;float&gt;): void</text><text fill="#000000" font-family="sans-serif" font-size="14" lengthAdjust="spacing" textLength="293" x="51.5" y="1213.0601">+setSlackWeights(slack: List&lt;float&gt;): void</text><text fill="#000000" font-family="sans-serif" font-size="14" lengthAdjust="spacing" textLength="170" x="51.5" y="1229.357">+validateSettings(): bool</text></g><!--class NutritionGoal--><g id="elem_NutritionGoal"><rect codeLine="41" fill="#F1F1F1" height="243.5625" id="NutritionGoal" rx="2.5" ry="2.5" style="stroke:#181818;stroke-width:0.5;" width="197" x="65" y="500.05"/><ellipse cx="114.75" cy="516.05" fill="#ADD1B2" rx="11" ry="11" style="stroke:#181818;stroke-width:1.0;"/><path d="M117.7188,521.6906 Q117.1406,521.9875 116.5,522.1281 Q115.8594,522.2844 115.1563,522.2844 Q112.6563,522.2844 111.3281,520.6438 Q110.0156,518.9875 110.0156,515.8625 Q110.0156,512.7375 111.3281,511.0813 Q112.6563,509.425 115.1563,509.425 Q115.8594,509.425 116.5,509.5813 Q117.1563,509.7375 117.7188,510.0344 L117.7188,512.7531 Q117.0938,512.175 116.5,511.9094 Q115.9063,511.6281 115.2813,511.6281 Q113.9375,511.6281 113.25,512.7063 Q112.5625,513.7688 112.5625,515.8625 Q112.5625,517.9563 113.25,519.0344 Q113.9375,520.0969 115.2813,520.0969 Q115.9063,520.0969 116.5,519.8313 Q117.0938,519.55 117.7188,518.9719 L117.7188,521.6906 Z " fill="#000000"/><text fill="#000000" font-family="sans-serif" font-size="14" lengthAdjust="spacing" textLength="89" x="135.25" y="520.8967">NutritionGoal</text><line style="stroke:#181818;stroke-width:0.5;" x1="66" x2="261" y1="532.05" y2="532.05"/><text fill="#000000" font-family="sans-serif" font-size="14" lengthAdjust="spacing" textLength="98" x="71" y="549.0451">+trackerId: int</text><text fill="#000000" font-family="sans-serif" font-size="14" lengthAdjust="spacing" textLength="155" x="71" y="565.342">+currentCalories: float</text><text fill="#000000" font-family="sans-serif" font-size="14" lengthAdjust="spacing" textLength="149" x="71" y="581.6389">+currentProtein: float</text><text fill="#000000" font-family="sans-serif" font-size="14" lengthAdjust="spacing" textLength="121" x="71" y="597.9357">+currentFat: float</text><text fill="#000000" font-family="sans-serif" font-size="14" lengthAdjust="spacing" textLength="140" x="71" y="614.2326">+currentCarbs: float</text><text fill="#000000" font-family="sans-serif" font-size="14" lengthAdjust="spacing" textLength="146" x="71" y="630.5295">+targetCalories: float</text><text fill="#000000" font-family="sans-serif" font-size="14" lengthAdjust="spacing" textLength="140" x="71" y="646.8264">+targetProtein: float</text><text fill="#000000" font-family="sans-serif" font-size="14" lengthAdjust="spacing" textLength="112" x="71" y="663.1232">+targetFat: float</text><text fill="#000000" font-family="sans-serif" font-size="14" lengthAdjust="spacing" textLength="131" x="71" y="679.4201">+targetCarbs: float</text><line style="stroke:#181818;stroke-width:0.5;" x1="66" x2="261" y1="686.7219" y2="686.7219"/><text fill="#000000" font-family="sans-serif" font-size="14" lengthAdjust="spacing" textLength="170" x="71" y="703.717">+updateProgress(): void</text><text fill="#000000" font-family="sans-serif" font-size="14" lengthAdjust="spacing" textLength="185" x="71" y="720.0139">+calculateDeviation(): float</text><text fill="#000000" font-family="sans-serif" font-size="14" lengthAdjust="spacing" textLength="168" x="71" y="736.3107">+displayProgress(): void</text></g><!--class MealLog--><g id="elem_MealLog"><rect codeLine="56" fill="#F1F1F1" height="178.375" id="MealLog" rx="2.5" ry="2.5" style="stroke:#181818;stroke-width:0.5;" width="397" x="297" y="532.64"/><ellipse cx="462.75" cy="548.64" fill="#ADD1B2" rx="11" ry="11" style="stroke:#181818;stroke-width:1.0;"/><path d="M465.7188,554.2806 Q465.1406,554.5775 464.5,554.7181 Q463.8594,554.8744 463.1563,554.8744 Q460.6563,554.8744 459.3281,553.2338 Q458.0156,551.5775 458.0156,548.4525 Q458.0156,545.3275 459.3281,543.6713 Q460.6563,542.015 463.1563,542.015 Q463.8594,542.015 464.5,542.1713 Q465.1563,542.3275 465.7188,542.6244 L465.7188,545.3431 Q465.0938,544.765 464.5,544.4994 Q463.9063,544.2181 463.2813,544.2181 Q461.9375,544.2181 461.25,545.2963 Q460.5625,546.3588 460.5625,548.4525 Q460.5625,550.5463 461.25,551.6244 Q461.9375,552.6869 463.2813,552.6869 Q463.9063,552.6869 464.5,552.4213 Q465.0938,552.14 465.7188,551.5619 L465.7188,554.2806 Z " fill="#000000"/><text fill="#000000" font-family="sans-serif" font-size="14" lengthAdjust="spacing" textLength="57" x="483.25" y="553.4867">MealLog</text><line style="stroke:#181818;stroke-width:0.5;" x1="298" x2="693" y1="564.64" y2="564.64"/><text fill="#000000" font-family="sans-serif" font-size="14" lengthAdjust="spacing" textLength="108" x="303" y="581.6351">+mealLogId: int</text><text fill="#000000" font-family="sans-serif" font-size="14" lengthAdjust="spacing" textLength="83" x="303" y="597.932">+date: date</text><text fill="#000000" font-family="sans-serif" font-size="14" lengthAdjust="spacing" textLength="103" x="303" y="614.2289">+status: string</text><text fill="#000000" font-family="sans-serif" font-size="14" lengthAdjust="spacing" textLength="149" x="303" y="630.5257">+createdAt: datetime</text><line style="stroke:#181818;stroke-width:0.5;" x1="298" x2="693" y1="637.8275" y2="637.8275"/><text fill="#000000" font-family="sans-serif" font-size="14" lengthAdjust="spacing" textLength="296" x="303" y="654.8226">+addIngredient(item: MealIngredient): void</text><text fill="#000000" font-family="sans-serif" font-size="14" lengthAdjust="spacing" textLength="322" x="303" y="671.1195">+removeIngredient(item: MealIngredient): void</text><text fill="#000000" font-family="sans-serif" font-size="14" lengthAdjust="spacing" textLength="319" x="303" y="687.4164">+updateIngredient(item: MealIngredient): void</text><text fill="#000000" font-family="sans-serif" font-size="14" lengthAdjust="spacing" textLength="385" x="303" y="703.7132">+produceResult(settings: Settings): OptimizationResult</text></g><!--class MealIngredient--><g id="elem_MealIngredient"><rect codeLine="67" fill="#F1F1F1" height="162.0781" id="MealIngredient" rx="2.5" ry="2.5" style="stroke:#181818;stroke-width:0.5;" width="262" x="487.5" y="803.61"/><ellipse cx="563.25" cy="819.61" fill="#ADD1B2" rx="11" ry="11" style="stroke:#181818;stroke-width:1.0;"/><path d="M566.2188,825.2506 Q565.6406,825.5475 565,825.6881 Q564.3594,825.8444 563.6563,825.8444 Q561.1563,825.8444 559.8281,824.2038 Q558.5156,822.5475 558.5156,819.4225 Q558.5156,816.2975 559.8281,814.6413 Q561.1563,812.985 563.6563,812.985 Q564.3594,812.985 565,813.1413 Q565.6563,813.2975 566.2188,813.5944 L566.2188,816.3131 Q565.5938,815.735 565,815.4694 Q564.4063,815.1881 563.7813,815.1881 Q562.4375,815.1881 561.75,816.2663 Q561.0625,817.3288 561.0625,819.4225 Q561.0625,821.5163 561.75,822.5944 Q562.4375,823.6569 563.7813,823.6569 Q564.4063,823.6569 565,823.3913 Q565.5938,823.11 566.2188,822.5319 L566.2188,825.2506 Z " fill="#000000"/><text fill="#000000" font-family="sans-serif" font-size="14" lengthAdjust="spacing" textLength="102" x="583.75" y="824.4567">MealIngredient</text><line style="stroke:#181818;stroke-width:0.5;" x1="488.5" x2="748.5" y1="835.61" y2="835.61"/><text fill="#000000" font-family="sans-serif" font-size="14" lengthAdjust="spacing" textLength="153" x="493.5" y="852.6051">+mealIngredientId: int</text><text fill="#000000" font-family="sans-serif" font-size="14" lengthAdjust="spacing" textLength="105" x="493.5" y="868.902">+quantity: float</text><text fill="#000000" font-family="sans-serif" font-size="14" lengthAdjust="spacing" textLength="149" x="493.5" y="885.1989">+quantityType: string</text><text fill="#000000" font-family="sans-serif" font-size="14" lengthAdjust="spacing" textLength="144" x="493.5" y="901.4957">+isPieceBased: bool</text><line style="stroke:#181818;stroke-width:0.5;" x1="488.5" x2="748.5" y1="908.7975" y2="908.7975"/><text fill="#000000" font-family="sans-serif" font-size="14" lengthAdjust="spacing" textLength="231" x="493.5" y="925.7926">+setQuantity(quantity: float): void</text><text fill="#000000" font-family="sans-serif" font-size="14" lengthAdjust="spacing" textLength="250" x="493.5" y="942.0895">+setQuantityType(type: string): void</text><text fill="#000000" font-family="sans-serif" font-size="14" lengthAdjust="spacing" textLength="170" x="493.5" y="958.3864">+validateQuantity(): bool</text></g><!--class Ingredient--><g id="elem_Ingredient"><rect codeLine="77" fill="#F1F1F1" height="178.375" id="Ingredient" rx="2.5" ry="2.5" style="stroke:#181818;stroke-width:0.5;" width="282" x="477.5" y="1041.99"/><ellipse cx="579.25" cy="1057.99" fill="#ADD1B2" rx="11" ry="11" style="stroke:#181818;stroke-width:1.0;"/><path d="M582.2188,1063.6306 Q581.6406,1063.9275 581,1064.0681 Q580.3594,1064.2244 579.6563,1064.2244 Q577.1563,1064.2244 575.8281,1062.5838 Q574.5156,1060.9275 574.5156,1057.8025 Q574.5156,1054.6775 575.8281,1053.0213 Q577.1563,1051.365 579.6563,1051.365 Q580.3594,1051.365 581,1051.5213 Q581.6563,1051.6775 582.2188,1051.9744 L582.2188,1054.6931 Q581.5938,1054.115 581,1053.8494 Q580.4063,1053.5681 579.7813,1053.5681 Q578.4375,1053.5681 577.75,1054.6463 Q577.0625,1055.7088 577.0625,1057.8025 Q577.0625,1059.8963 577.75,1060.9744 Q578.4375,1062.0369 579.7813,1062.0369 Q580.4063,1062.0369 581,1061.7713 Q581.5938,1061.49 582.2188,1060.9119 L582.2188,1063.6306 Z " fill="#000000"/><text fill="#000000" font-family="sans-serif" font-size="14" lengthAdjust="spacing" textLength="70" x="599.75" y="1062.8367">Ingredient</text><line style="stroke:#181818;stroke-width:0.5;" x1="478.5" x2="758.5" y1="1073.99" y2="1073.99"/><text fill="#000000" font-family="sans-serif" font-size="14" lengthAdjust="spacing" textLength="145" x="483.5" y="1090.9851">+ingredientCode: int</text><text fill="#000000" font-family="sans-serif" font-size="14" lengthAdjust="spacing" textLength="99" x="483.5" y="1107.282">+name: string</text><text fill="#000000" font-family="sans-serif" font-size="14" lengthAdjust="spacing" textLength="86" x="483.5" y="1123.5789">+unit: string</text><text fill="#000000" font-family="sans-serif" font-size="14" lengthAdjust="spacing" textLength="162" x="483.5" y="1139.8757">+caloriesPer100g: float</text><text fill="#000000" font-family="sans-serif" font-size="14" lengthAdjust="spacing" textLength="158" x="483.5" y="1156.1726">+proteinPer100g: float</text><text fill="#000000" font-family="sans-serif" font-size="14" lengthAdjust="spacing" textLength="126" x="483.5" y="1172.4695">+fatPer100g: float</text><text fill="#000000" font-family="sans-serif" font-size="14" lengthAdjust="spacing" textLength="147" x="483.5" y="1188.7664">+carbsPer100g: float</text><line style="stroke:#181818;stroke-width:0.5;" x1="478.5" x2="758.5" y1="1196.0681" y2="1196.0681"/><text fill="#000000" font-family="sans-serif" font-size="14" lengthAdjust="spacing" textLength="270" x="483.5" y="1213.0632">+getNutritionValue(amount: float): float</text></g><!--class OptimizationResult--><g id="elem_OptimizationResult"><rect codeLine="88" fill="#F1F1F1" height="162.0781" id="OptimizationResult" rx="2.5" ry="2.5" style="stroke:#181818;stroke-width:0.5;" width="162" x="290.5" y="803.61"/><ellipse cx="305.5" cy="819.61" fill="#ADD1B2" rx="11" ry="11" style="stroke:#181818;stroke-width:1.0;"/><path d="M308.4688,825.2506 Q307.8906,825.5475 307.25,825.6881 Q306.6094,825.8444 305.9063,825.8444 Q303.4063,825.8444 302.0781,824.2038 Q300.7656,822.5475 300.7656,819.4225 Q300.7656,816.2975 302.0781,814.6413 Q303.4063,812.985 305.9063,812.985 Q306.6094,812.985 307.25,813.1413 Q307.9063,813.2975 308.4688,813.5944 L308.4688,816.3131 Q307.8438,815.735 307.25,815.4694 Q306.6563,815.1881 306.0313,815.1881 Q304.6875,815.1881 304,816.2663 Q303.3125,817.3288 303.3125,819.4225 Q303.3125,821.5163 304,822.5944 Q304.6875,823.6569 306.0313,823.6569 Q306.6563,823.6569 307.25,823.3913 Q307.8438,823.11 308.4688,822.5319 L308.4688,825.2506 Z " fill="#000000"/><text fill="#000000" font-family="sans-serif" font-size="14" lengthAdjust="spacing" textLength="130" x="319.5" y="824.4567">OptimizationResult</text><line style="stroke:#181818;stroke-width:0.5;" x1="291.5" x2="451.5" y1="835.61" y2="835.61"/><text fill="#000000" font-family="sans-serif" font-size="14" lengthAdjust="spacing" textLength="89" x="296.5" y="852.6051">+resultId: int</text><text fill="#000000" font-family="sans-serif" font-size="14" lengthAdjust="spacing" textLength="103" x="296.5" y="868.902">+status: string</text><text fill="#000000" font-family="sans-serif" font-size="14" lengthAdjust="spacing" textLength="149" x="296.5" y="885.1989">+createdAt: datetime</text><text fill="#000000" font-family="sans-serif" font-size="14" lengthAdjust="spacing" textLength="150" x="296.5" y="901.4957">+objectiveValue: float</text><text fill="#000000" font-family="sans-serif" font-size="14" lengthAdjust="spacing" textLength="124" x="296.5" y="917.7926">+message: string</text><line style="stroke:#181818;stroke-width:0.5;" x1="291.5" x2="451.5" y1="925.0944" y2="925.0944"/><text fill="#000000" font-family="sans-serif" font-size="14" lengthAdjust="spacing" textLength="150" x="296.5" y="942.0895">+displayResult(): void</text><text fill="#000000" font-family="sans-serif" font-size="14" lengthAdjust="spacing" textLength="147" x="296.5" y="958.3864">+isSuccessful(): bool</text></g><!--link User to MealLog--><g id="link_User_MealLog"><path codeLine="98" d="M308.5,440.34 C308.5,470.21 308.5,502.9 308.5,532.21 " fill="none" id="User-MealLog" style="stroke:#181818;stroke-width:1.0;"/><text fill="#000000" font-family="sans-serif" font-size="13" lengthAdjust="spacing" textLength="48" x="259.5" y="482.3369">creates</text><text fill="#000000" font-family="sans-serif" font-size="13" lengthAdjust="spacing" textLength="8" x="310.8547" y="460.1318">1</text><text fill="#000000" font-family="sans-serif" font-size="13" lengthAdjust="spacing" textLength="23" x="269.682" y="521.5431">0..*</text></g><!--link User to Settings--><g id="link_User_Settings"><path codeLine="99" d="M276.25,440.19 C276.25,589.03 276.25,871.83 276.25,1025.45 " fill="none" id="User-Settings" style="stroke:#181818;stroke-width:1.0;"/><text fill="#000000" font-family="sans-serif" font-size="13" lengthAdjust="spacing" textLength="30" x="277.25" y="728.8869">uses</text><text fill="#000000" font-family="sans-serif" font-size="13" lengthAdjust="spacing" textLength="8" x="276.2363" y="459.9708">1</text><text fill="#000000" font-family="sans-serif" font-size="13" lengthAdjust="spacing" textLength="24" x="254.1309" y="1014.5605">0..1</text></g><!--link User to NutritionGoal--><g id="link_User_NutritionGoal"><path codeLine="100" d="M163.5,440.34 C163.5,459.52 163.5,479.86 163.5,499.72 " fill="none" id="User-NutritionGoal" style="stroke:#181818;stroke-width:1.0;"/><text fill="#000000" font-family="sans-serif" font-size="13" lengthAdjust="spacing" textLength="39" x="164.5" y="466.0969">tracks</text><text fill="#000000" font-family="sans-serif" font-size="13" lengthAdjust="spacing" textLength="8" x="155.2063" y="460.1318">1</text><text fill="#000000" font-family="sans-serif" font-size="13" lengthAdjust="spacing" textLength="23" x="139.7992" y="488.8928">0..*</text></g><!--reverse link MealLog to MealIngredient--><g id="link_MealLog_MealIngredient"><path codeLine="101" d="M590.75,723.18 C590.75,753.09 590.75,774.25 590.75,803.5 " fill="none" id="MealLog-backto-MealIngredient" style="stroke:#181818;stroke-width:1.0;"/><polygon fill="#181818" points="590.75,711.18,586.75,717.18,590.75,723.18,594.75,717.18,590.75,711.18" style="stroke:#181818;stroke-width:1.0;"/><text fill="#000000" font-family="sans-serif" font-size="13" lengthAdjust="spacing" textLength="54" x="535.75" y="753.4069">contains</text><text fill="#000000" font-family="sans-serif" font-size="13" lengthAdjust="spacing" textLength="8" x="590.0215" y="730.9701">1</text><text fill="#000000" font-family="sans-serif" font-size="13" lengthAdjust="spacing" textLength="23" x="564.2543" y="792.6775">1..*</text></g><!--link MealIngredient to Ingredient--><g id="link_MealIngredient_Ingredient"><path codeLine="102" d="M618.5,966.06 C618.5,990.32 618.5,1011.04 618.5,1035.78 " fill="none" id="MealIngredient-to-Ingredient" style="stroke:#181818;stroke-width:1.0;"/><polygon fill="#181818" points="618.5,1041.78,622.5,1032.78,618.5,1036.78,614.5,1032.78,618.5,1041.78" style="stroke:#181818;stroke-width:1.0;"/><text fill="#000000" font-family="sans-serif" font-size="13" lengthAdjust="spacing" textLength="68" x="549.5" y="999.9869">references</text><text fill="#000000" font-family="sans-serif" font-size="13" lengthAdjust="spacing" textLength="7" x="611.1992" y="985.7734">*</text><text fill="#000000" font-family="sans-serif" font-size="13" lengthAdjust="spacing" textLength="8" x="610.1688" y="1030.8281">1</text></g><!--link MealLog to Settings--><g id="link_MealLog_Settings"><path codeLine="103" d="M465,711.45 C465,832.6 465,1033.66 465,1033.66 C465,1033.66 457,1033.66 435.95,1033.66 " fill="none" id="MealLog-to-Settings" style="stroke:#181818;stroke-width:1.0;"/><polygon fill="#181818" points="429.95,1033.66,438.95,1037.66,434.95,1033.66,438.95,1029.66,429.95,1033.66" style="stroke:#181818;stroke-width:1.0;"/><text fill="#000000" font-family="sans-serif" font-size="13" lengthAdjust="spacing" textLength="30" x="458" y="903.1469">uses</text><text fill="#000000" font-family="sans-serif" font-size="13" lengthAdjust="spacing" textLength="8" x="454.3586" y="730.9579">1</text><text fill="#000000" font-family="sans-serif" font-size="13" lengthAdjust="spacing" textLength="8" x="437.6238" y="1026.6274">1</text></g><!--link MealLog to OptimizationResult--><g id="link_MealLog_OptimizationResult"><path codeLine="104" d="M374.75,711.18 C374.75,741.09 374.75,774.25 374.75,803.5 " fill="none" id="MealLog-OptimizationResult" style="stroke:#181818;stroke-width:1.0;"/><text fill="#000000" font-family="sans-serif" font-size="13" lengthAdjust="spacing" textLength="59" x="314.75" y="753.4069">produces</text><text fill="#000000" font-family="sans-serif" font-size="13" lengthAdjust="spacing" textLength="8" x="356.809" y="730.9701">1</text><text fill="#000000" font-family="sans-serif" font-size="13" lengthAdjust="spacing" textLength="24" x="349.9707" y="792.6775">0..1</text></g><!--link OptimizationResult to Settings--><g id="link_OptimizationResult_Settings"><path codeLine="105" d="M360,966.06 C360,984.99 360,999.42 360,1019.24 " fill="none" id="OptimizationResult-to-Settings" style="stroke:#181818;stroke-width:1.0;"/><polygon fill="#181818" points="360,1025.24,364,1016.24,360,1020.24,356,1016.24,360,1025.24" style="stroke:#181818;stroke-width:1.0;"/><text fill="#000000" font-family="sans-serif" font-size="13" lengthAdjust="spacing" textLength="59" x="361" y="991.7169">based on</text><text fill="#000000" font-family="sans-serif" font-size="13" lengthAdjust="spacing" textLength="7" x="351.7109" y="985.7734">*</text><text fill="#000000" font-family="sans-serif" font-size="13" lengthAdjust="spacing" textLength="8" x="359.9617" y="1014.69">1</text></g><!--link Admin to User--><g id="link_Admin_User"><path codeLine="106" d="M163.5,185.54 C163.5,204.83 163.5,219.32 163.5,238.92 " fill="none" id="Admin-to-User" style="stroke:#181818;stroke-width:1.0;stroke-dasharray:7.0,7.0;"/><polygon fill="#181818" points="163.5,244.92,167.5,235.92,163.5,239.92,159.5,235.92,163.5,244.92" style="stroke:#181818;stroke-width:1.0;"/><text fill="#000000" font-family="sans-serif" font-size="13" lengthAdjust="spacing" textLength="60" x="102.5" y="211.2969">manages</text></g><!--SRC=[dLPPSzCm47xFhz3aoHIQILyzJ6T2kJfJe2KSpugzSKHbAKZhbCBmtrb9FgJOGE4b8-z-skFRGx6tGksvuJKh9BTsXMZ4fa6uBBHQY-_0bZFRG-oEb_fEg8fjkRGGQQHGWFTxODhWJizctXZxQC6m7pF67ZTqkYnp9XIwJwYva3cpv4nLJh0d-9qsvMjkTx5SyHhYRs5N1Oe3oJPQIoSnK0cBOB97WqpgIgWiSVA4TIuwIOGl3724Dy3bbQwoaiuvSxy4QOK-XxsJhG6HRjlCjeUSTIA27xGePp-x_5TbBLGWWBlZ_p1WjFmB0_-QhGLkYfshJNg984uufEeXhd91CKglopjasF4H9QdtA6fgel9jGnv08P5rHTLwklOEpnscqaGmoLhDLcgENW7V2h1sKcKbBswdDO3lHaupDUs-IoZSUqM1sCo5OnEpAUg5Z-epY6f7XaECVu2lNQGTseVzE_21Iv7qLrUndcwV3mgjNAI1SpHaCPcieZ66ChtWKbFA59ft56ckZKOGQgnuoN4ilE1c4nj1RYgOiXuKO-D1djhkZAIcGy-HXSeGfrb4JS5bqKXIFeU3u8u1f-qlbiBk9RyVtUo9QsSuK5Q7ZuYoOTvzqP1ZO-E92zkXN640KNT1cEZoKf77qdLM9X3gi2q6OPI2WLeVuE7uGCR3yNkZowQ0zs0RYTEhgPqBpr_0fGmDTWUY1bd4rzU6AnHu7vMW4tsW9o1TLjS22dZ6BPJn0iARza9sP2oTdfl8R8QHxOcvwIsEvkOuCT5_N-WI-hIEdvf62KpQe6twQp1dosKLPRyFNJzMR3cEXONh-x6O9g8Vy4zSDf3nMZSA1s82j4zhNC-Gdl7dg5uFxcYz-GB-RV7-ezXg6YjU9UoqGzSsN5GFOTTDuRRYjf5nBVn_WVdPd9sUilboiJYPztEPin2G7O7er3yoEQEdo4xPIHTZplnMjBFEl0EVEFHPxpLg2NAk5NAXmeL8CpznJixz_UI2WItGSgGa4nyTzZZY5DFbDL6-dBLZR6SJsZYSoCN6pHRJQXR-R2mMv-5lLyvghgXezXS0]--></g></svg>