<svg xmlns="http://www.w3.org/2000/svg" xmlns:xlink="http://www.w3.org/1999/xlink" contentStyleType="text/css" height="1176px" preserveAspectRatio="none" style="width:679px;height:1176px;background:#FFFFFF;" version="1.1" viewBox="0 0 679 1176" width="679px" zoomAndPan="magnify"><defs/><g><!--class Region--><g id="elem_Region"><rect codeLine="4" fill="#F1F1F1" height="88.8906" id="Region" rx="2.5" ry="2.5" style="stroke:#181818;stroke-width:0.5;" width="106" x="245.5" y="7"/><ellipse cx="271.75" cy="23" fill="#ADD1B2" rx="11" ry="11" style="stroke:#181818;stroke-width:1.0;"/><path d="M274.7188,28.6406 Q274.1406,28.9375 273.5,29.0781 Q272.8594,29.2344 272.1563,29.2344 Q269.6563,29.2344 268.3281,27.5938 Q267.0156,25.9375 267.0156,22.8125 Q267.0156,19.6875 268.3281,18.0313 Q269.6563,16.375 272.1563,16.375 Q272.8594,16.375 273.5,16.5313 Q274.1563,16.6875 274.7188,16.9844 L274.7188,19.7031 Q274.0938,19.125 273.5,18.8594 Q272.9063,18.5781 272.2813,18.5781 Q270.9375,18.5781 270.25,19.6563 Q269.5625,20.7188 269.5625,22.8125 Q269.5625,24.9063 270.25,25.9844 Q270.9375,27.0469 272.2813,27.0469 Q272.9063,27.0469 273.5,26.7813 Q274.0938,26.5 274.7188,25.9219 L274.7188,28.6406 Z " fill="#000000"/><text fill="#000000" font-family="sans-serif" font-size="14" lengthAdjust="spacing" textLength="49" x="288.25" y="27.8467">Region</text><line style="stroke:#181818;stroke-width:0.5;" x1="246.5" x2="350.5" y1="39" y2="39"/><text fill="#000000" font-family="sans-serif" font-size="14" lengthAdjust="spacing" textLength="94" x="251.5" y="55.9951">-id_region: int</text><text fill="#000000" font-family="sans-serif" font-size="14" lengthAdjust="spacing" textLength="94" x="251.5" y="72.292">-nazev: string</text><text fill="#000000" font-family="sans-serif" font-size="14" lengthAdjust="spacing" textLength="91" x="251.5" y="88.5889">-popis: string</text></g><!--class Oblast--><g id="elem_Oblast"><rect codeLine="10" fill="#F1F1F1" height="88.8906" id="Oblast" rx="2.5" ry="2.5" style="stroke:#181818;stroke-width:0.5;" width="106" x="245.5" y="172.89"/><ellipse cx="274" cy="188.89" fill="#ADD1B2" rx="11" ry="11" style="stroke:#181818;stroke-width:1.0;"/><path d="M276.9688,194.5306 Q276.3906,194.8275 275.75,194.9681 Q275.1094,195.1244 274.4063,195.1244 Q271.9063,195.1244 270.5781,193.4838 Q269.2656,191.8275 269.2656,188.7025 Q269.2656,185.5775 270.5781,183.9213 Q271.9063,182.265 274.4063,182.265 Q275.1094,182.265 275.75,182.4213 Q276.4063,182.5775 276.9688,182.8744 L276.9688,185.5931 Q276.3438,185.015 275.75,184.7494 Q275.1563,184.4681 274.5313,184.4681 Q273.1875,184.4681 272.5,185.5463 Q271.8125,186.6088 271.8125,188.7025 Q271.8125,190.7963 272.5,191.8744 Q273.1875,192.9369 274.5313,192.9369 Q275.1563,192.9369 275.75,192.6713 Q276.3438,192.39 276.9688,191.8119 L276.9688,194.5306 Z " fill="#000000"/><text fill="#000000" font-family="sans-serif" font-size="14" lengthAdjust="spacing" textLength="44" x="291" y="193.7367">Oblast</text><line style="stroke:#181818;stroke-width:0.5;" x1="246.5" x2="350.5" y1="204.89" y2="204.89"/><text fill="#000000" font-family="sans-serif" font-size="14" lengthAdjust="spacing" textLength="92" x="251.5" y="221.8851">-id_oblast: int</text><text fill="#000000" font-family="sans-serif" font-size="14" lengthAdjust="spacing" textLength="94" x="251.5" y="238.182">-nazev: string</text><text fill="#000000" font-family="sans-serif" font-size="14" lengthAdjust="spacing" textLength="91" x="251.5" y="254.4789">-popis: string</text></g><!--class Lokalita--><g id="elem_Lokalita"><rect codeLine="16" fill="#F1F1F1" height="137.7813" id="Lokalita" rx="2.5" ry="2.5" style="stroke:#181818;stroke-width:0.5;" width="139" x="229" y="338.78"/><ellipse cx="269.2" cy="354.78" fill="#ADD1B2" rx="11" ry="11" style="stroke:#181818;stroke-width:1.0;"/><path d="M272.1688,360.4206 Q271.5906,360.7175 270.95,360.8581 Q270.3094,361.0144 269.6063,361.0144 Q267.1063,361.0144 265.7781,359.3738 Q264.4656,357.7175 264.4656,354.5925 Q264.4656,351.4675 265.7781,349.8113 Q267.1063,348.155 269.6063,348.155 Q270.3094,348.155 270.95,348.3113 Q271.6063,348.4675 272.1688,348.7644 L272.1688,351.4831 Q271.5438,350.905 270.95,350.6394 Q270.3563,350.3581 269.7313,350.3581 Q268.3875,350.3581 267.7,351.4363 Q267.0125,352.4988 267.0125,354.5925 Q267.0125,356.6863 267.7,357.7644 Q268.3875,358.8269 269.7313,358.8269 Q270.3563,358.8269 270.95,358.5613 Q271.5438,358.28 272.1688,357.7019 L272.1688,360.4206 Z " fill="#000000"/><text fill="#000000" font-family="sans-serif" font-size="14" lengthAdjust="spacing" textLength="51" x="288.8" y="359.6267">Lokalita</text><line style="stroke:#181818;stroke-width:0.5;" x1="230" x2="367" y1="370.78" y2="370.78"/><text fill="#000000" font-family="sans-serif" font-size="14" lengthAdjust="spacing" textLength="97" x="235" y="387.7751">-id_lokalita: int</text><text fill="#000000" font-family="sans-serif" font-size="14" lengthAdjust="spacing" textLength="94" x="235" y="404.072">-nazev: string</text><text fill="#000000" font-family="sans-serif" font-size="14" lengthAdjust="spacing" textLength="79" x="235" y="420.3689">-gps: string</text><text fill="#000000" font-family="sans-serif" font-size="14" lengthAdjust="spacing" textLength="91" x="235" y="436.6657">-popis: string</text><text fill="#000000" font-family="sans-serif" font-size="14" lengthAdjust="spacing" textLength="117" x="235" y="452.9626">-hodnoceni: float</text><text fill="#000000" font-family="sans-serif" font-size="14" lengthAdjust="spacing" textLength="127" x="235" y="469.2595">-navstevnost: float</text></g><!--class Skala--><g id="elem_Skala"><rect codeLine="25" fill="#F1F1F1" height="154.0781" id="Skala" rx="2.5" ry="2.5" style="stroke:#181818;stroke-width:0.5;" width="199" x="199" y="553.57"/><ellipse cx="276.25" cy="569.57" fill="#ADD1B2" rx="11" ry="11" style="stroke:#181818;stroke-width:1.0;"/><path d="M279.2188,575.2106 Q278.6406,575.5075 278,575.6481 Q277.3594,575.8044 276.6563,575.8044 Q274.1563,575.8044 272.8281,574.1637 Q271.5156,572.5075 271.5156,569.3825 Q271.5156,566.2575 272.8281,564.6012 Q274.1563,562.945 276.6563,562.945 Q277.3594,562.945 278,563.1012 Q278.6563,563.2575 279.2188,563.5544 L279.2188,566.2731 Q278.5938,565.695 278,565.4294 Q277.4063,565.1481 276.7813,565.1481 Q275.4375,565.1481 274.75,566.2262 Q274.0625,567.2887 274.0625,569.3825 Q274.0625,571.4762 274.75,572.5544 Q275.4375,573.6169 276.7813,573.6169 Q277.4063,573.6169 278,573.3512 Q278.5938,573.07 279.2188,572.4919 L279.2188,575.2106 Z " fill="#000000"/><text fill="#000000" font-family="sans-serif" font-size="14" lengthAdjust="spacing" textLength="36" x="296.75" y="574.4167">Skala</text><line style="stroke:#181818;stroke-width:0.5;" x1="200" x2="397" y1="585.57" y2="585.57"/><text fill="#000000" font-family="sans-serif" font-size="14" lengthAdjust="spacing" textLength="85" x="205" y="602.5651">-id_skala: int</text><text fill="#000000" font-family="sans-serif" font-size="14" lengthAdjust="spacing" textLength="94" x="205" y="618.862">-nazev: string</text><text fill="#000000" font-family="sans-serif" font-size="14" lengthAdjust="spacing" textLength="117" x="205" y="635.1589">-hodnoceni: float</text><text fill="#000000" font-family="sans-serif" font-size="14" lengthAdjust="spacing" textLength="165" x="205" y="651.4557">-podminky lezeni: string</text><text fill="#000000" font-family="sans-serif" font-size="14" lengthAdjust="spacing" textLength="187" x="205" y="667.7526">-pruvodce k sektoru: string</text><text fill="#000000" font-family="sans-serif" font-size="14" lengthAdjust="spacing" textLength="79" x="205" y="684.0495">-gps: string</text><text fill="#000000" font-family="sans-serif" font-size="14" lengthAdjust="spacing" textLength="118" x="205" y="700.3464">-orientace: string</text></g><!--class Cesta--><g id="elem_Cesta"><rect codeLine="35" fill="#F1F1F1" height="202.9688" id="Cesta" rx="2.5" ry="2.5" style="stroke:#181818;stroke-width:0.5;" width="192" x="202.5" y="784.64"/><ellipse cx="274.25" cy="800.64" fill="#ADD1B2" rx="11" ry="11" style="stroke:#181818;stroke-width:1.0;"/><path d="M277.2188,806.2806 Q276.6406,806.5775 276,806.7181 Q275.3594,806.8744 274.6563,806.8744 Q272.1563,806.8744 270.8281,805.2337 Q269.5156,803.5775 269.5156,800.4525 Q269.5156,797.3275 270.8281,795.6712 Q272.1563,794.015 274.6563,794.015 Q275.3594,794.015 276,794.1712 Q276.6563,794.3275 277.2188,794.6244 L277.2188,797.3431 Q276.5938,796.765 276,796.4994 Q275.4063,796.2181 274.7813,796.2181 Q273.4375,796.2181 272.75,797.2962 Q272.0625,798.3587 272.0625,800.4525 Q272.0625,802.5462 272.75,803.6244 Q273.4375,804.6869 274.7813,804.6869 Q275.4063,804.6869 276,804.4212 Q276.5938,804.14 277.2188,803.5619 L277.2188,806.2806 Z " fill="#000000"/><text fill="#000000" font-family="sans-serif" font-size="14" lengthAdjust="spacing" textLength="40" x="294.75" y="805.4867">Cesta</text><line style="stroke:#181818;stroke-width:0.5;" x1="203.5" x2="393.5" y1="816.64" y2="816.64"/><text fill="#000000" font-family="sans-serif" font-size="14" lengthAdjust="spacing" textLength="88" x="208.5" y="833.6351">-id_cesta: int</text><text fill="#000000" font-family="sans-serif" font-size="14" lengthAdjust="spacing" textLength="94" x="208.5" y="849.932">-nazev: string</text><text fill="#000000" font-family="sans-serif" font-size="14" lengthAdjust="spacing" textLength="123" x="208.5" y="866.2289">-klasifikace: string</text><text fill="#000000" font-family="sans-serif" font-size="14" lengthAdjust="spacing" textLength="80" x="208.5" y="882.5257">-delka: float</text><text fill="#000000" font-family="sans-serif" font-size="14" lengthAdjust="spacing" textLength="104" x="208.5" y="898.8226">-nebezpeci: int</text><text fill="#000000" font-family="sans-serif" font-size="14" lengthAdjust="spacing" textLength="90" x="208.5" y="915.1195">-sklon: string</text><text fill="#000000" font-family="sans-serif" font-size="14" lengthAdjust="spacing" textLength="118" x="208.5" y="931.4164">-orientace: string</text><text fill="#000000" font-family="sans-serif" font-size="14" lengthAdjust="spacing" textLength="91" x="208.5" y="947.7132">-popis: string</text><text fill="#000000" font-family="sans-serif" font-size="14" lengthAdjust="spacing" textLength="180" x="208.5" y="964.0101">-autor_prvovystupu: string</text><text fill="#000000" font-family="sans-serif" font-size="14" lengthAdjust="spacing" textLength="166" x="208.5" y="980.307">-datum_prvovystupu: int</text></g><!--class TypLezeni--><g id="elem_TypLezeni"><rect codeLine="49" fill="#F1F1F1" height="72.5938" id="TypLezeni" rx="2.5" ry="2.5" style="stroke:#181818;stroke-width:0.5;" width="131" x="7" y="1080.91"/><ellipse cx="35.05" cy="1096.91" fill="#ADD1B2" rx="11" ry="11" style="stroke:#181818;stroke-width:1.0;"/><path d="M38.0188,1102.5506 Q37.4406,1102.8475 36.8,1102.9881 Q36.1594,1103.1444 35.4563,1103.1444 Q32.9563,1103.1444 31.6281,1101.5037 Q30.3156,1099.8475 30.3156,1096.7225 Q30.3156,1093.5975 31.6281,1091.9412 Q32.9563,1090.285 35.4563,1090.285 Q36.1594,1090.285 36.8,1090.4412 Q37.4563,1090.5975 38.0188,1090.8944 L38.0188,1093.6131 Q37.3938,1093.035 36.8,1092.7694 Q36.2063,1092.4881 35.5813,1092.4881 Q34.2375,1092.4881 33.55,1093.5662 Q32.8625,1094.6287 32.8625,1096.7225 Q32.8625,1098.8162 33.55,1099.8944 Q34.2375,1100.9569 35.5813,1100.9569 Q36.2063,1100.9569 36.8,1100.6912 Q37.3938,1100.41 38.0188,1099.8319 L38.0188,1102.5506 Z " fill="#000000"/><text fill="#000000" font-family="sans-serif" font-size="14" lengthAdjust="spacing" textLength="70" x="51.95" y="1101.7567">TypLezeni</text><line style="stroke:#181818;stroke-width:0.5;" x1="8" x2="137" y1="1112.91" y2="1112.91"/><text fill="#000000" font-family="sans-serif" font-size="14" lengthAdjust="spacing" textLength="119" x="13" y="1129.9051">-id_typ_lezeni: int</text><text fill="#000000" font-family="sans-serif" font-size="14" lengthAdjust="spacing" textLength="94" x="13" y="1146.202">-nazev: string</text></g><!--class TypJisteni--><g id="elem_TypJisteni"><rect codeLine="54" fill="#F1F1F1" height="72.5938" id="TypJisteni" rx="2.5" ry="2.5" style="stroke:#181818;stroke-width:0.5;" width="130" x="173.5" y="1080.91"/><ellipse cx="203.35" cy="1096.91" fill="#ADD1B2" rx="11" ry="11" style="stroke:#181818;stroke-width:1.0;"/><path d="M206.3188,1102.5506 Q205.7406,1102.8475 205.1,1102.9881 Q204.4594,1103.1444 203.7563,1103.1444 Q201.2563,1103.1444 199.9281,1101.5037 Q198.6156,1099.8475 198.6156,1096.7225 Q198.6156,1093.5975 199.9281,1091.9412 Q201.2563,1090.285 203.7563,1090.285 Q204.4594,1090.285 205.1,1090.4412 Q205.7563,1090.5975 206.3188,1090.8944 L206.3188,1093.6131 Q205.6938,1093.035 205.1,1092.7694 Q204.5063,1092.4881 203.8813,1092.4881 Q202.5375,1092.4881 201.85,1093.5662 Q201.1625,1094.6287 201.1625,1096.7225 Q201.1625,1098.8162 201.85,1099.8944 Q202.5375,1100.9569 203.8813,1100.9569 Q204.5063,1100.9569 205.1,1100.6912 Q205.6938,1100.41 206.3188,1099.8319 L206.3188,1102.5506 Z " fill="#000000"/><text fill="#000000" font-family="sans-serif" font-size="14" lengthAdjust="spacing" textLength="65" x="220.65" y="1101.7567">TypJisteni</text><line style="stroke:#181818;stroke-width:0.5;" x1="174.5" x2="302.5" y1="1112.91" y2="1112.91"/><text fill="#000000" font-family="sans-serif" font-size="14" lengthAdjust="spacing" textLength="118" x="179.5" y="1129.9051">-id_typ_jisteni: int</text><text fill="#000000" font-family="sans-serif" font-size="14" lengthAdjust="spacing" textLength="94" x="179.5" y="1146.202">-nazev: string</text></g><!--class TypSlunce--><g id="elem_TypSlunce"><rect codeLine="59" fill="#F1F1F1" height="72.5938" id="TypSlunce" rx="2.5" ry="2.5" style="stroke:#181818;stroke-width:0.5;" width="136" x="338.5" y="1080.91"/><ellipse cx="367.9" cy="1096.91" fill="#ADD1B2" rx="11" ry="11" style="stroke:#181818;stroke-width:1.0;"/><path d="M370.8688,1102.5506 Q370.2906,1102.8475 369.65,1102.9881 Q369.0094,1103.1444 368.3063,1103.1444 Q365.8063,1103.1444 364.4781,1101.5037 Q363.1656,1099.8475 363.1656,1096.7225 Q363.1656,1093.5975 364.4781,1091.9412 Q365.8063,1090.285 368.3063,1090.285 Q369.0094,1090.285 369.65,1090.4412 Q370.3063,1090.5975 370.8688,1090.8944 L370.8688,1093.6131 Q370.2438,1093.035 369.65,1092.7694 Q369.0563,1092.4881 368.4313,1092.4881 Q367.0875,1092.4881 366.4,1093.5662 Q365.7125,1094.6287 365.7125,1096.7225 Q365.7125,1098.8162 366.4,1099.8944 Q367.0875,1100.9569 368.4313,1100.9569 Q369.0563,1100.9569 369.65,1100.6912 Q370.2438,1100.41 370.8688,1099.8319 L370.8688,1102.5506 Z " fill="#000000"/><text fill="#000000" font-family="sans-serif" font-size="14" lengthAdjust="spacing" textLength="72" x="385.1" y="1101.7567">TypSlunce</text><line style="stroke:#181818;stroke-width:0.5;" x1="339.5" x2="473.5" y1="1112.91" y2="1112.91"/><text fill="#000000" font-family="sans-serif" font-size="14" lengthAdjust="spacing" textLength="124" x="344.5" y="1129.9051">-id_typ_slunce: int</text><text fill="#000000" font-family="sans-serif" font-size="14" lengthAdjust="spacing" textLength="94" x="344.5" y="1146.202">-nazev: string</text></g><!--class Fotografie--><g id="elem_Fotografie"><rect codeLine="64" fill="#F1F1F1" height="105.1875" id="Fotografie" rx="2.5" ry="2.5" style="stroke:#181818;stroke-width:0.5;" width="103" x="569" y="1064.61"/><ellipse cx="584.9" cy="1080.61" fill="#ADD1B2" rx="11" ry="11" style="stroke:#181818;stroke-width:1.0;"/><path d="M587.8688,1086.2506 Q587.2906,1086.5475 586.65,1086.6881 Q586.0094,1086.8444 585.3063,1086.8444 Q582.8063,1086.8444 581.4781,1085.2038 Q580.1656,1083.5475 580.1656,1080.4225 Q580.1656,1077.2975 581.4781,1075.6413 Q582.8063,1073.985 585.3063,1073.985 Q586.0094,1073.985 586.65,1074.1413 Q587.3063,1074.2975 587.8688,1074.5944 L587.8688,1077.3131 Q587.2438,1076.735 586.65,1076.4694 Q586.0563,1076.1881 585.4313,1076.1881 Q584.0875,1076.1881 583.4,1077.2663 Q582.7125,1078.3288 582.7125,1080.4225 Q582.7125,1082.5163 583.4,1083.5944 Q584.0875,1084.6569 585.4313,1084.6569 Q586.0563,1084.6569 586.65,1084.3913 Q587.2438,1084.11 587.8688,1083.5319 L587.8688,1086.2506 Z " fill="#000000"/><text fill="#000000" font-family="sans-serif" font-size="14" lengthAdjust="spacing" textLength="69" x="599.1" y="1085.4567">Fotografie</text><line style="stroke:#181818;stroke-width:0.5;" x1="570" x2="671" y1="1096.61" y2="1096.61"/><text fill="#000000" font-family="sans-serif" font-size="14" lengthAdjust="spacing" textLength="77" x="575" y="1113.6051">-id_foto: int</text><text fill="#000000" font-family="sans-serif" font-size="14" lengthAdjust="spacing" textLength="70" x="575" y="1129.902">-url: string</text><text fill="#000000" font-family="sans-serif" font-size="14" lengthAdjust="spacing" textLength="91" x="575" y="1146.1989">-popis: string</text><text fill="#000000" font-family="sans-serif" font-size="14" lengthAdjust="spacing" textLength="89" x="575" y="1162.4957">-autor: string</text></g><!--link Region to Oblast--><g id="link_Region_Oblast"><path codeLine="73" d="M298.5,96.37 C298.5,119.98 298.5,149 298.5,172.58 " fill="none" id="Region-Oblast" style="stroke:#181818;stroke-width:1.0;"/><polygon fill="#000000" points="303.5,139.4564,306.4389,130.4113,300.5611,130.4113,303.5,139.4564" style="stroke:#000000;stroke-width:1.0;"/><text fill="#000000" font-family="sans-serif" font-size="13" lengthAdjust="spacing" textLength="58" x="312.5" y="138.9569">obsahuje</text><text fill="#000000" font-family="sans-serif" font-size="13" lengthAdjust="spacing" textLength="8" x="289.9375" y="115.8185">1</text><text fill="#000000" font-family="sans-serif" font-size="13" lengthAdjust="spacing" textLength="23" x="273.8109" y="161.9816">0..*</text></g><!--link Oblast to Lokalita--><g id="link_Oblast_Lokalita"><path codeLine="74" d="M298.5,262.02 C298.5,284.73 298.5,313 298.5,338.52 " fill="none" id="Oblast-Lokalita" style="stroke:#181818;stroke-width:1.0;"/><polygon fill="#000000" points="303.5,305.3464,306.4389,296.3013,300.5611,296.3013,303.5,305.3464" style="stroke:#000000;stroke-width:1.0;"/><text fill="#000000" font-family="sans-serif" font-size="13" lengthAdjust="spacing" textLength="58" x="312.5" y="304.8469">obsahuje</text><text fill="#000000" font-family="sans-serif" font-size="13" lengthAdjust="spacing" textLength="8" x="289.9125" y="281.7613">1</text><text fill="#000000" font-family="sans-serif" font-size="13" lengthAdjust="spacing" textLength="23" x="274.3141" y="327.6891">0..*</text></g><!--link Lokalita to Skala--><g id="link_Lokalita_Skala"><path codeLine="75" d="M298.5,477.07 C298.5,501.27 298.5,528.64 298.5,553.45 " fill="none" id="Lokalita-Skala" style="stroke:#181818;stroke-width:1.0;"/><polygon fill="#000000" points="303.5,520.1364,306.4389,511.0913,300.5611,511.0913,303.5,520.1364" style="stroke:#000000;stroke-width:1.0;"/><text fill="#000000" font-family="sans-serif" font-size="13" lengthAdjust="spacing" textLength="58" x="312.5" y="519.6369">obsahuje</text><text fill="#000000" font-family="sans-serif" font-size="13" lengthAdjust="spacing" textLength="8" x="290.1063" y="496.7132">1</text><text fill="#000000" font-family="sans-serif" font-size="13" lengthAdjust="spacing" textLength="23" x="274.4039" y="542.4542">0..*</text></g><!--link Skala to Cesta--><g id="link_Skala_Cesta"><path codeLine="76" d="M298.5,708.01 C298.5,732.07 298.5,759.02 298.5,784.49 " fill="none" id="Skala-Cesta" style="stroke:#181818;stroke-width:1.0;"/><polygon fill="#000000" points="303.5,751.2064,306.4389,742.1613,300.5611,742.1613,303.5,751.2064" style="stroke:#000000;stroke-width:1.0;"/><text fill="#000000" font-family="sans-serif" font-size="13" lengthAdjust="spacing" textLength="58" x="312.5" y="750.7069">obsahuje</text><text fill="#000000" font-family="sans-serif" font-size="13" lengthAdjust="spacing" textLength="8" x="290.1438" y="727.6443">1</text><text fill="#000000" font-family="sans-serif" font-size="13" lengthAdjust="spacing" textLength="23" x="274.6555" y="773.5472">0..*</text></g><!--link Cesta to TypLezeni--><g id="link_Cesta_TypLezeni"><path codeLine="78" d="M202,984.94 C168.53,1018.87 133.08,1054.8 107.75,1080.47 " fill="none" id="Cesta-TypLezeni" style="stroke:#181818;stroke-width:1.0;"/><polygon fill="#000000" points="166.7484,1029.7357,175.1931,1025.3609,171.0088,1021.2328,166.7484,1029.7357" style="stroke:#000000;stroke-width:1.0;"/><text fill="#000000" font-family="sans-serif" font-size="13" lengthAdjust="spacing" textLength="48" x="179.26" y="1030.6769">ma_typ</text><text fill="#000000" font-family="sans-serif" font-size="13" lengthAdjust="spacing" textLength="23" x="171.4063" y="988.4322">0..*</text><text fill="#000000" font-family="sans-serif" font-size="13" lengthAdjust="spacing" textLength="23" x="88.832" y="1069.9451">0..*</text></g><!--link Cesta to TypJisteni--><g id="link_Cesta_TypJisteni"><path codeLine="79" d="M267.46,988.06 C264.66,998.01 261.96,1007.99 259.5,1017.61 C254.21,1038.3 249.2,1061.66 245.39,1080.45 " fill="none" id="Cesta-TypJisteni" style="stroke:#181818;stroke-width:1.0;"/><polygon fill="#000000" points="263.3383,1031.0396,268.2983,1022.9249,262.5813,1021.5592,263.3383,1031.0396" style="stroke:#000000;stroke-width:1.0;"/><text fill="#000000" font-family="sans-serif" font-size="13" lengthAdjust="spacing" textLength="65" x="273.5" y="1030.6769">ma_jisteni</text><text fill="#000000" font-family="sans-serif" font-size="13" lengthAdjust="spacing" textLength="23" x="241.4689" y="1007.8263">0..*</text><text fill="#000000" font-family="sans-serif" font-size="13" lengthAdjust="spacing" textLength="23" x="221.5977" y="1069.9217">0..*</text></g><!--link Cesta to TypSlunce--><g id="link_Cesta_TypSlunce"><path codeLine="80" d="M346.03,987.94 C361.59,1020.95 377.88,1055.5 389.63,1080.42 " fill="none" id="Cesta-TypSlunce" style="stroke:#181818;stroke-width:1.0;"/><polygon fill="#000000" points="372.4822,1030.699,371.2833,1021.2643,365.9667,1023.7708,372.4822,1030.699" style="stroke:#000000;stroke-width:1.0;"/><text fill="#000000" font-family="sans-serif" font-size="13" lengthAdjust="spacing" textLength="183" x="379.35" y="1030.6769">ma_typ_dopadajiciho_slunce</text><text fill="#000000" font-family="sans-serif" font-size="13" lengthAdjust="spacing" textLength="23" x="325.5634" y="1007.6978">0..*</text><text fill="#000000" font-family="sans-serif" font-size="13" lengthAdjust="spacing" textLength="23" x="361.7539" y="1069.8865">0..*</text></g><!--link Cesta to Fotografie--><g id="link_Cesta_Fotografie"><path codeLine="81" d="M394.8,915.42 C451.86,936.17 522.37,969.24 571.5,1017.61 C584.64,1030.55 594.84,1047.75 602.44,1064.15 " fill="none" id="Cesta-Fotografie" style="stroke:#181818;stroke-width:1.0;"/><polygon fill="#000000" points="594.0048,1029.088,588.3629,1021.4317,584.9401,1026.2101,594.0048,1029.088" style="stroke:#000000;stroke-width:1.0;"/><text fill="#000000" font-family="sans-serif" font-size="13" lengthAdjust="spacing" textLength="59" x="598.94" y="1030.6769">ma_fotky</text><text fill="#000000" font-family="sans-serif" font-size="13" lengthAdjust="spacing" textLength="8" x="402.4792" y="914.1607">1</text><text fill="#000000" font-family="sans-serif" font-size="13" lengthAdjust="spacing" textLength="23" x="575.6526" y="1053.467">0..*</text></g><!--SRC=[dLF1gjim4BpxAvOS2tcyNdruK0g5bWU5flUWM9ja8rahBCcGbFvxPTcEh3Pr7pqPZMP6kpjUfyXOqOaM6YsS- -1zHuVWyNF3PaStXEVgJ1AXHNzcwQegqU0RdeWD_AW0ja1otwLp3MHyWeouOL-3Ysxcb13BbjmT-JaRVJt4Zyz6dCx_OVJAIcZo8blf2LapErctOZuWiMl33HgguQXPp4QzyzWR7aeTuNiXk_ZgeWet7DTAUFY0PTcIKLVGU4jNongxqBDi41GuL9wxiDeITuJ6YmR_dDb7TCk1DSDnhLGLLNGajJGRS8bQYM8-UC2RnOQocrDw-45M2tkSW0YnnxtjUkwlpWTRjYk53srvEpoPc_n-jQzfYBbHVxNxUR2Fkrsglr3C-dVvPGJVej_fO69QXTmbx9_gJ-pvr8aZBUJ7Y6LXwFHRnhUqhgffUpVlDx3TmkRvwUdTPjx46lZWn3bS45wg2Ik9zqqhg7Uq98_RK317gAIDVs91gqPi8cHgphE6LWpJZEI_S-Vq4dbARLKmnJMRxoLR8SM56Zhpb5lM5qqiqahgc5JSu9TV]--></g></svg>