<svg xmlns="http://www.w3.org/2000/svg" xmlns:xlink="http://www.w3.org/1999/xlink" contentStyleType="text/css" height="1892px" preserveAspectRatio="none" style="width:1163px;height:1892px;background:#FFFFFF;" version="1.1" viewBox="0 0 1163 1892" width="1163px" zoomAndPan="magnify"><defs/><g><!--class Region--><g id="elem_Region"><rect codeLine="3" fill="#F1F1F1" height="162.0781" id="Region" rx="2.5" ry="2.5" style="stroke:#181818;stroke-width:0.5;" width="260" x="453" y="7"/><ellipse cx="554.25" cy="23" fill="#ADD1B2" rx="11" ry="11" style="stroke:#181818;stroke-width:1.0;"/><path d="M557.2188,28.6406 Q556.6406,28.9375 556,29.0781 Q555.3594,29.2344 554.6563,29.2344 Q552.1563,29.2344 550.8281,27.5938 Q549.5156,25.9375 549.5156,22.8125 Q549.5156,19.6875 550.8281,18.0313 Q552.1563,16.375 554.6563,16.375 Q555.3594,16.375 556,16.5313 Q556.6563,16.6875 557.2188,16.9844 L557.2188,19.7031 Q556.5938,19.125 556,18.8594 Q555.4063,18.5781 554.7813,18.5781 Q553.4375,18.5781 552.75,19.6563 Q552.0625,20.7188 552.0625,22.8125 Q552.0625,24.9063 552.75,25.9844 Q553.4375,27.0469 554.7813,27.0469 Q555.4063,27.0469 556,26.7813 Q556.5938,26.5 557.2188,25.9219 L557.2188,28.6406 Z " fill="#000000"/><text fill="#000000" font-family="sans-serif" font-size="14" lengthAdjust="spacing" textLength="49" x="574.75" y="27.8467">Region</text><line style="stroke:#181818;stroke-width:0.5;" x1="454" x2="712" y1="39" y2="39"/><text fill="#000000" font-family="sans-serif" font-size="14" lengthAdjust="spacing" textLength="94" x="459" y="55.9951">-id_region: int</text><text fill="#000000" font-family="sans-serif" font-size="14" lengthAdjust="spacing" textLength="94" x="459" y="72.292">-nazev: string</text><text fill="#000000" font-family="sans-serif" font-size="14" lengthAdjust="spacing" textLength="91" x="459" y="88.5889">-popis: string</text><line style="stroke:#181818;stroke-width:0.5;" x1="454" x2="712" y1="95.8906" y2="95.8906"/><text fill="#000000" font-family="sans-serif" font-size="14" lengthAdjust="spacing" textLength="236" x="459" y="112.8857">+pridejOblast(oblast: Oblast): void</text><text fill="#000000" font-family="sans-serif" font-size="14" lengthAdjust="spacing" textLength="248" x="459" y="129.1826">+odeberOblast(oblast: Oblast): void</text><text fill="#000000" font-family="sans-serif" font-size="14" lengthAdjust="spacing" textLength="208" x="459" y="145.4795">+ziskejOblasti(): List&lt;Oblast&gt;</text><text fill="#000000" font-family="sans-serif" font-size="14" lengthAdjust="spacing" textLength="247" x="459" y="161.7764">+aktualizujPopis(popis: string): void</text></g><!--class Oblast--><g id="elem_Oblast"><rect codeLine="13" fill="#F1F1F1" height="162.0781" id="Oblast" rx="2.5" ry="2.5" style="stroke:#181818;stroke-width:0.5;" width="280" x="443" y="246.08"/><ellipse cx="556.75" cy="262.08" fill="#ADD1B2" rx="11" ry="11" style="stroke:#181818;stroke-width:1.0;"/><path d="M559.7188,267.7206 Q559.1406,268.0175 558.5,268.1581 Q557.8594,268.3144 557.1563,268.3144 Q554.6563,268.3144 553.3281,266.6737 Q552.0156,265.0175 552.0156,261.8925 Q552.0156,258.7675 553.3281,257.1112 Q554.6563,255.455 557.1563,255.455 Q557.8594,255.455 558.5,255.6112 Q559.1563,255.7675 559.7188,256.0644 L559.7188,258.7831 Q559.0938,258.205 558.5,257.9394 Q557.9063,257.6581 557.2813,257.6581 Q555.9375,257.6581 555.25,258.7362 Q554.5625,259.7987 554.5625,261.8925 Q554.5625,263.9862 555.25,265.0644 Q555.9375,266.1269 557.2813,266.1269 Q557.9063,266.1269 558.5,265.8612 Q559.0938,265.58 559.7188,265.0019 L559.7188,267.7206 Z " fill="#000000"/><text fill="#000000" font-family="sans-serif" font-size="14" lengthAdjust="spacing" textLength="44" x="577.25" y="266.9267">Oblast</text><line style="stroke:#181818;stroke-width:0.5;" x1="444" x2="722" y1="278.08" y2="278.08"/><text fill="#000000" font-family="sans-serif" font-size="14" lengthAdjust="spacing" textLength="92" x="449" y="295.0751">-id_oblast: int</text><text fill="#000000" font-family="sans-serif" font-size="14" lengthAdjust="spacing" textLength="94" x="449" y="311.372">-nazev: string</text><text fill="#000000" font-family="sans-serif" font-size="14" lengthAdjust="spacing" textLength="91" x="449" y="327.6689">-popis: string</text><line style="stroke:#181818;stroke-width:0.5;" x1="444" x2="722" y1="334.9706" y2="334.9706"/><text fill="#000000" font-family="sans-serif" font-size="14" lengthAdjust="spacing" textLength="256" x="449" y="351.9657">+pridejLokalitu(lokalita: Lokalita): void</text><text fill="#000000" font-family="sans-serif" font-size="14" lengthAdjust="spacing" textLength="268" x="449" y="368.2626">+odeberLokalitu(lokalita: Lokalita): void</text><text fill="#000000" font-family="sans-serif" font-size="14" lengthAdjust="spacing" textLength="218" x="449" y="384.5595">+ziskejLokality(): List&lt;Lokalita&gt;</text><text fill="#000000" font-family="sans-serif" font-size="14" lengthAdjust="spacing" textLength="247" x="449" y="400.8564">+aktualizujPopis(popis: string): void</text></g><!--class Lokalita--><g id="elem_Lokalita"><rect codeLine="23" fill="#F1F1F1" height="259.8594" id="Lokalita" rx="2.5" ry="2.5" style="stroke:#181818;stroke-width:0.5;" width="342" x="412" y="485.16"/><ellipse cx="553.25" cy="501.16" fill="#ADD1B2" rx="11" ry="11" style="stroke:#181818;stroke-width:1.0;"/><path d="M556.2188,506.8006 Q555.6406,507.0975 555,507.2381 Q554.3594,507.3944 553.6563,507.3944 Q551.1563,507.3944 549.8281,505.7538 Q548.5156,504.0975 548.5156,500.9725 Q548.5156,497.8475 549.8281,496.1913 Q551.1563,494.535 553.6563,494.535 Q554.3594,494.535 555,494.6913 Q555.6563,494.8475 556.2188,495.1444 L556.2188,497.8631 Q555.5938,497.285 555,497.0194 Q554.4063,496.7381 553.7813,496.7381 Q552.4375,496.7381 551.75,497.8163 Q551.0625,498.8788 551.0625,500.9725 Q551.0625,503.0663 551.75,504.1444 Q552.4375,505.2069 553.7813,505.2069 Q554.4063,505.2069 555,504.9413 Q555.5938,504.66 556.2188,504.0819 L556.2188,506.8006 Z " fill="#000000"/><text fill="#000000" font-family="sans-serif" font-size="14" lengthAdjust="spacing" textLength="51" x="573.75" y="506.0067">Lokalita</text><line style="stroke:#181818;stroke-width:0.5;" x1="413" x2="753" y1="517.16" y2="517.16"/><text fill="#000000" font-family="sans-serif" font-size="14" lengthAdjust="spacing" textLength="97" x="418" y="534.1551">-id_lokalita: int</text><text fill="#000000" font-family="sans-serif" font-size="14" lengthAdjust="spacing" textLength="94" x="418" y="550.452">-nazev: string</text><text fill="#000000" font-family="sans-serif" font-size="14" lengthAdjust="spacing" textLength="79" x="418" y="566.7489">-gps: string</text><text fill="#000000" font-family="sans-serif" font-size="14" lengthAdjust="spacing" textLength="91" x="418" y="583.0457">-popis: string</text><text fill="#000000" font-family="sans-serif" font-size="14" lengthAdjust="spacing" textLength="117" x="418" y="599.3426">-hodnoceni: float</text><text fill="#000000" font-family="sans-serif" font-size="14" lengthAdjust="spacing" textLength="127" x="418" y="615.6395">-navstevnost: float</text><line style="stroke:#181818;stroke-width:0.5;" x1="413" x2="753" y1="622.9413" y2="622.9413"/><text fill="#000000" font-family="sans-serif" font-size="14" lengthAdjust="spacing" textLength="214" x="418" y="639.9364">+pridejSkalu(skala: Skala): void</text><text fill="#000000" font-family="sans-serif" font-size="14" lengthAdjust="spacing" textLength="226" x="418" y="656.2332">+odeberSkalu(skala: Skala): void</text><text fill="#000000" font-family="sans-serif" font-size="14" lengthAdjust="spacing" textLength="188" x="418" y="672.5301">+ziskejSkaly(): List&lt;Skala&gt;</text><text fill="#000000" font-family="sans-serif" font-size="14" lengthAdjust="spacing" textLength="310" x="418" y="688.827">+aktualizujHodnoceni(hodnoceni: float): void</text><text fill="#000000" font-family="sans-serif" font-size="14" lengthAdjust="spacing" textLength="330" x="418" y="705.1239">+aktualizujNavstevnost(navstevnost: float): void</text><text fill="#000000" font-family="sans-serif" font-size="14" lengthAdjust="spacing" textLength="206" x="418" y="721.4207">+nastavGps(gps: string): void</text><text fill="#000000" font-family="sans-serif" font-size="14" lengthAdjust="spacing" textLength="237" x="418" y="737.7176">+nastavPopis: (popis: string): void</text></g><!--class Skala--><g id="elem_Skala"><rect codeLine="39" fill="#F1F1F1" height="276.1563" id="Skala" rx="2.5" ry="2.5" style="stroke:#181818;stroke-width:0.5;" width="343" x="411.5" y="822.02"/><ellipse cx="560.75" cy="838.02" fill="#ADD1B2" rx="11" ry="11" style="stroke:#181818;stroke-width:1.0;"/><path d="M563.7188,843.6606 Q563.1406,843.9575 562.5,844.0981 Q561.8594,844.2544 561.1563,844.2544 Q558.6563,844.2544 557.3281,842.6138 Q556.0156,840.9575 556.0156,837.8325 Q556.0156,834.7075 557.3281,833.0513 Q558.6563,831.395 561.1563,831.395 Q561.8594,831.395 562.5,831.5513 Q563.1563,831.7075 563.7188,832.0044 L563.7188,834.7231 Q563.0938,834.145 562.5,833.8794 Q561.9063,833.5981 561.2813,833.5981 Q559.9375,833.5981 559.25,834.6763 Q558.5625,835.7388 558.5625,837.8325 Q558.5625,839.9263 559.25,841.0044 Q559.9375,842.0669 561.2813,842.0669 Q561.9063,842.0669 562.5,841.8013 Q563.0938,841.52 563.7188,840.9419 L563.7188,843.6606 Z " fill="#000000"/><text fill="#000000" font-family="sans-serif" font-size="14" lengthAdjust="spacing" textLength="36" x="581.25" y="842.8667">Skala</text><line style="stroke:#181818;stroke-width:0.5;" x1="412.5" x2="753.5" y1="854.02" y2="854.02"/><text fill="#000000" font-family="sans-serif" font-size="14" lengthAdjust="spacing" textLength="85" x="417.5" y="871.0151">-id_skala: int</text><text fill="#000000" font-family="sans-serif" font-size="14" lengthAdjust="spacing" textLength="94" x="417.5" y="887.312">-nazev: string</text><text fill="#000000" font-family="sans-serif" font-size="14" lengthAdjust="spacing" textLength="117" x="417.5" y="903.6089">-hodnoceni: float</text><text fill="#000000" font-family="sans-serif" font-size="14" lengthAdjust="spacing" textLength="168" x="417.5" y="919.9057">-podminky_lezeni: string</text><text fill="#000000" font-family="sans-serif" font-size="14" lengthAdjust="spacing" textLength="193" x="417.5" y="936.2026">-pruvodce_k_sektoru: string</text><text fill="#000000" font-family="sans-serif" font-size="14" lengthAdjust="spacing" textLength="79" x="417.5" y="952.4995">-gps: string</text><text fill="#000000" font-family="sans-serif" font-size="14" lengthAdjust="spacing" textLength="118" x="417.5" y="968.7964">-orientace: string</text><line style="stroke:#181818;stroke-width:0.5;" x1="412.5" x2="753.5" y1="976.0981" y2="976.0981"/><text fill="#000000" font-family="sans-serif" font-size="14" lengthAdjust="spacing" textLength="225" x="417.5" y="993.0932">+pridejCestu(cesta: Cesta): void</text><text fill="#000000" font-family="sans-serif" font-size="14" lengthAdjust="spacing" textLength="237" x="417.5" y="1009.3901">+odeberCestu(cesta: Cesta): void</text><text fill="#000000" font-family="sans-serif" font-size="14" lengthAdjust="spacing" textLength="196" x="417.5" y="1025.687">+ziskejCesty(): List&lt;Cesta&gt;</text><text fill="#000000" font-family="sans-serif" font-size="14" lengthAdjust="spacing" textLength="310" x="417.5" y="1041.9839">+aktualizujHodnoceni(hodnoceni: float): void</text><text fill="#000000" font-family="sans-serif" font-size="14" lengthAdjust="spacing" textLength="278" x="417.5" y="1058.2807">+nastavOrientaci(orientace: string): void</text><text fill="#000000" font-family="sans-serif" font-size="14" lengthAdjust="spacing" textLength="331" x="417.5" y="1074.5776">+nastavPodminkyLezeni(podminky: string): void</text><text fill="#000000" font-family="sans-serif" font-size="14" lengthAdjust="spacing" textLength="239" x="417.5" y="1090.8745">+nastavNazev (nazev: string): void</text></g><!--class Cesta--><g id="elem_Cesta"><rect codeLine="56" fill="#F1F1F1" height="455.4219" id="Cesta" rx="2.5" ry="2.5" style="stroke:#181818;stroke-width:0.5;" width="299" x="433.5" y="1175.17"/><ellipse cx="558.75" cy="1191.17" fill="#ADD1B2" rx="11" ry="11" style="stroke:#181818;stroke-width:1.0;"/><path d="M561.7188,1196.8106 Q561.1406,1197.1075 560.5,1197.2481 Q559.8594,1197.4044 559.1563,1197.4044 Q556.6563,1197.4044 555.3281,1195.7638 Q554.0156,1194.1075 554.0156,1190.9825 Q554.0156,1187.8575 555.3281,1186.2013 Q556.6563,1184.545 559.1563,1184.545 Q559.8594,1184.545 560.5,1184.7013 Q561.1563,1184.8575 561.7188,1185.1544 L561.7188,1187.8731 Q561.0938,1187.295 560.5,1187.0294 Q559.9063,1186.7481 559.2813,1186.7481 Q557.9375,1186.7481 557.25,1187.8263 Q556.5625,1188.8888 556.5625,1190.9825 Q556.5625,1193.0763 557.25,1194.1544 Q557.9375,1195.2169 559.2813,1195.2169 Q559.9063,1195.2169 560.5,1194.9513 Q561.0938,1194.67 561.7188,1194.0919 L561.7188,1196.8106 Z " fill="#000000"/><text fill="#000000" font-family="sans-serif" font-size="14" lengthAdjust="spacing" textLength="40" x="579.25" y="1196.0167">Cesta</text><line style="stroke:#181818;stroke-width:0.5;" x1="434.5" x2="731.5" y1="1207.17" y2="1207.17"/><text fill="#000000" font-family="sans-serif" font-size="14" lengthAdjust="spacing" textLength="88" x="439.5" y="1224.1651">-id_cesta: int</text><text fill="#000000" font-family="sans-serif" font-size="14" lengthAdjust="spacing" textLength="94" x="439.5" y="1240.462">-nazev: string</text><text fill="#000000" font-family="sans-serif" font-size="14" lengthAdjust="spacing" textLength="123" x="439.5" y="1256.7589">-klasifikace: string</text><text fill="#000000" font-family="sans-serif" font-size="14" lengthAdjust="spacing" textLength="80" x="439.5" y="1273.0557">-delka: float</text><text fill="#000000" font-family="sans-serif" font-size="14" lengthAdjust="spacing" textLength="104" x="439.5" y="1289.3526">-nebezpeci: int</text><text fill="#000000" font-family="sans-serif" font-size="14" lengthAdjust="spacing" textLength="90" x="439.5" y="1305.6495">-sklon: string</text><text fill="#000000" font-family="sans-serif" font-size="14" lengthAdjust="spacing" textLength="118" x="439.5" y="1321.9464">-orientace: string</text><text fill="#000000" font-family="sans-serif" font-size="14" lengthAdjust="spacing" textLength="91" x="439.5" y="1338.2432">-popis: string</text><text fill="#000000" font-family="sans-serif" font-size="14" lengthAdjust="spacing" textLength="180" x="439.5" y="1354.5401">-autor_prvovystupu: string</text><text fill="#000000" font-family="sans-serif" font-size="14" lengthAdjust="spacing" textLength="166" x="439.5" y="1370.837">-datum_prvovystupu: int</text><line style="stroke:#181818;stroke-width:0.5;" x1="434.5" x2="731.5" y1="1378.1388" y2="1378.1388"/><text fill="#000000" font-family="sans-serif" font-size="14" lengthAdjust="spacing" textLength="244" x="439.5" y="1395.1339">+nastavNazev: (nazve: string): void</text><text fill="#000000" font-family="sans-serif" font-size="14" lengthAdjust="spacing" textLength="287" x="439.5" y="1411.4307">+nastavKlasifikaci(klasifikace: string): void</text><text fill="#000000" font-family="sans-serif" font-size="14" lengthAdjust="spacing" textLength="219" x="439.5" y="1427.7276">+nastavDelku(delka: float): void</text><text fill="#000000" font-family="sans-serif" font-size="14" lengthAdjust="spacing" textLength="277" x="439.5" y="1444.0245">+nastavNebezpeci(nebezpeci: int): void</text><text fill="#000000" font-family="sans-serif" font-size="14" lengthAdjust="spacing" textLength="278" x="439.5" y="1460.3214">+nastavOrientaci(orientace: string): void</text><text fill="#000000" font-family="sans-serif" font-size="14" lengthAdjust="spacing" textLength="247" x="439.5" y="1476.6182">+aktualizujPopis(popis: string): void</text><text fill="#000000" font-family="sans-serif" font-size="14" lengthAdjust="spacing" textLength="267" x="439.5" y="1492.9151">+pridejTypLezeni(typ: TypLezeni): void</text><text fill="#000000" font-family="sans-serif" font-size="14" lengthAdjust="spacing" textLength="279" x="439.5" y="1509.212">+odeberTypLezeni(typ: TypLezeni): void</text><text fill="#000000" font-family="sans-serif" font-size="14" lengthAdjust="spacing" textLength="257" x="439.5" y="1525.5089">+pridejTypJisteni(typ: TypJisteni): void</text><text fill="#000000" font-family="sans-serif" font-size="14" lengthAdjust="spacing" textLength="269" x="439.5" y="1541.8057">+odeberTypJisteni(typ: TypJisteni): void</text><text fill="#000000" font-family="sans-serif" font-size="14" lengthAdjust="spacing" textLength="271" x="439.5" y="1558.1026">+pridejTypSlunce(typ: TypSlunce): void</text><text fill="#000000" font-family="sans-serif" font-size="14" lengthAdjust="spacing" textLength="283" x="439.5" y="1574.3995">+odeberTypSlunce(typ: TypSlunce): void</text><text fill="#000000" font-family="sans-serif" font-size="14" lengthAdjust="spacing" textLength="265" x="439.5" y="1590.6964">+pridejFotografii(foto: Fotografie): void</text><text fill="#000000" font-family="sans-serif" font-size="14" lengthAdjust="spacing" textLength="277" x="439.5" y="1606.9932">+odeberFotografii(foto: Fotografie): void</text><text fill="#000000" font-family="sans-serif" font-size="14" lengthAdjust="spacing" textLength="255" x="439.5" y="1623.2901">+ziskejFotografie(): List&lt;Fotografie&gt;</text></g><!--class TypLezeni--><g id="elem_TypLezeni"><rect codeLine="84" fill="#F1F1F1" height="113.1875" id="TypLezeni" rx="2.5" ry="2.5" style="stroke:#181818;stroke-width:0.5;" width="262" x="7" y="1740.19"/><ellipse cx="98.75" cy="1756.19" fill="#ADD1B2" rx="11" ry="11" style="stroke:#181818;stroke-width:1.0;"/><path d="M101.7188,1761.8306 Q101.1406,1762.1275 100.5,1762.2681 Q99.8594,1762.4244 99.1563,1762.4244 Q96.6563,1762.4244 95.3281,1760.7838 Q94.0156,1759.1275 94.0156,1756.0025 Q94.0156,1752.8775 95.3281,1751.2213 Q96.6563,1749.565 99.1563,1749.565 Q99.8594,1749.565 100.5,1749.7213 Q101.1563,1749.8775 101.7188,1750.1744 L101.7188,1752.8931 Q101.0938,1752.315 100.5,1752.0494 Q99.9063,1751.7681 99.2813,1751.7681 Q97.9375,1751.7681 97.25,1752.8463 Q96.5625,1753.9088 96.5625,1756.0025 Q96.5625,1758.0963 97.25,1759.1744 Q97.9375,1760.2369 99.2813,1760.2369 Q99.9063,1760.2369 100.5,1759.9713 Q101.0938,1759.69 101.7188,1759.1119 L101.7188,1761.8306 Z " fill="#000000"/><text fill="#000000" font-family="sans-serif" font-size="14" lengthAdjust="spacing" textLength="70" x="119.25" y="1761.0367">TypLezeni</text><line style="stroke:#181818;stroke-width:0.5;" x1="8" x2="268" y1="1772.19" y2="1772.19"/><text fill="#000000" font-family="sans-serif" font-size="14" lengthAdjust="spacing" textLength="119" x="13" y="1789.1851">-id_typ_lezeni: int</text><text fill="#000000" font-family="sans-serif" font-size="14" lengthAdjust="spacing" textLength="94" x="13" y="1805.482">-nazev: string</text><line style="stroke:#181818;stroke-width:0.5;" x1="8" x2="268" y1="1812.7838" y2="1812.7838"/><text fill="#000000" font-family="sans-serif" font-size="14" lengthAdjust="spacing" textLength="250" x="13" y="1829.7789">+prejmenuj(novyNazev: string): void</text><text fill="#000000" font-family="sans-serif" font-size="14" lengthAdjust="spacing" textLength="166" x="13" y="1846.0757">+smazTypLezeni(): void</text></g><!--class TypJisteni--><g id="elem_TypJisteni"><rect codeLine="91" fill="#F1F1F1" height="113.1875" id="TypJisteni" rx="2.5" ry="2.5" style="stroke:#181818;stroke-width:0.5;" width="262" x="304" y="1740.19"/><ellipse cx="398.25" cy="1756.19" fill="#ADD1B2" rx="11" ry="11" style="stroke:#181818;stroke-width:1.0;"/><path d="M401.2188,1761.8306 Q400.6406,1762.1275 400,1762.2681 Q399.3594,1762.4244 398.6563,1762.4244 Q396.1563,1762.4244 394.8281,1760.7838 Q393.5156,1759.1275 393.5156,1756.0025 Q393.5156,1752.8775 394.8281,1751.2213 Q396.1563,1749.565 398.6563,1749.565 Q399.3594,1749.565 400,1749.7213 Q400.6563,1749.8775 401.2188,1750.1744 L401.2188,1752.8931 Q400.5938,1752.315 400,1752.0494 Q399.4063,1751.7681 398.7813,1751.7681 Q397.4375,1751.7681 396.75,1752.8463 Q396.0625,1753.9088 396.0625,1756.0025 Q396.0625,1758.0963 396.75,1759.1744 Q397.4375,1760.2369 398.7813,1760.2369 Q399.4063,1760.2369 400,1759.9713 Q400.5938,1759.69 401.2188,1759.1119 L401.2188,1761.8306 Z " fill="#000000"/><text fill="#000000" font-family="sans-serif" font-size="14" lengthAdjust="spacing" textLength="65" x="418.75" y="1761.0367">TypJisteni</text><line style="stroke:#181818;stroke-width:0.5;" x1="305" x2="565" y1="1772.19" y2="1772.19"/><text fill="#000000" font-family="sans-serif" font-size="14" lengthAdjust="spacing" textLength="118" x="310" y="1789.1851">-id_typ_jisteni: int</text><text fill="#000000" font-family="sans-serif" font-size="14" lengthAdjust="spacing" textLength="94" x="310" y="1805.482">-nazev: string</text><line style="stroke:#181818;stroke-width:0.5;" x1="305" x2="565" y1="1812.7838" y2="1812.7838"/><text fill="#000000" font-family="sans-serif" font-size="14" lengthAdjust="spacing" textLength="250" x="310" y="1829.7789">+prejmenuj(novyNazev: string): void</text><text fill="#000000" font-family="sans-serif" font-size="14" lengthAdjust="spacing" textLength="161" x="310" y="1846.0757">+smazTypJisteni(): void</text></g><!--class TypSlunce--><g id="elem_TypSlunce"><rect codeLine="98" fill="#F1F1F1" height="113.1875" id="TypSlunce" rx="2.5" ry="2.5" style="stroke:#181818;stroke-width:0.5;" width="262" x="601" y="1740.19"/><ellipse cx="691.75" cy="1756.19" fill="#ADD1B2" rx="11" ry="11" style="stroke:#181818;stroke-width:1.0;"/><path d="M694.7188,1761.8306 Q694.1406,1762.1275 693.5,1762.2681 Q692.8594,1762.4244 692.1563,1762.4244 Q689.6563,1762.4244 688.3281,1760.7838 Q687.0156,1759.1275 687.0156,1756.0025 Q687.0156,1752.8775 688.3281,1751.2213 Q689.6563,1749.565 692.1563,1749.565 Q692.8594,1749.565 693.5,1749.7213 Q694.1563,1749.8775 694.7188,1750.1744 L694.7188,1752.8931 Q694.0938,1752.315 693.5,1752.0494 Q692.9063,1751.7681 692.2813,1751.7681 Q690.9375,1751.7681 690.25,1752.8463 Q689.5625,1753.9088 689.5625,1756.0025 Q689.5625,1758.0963 690.25,1759.1744 Q690.9375,1760.2369 692.2813,1760.2369 Q692.9063,1760.2369 693.5,1759.9713 Q694.0938,1759.69 694.7188,1759.1119 L694.7188,1761.8306 Z " fill="#000000"/><text fill="#000000" font-family="sans-serif" font-size="14" lengthAdjust="spacing" textLength="72" x="712.25" y="1761.0367">TypSlunce</text><line style="stroke:#181818;stroke-width:0.5;" x1="602" x2="862" y1="1772.19" y2="1772.19"/><text fill="#000000" font-family="sans-serif" font-size="14" lengthAdjust="spacing" textLength="124" x="607" y="1789.1851">-id_typ_slunce: int</text><text fill="#000000" font-family="sans-serif" font-size="14" lengthAdjust="spacing" textLength="94" x="607" y="1805.482">-nazev: string</text><line style="stroke:#181818;stroke-width:0.5;" x1="602" x2="862" y1="1812.7838" y2="1812.7838"/><text fill="#000000" font-family="sans-serif" font-size="14" lengthAdjust="spacing" textLength="250" x="607" y="1829.7789">+prejmenuj(novyNazev: string): void</text><text fill="#000000" font-family="sans-serif" font-size="14" lengthAdjust="spacing" textLength="168" x="607" y="1846.0757">+smazTypSlunce(): void</text></g><!--class Fotografie--><g id="elem_Fotografie"><rect codeLine="105" fill="#F1F1F1" height="178.375" id="Fotografie" rx="2.5" ry="2.5" style="stroke:#181818;stroke-width:0.5;" width="259" x="897.5" y="1707.59"/><ellipse cx="988.25" cy="1723.59" fill="#ADD1B2" rx="11" ry="11" style="stroke:#181818;stroke-width:1.0;"/><path d="M991.2188,1729.2306 Q990.6406,1729.5275 990,1729.6681 Q989.3594,1729.8244 988.6563,1729.8244 Q986.1563,1729.8244 984.8281,1728.1838 Q983.5156,1726.5275 983.5156,1723.4025 Q983.5156,1720.2775 984.8281,1718.6213 Q986.1563,1716.965 988.6563,1716.965 Q989.3594,1716.965 990,1717.1213 Q990.6563,1717.2775 991.2188,1717.5744 L991.2188,1720.2931 Q990.5938,1719.715 990,1719.4494 Q989.4063,1719.1681 988.7813,1719.1681 Q987.4375,1719.1681 986.75,1720.2463 Q986.0625,1721.3088 986.0625,1723.4025 Q986.0625,1725.4963 986.75,1726.5744 Q987.4375,1727.6369 988.7813,1727.6369 Q989.4063,1727.6369 990,1727.3713 Q990.5938,1727.09 991.2188,1726.5119 L991.2188,1729.2306 Z " fill="#000000"/><text fill="#000000" font-family="sans-serif" font-size="14" lengthAdjust="spacing" textLength="69" x="1008.75" y="1728.4367">Fotografie</text><line style="stroke:#181818;stroke-width:0.5;" x1="898.5" x2="1155.5" y1="1739.59" y2="1739.59"/><text fill="#000000" font-family="sans-serif" font-size="14" lengthAdjust="spacing" textLength="77" x="903.5" y="1756.5851">-id_foto: int</text><text fill="#000000" font-family="sans-serif" font-size="14" lengthAdjust="spacing" textLength="70" x="903.5" y="1772.882">-url: string</text><text fill="#000000" font-family="sans-serif" font-size="14" lengthAdjust="spacing" textLength="91" x="903.5" y="1789.1789">-popis: string</text><text fill="#000000" font-family="sans-serif" font-size="14" lengthAdjust="spacing" textLength="89" x="903.5" y="1805.4757">-autor: string</text><line style="stroke:#181818;stroke-width:0.5;" x1="898.5" x2="1155.5" y1="1812.7775" y2="1812.7775"/><text fill="#000000" font-family="sans-serif" font-size="14" lengthAdjust="spacing" textLength="187" x="903.5" y="1829.7726">+nastavUrl(url: string): void</text><text fill="#000000" font-family="sans-serif" font-size="14" lengthAdjust="spacing" textLength="247" x="903.5" y="1846.0695">+aktualizujPopis(popis: string): void</text><text fill="#000000" font-family="sans-serif" font-size="14" lengthAdjust="spacing" textLength="233" x="903.5" y="1862.3664">+nastavAutora(autor: string): void</text><text fill="#000000" font-family="sans-serif" font-size="14" lengthAdjust="spacing" textLength="159" x="903.5" y="1878.6632">+smazFotografii(): void</text></g><!--link Region to Oblast--><g id="link_Region_Oblast"><path codeLine="116" d="M583,169.3 C583,194.02 583,221.23 583,245.94 " fill="none" id="Region-Oblast" style="stroke:#181818;stroke-width:1.0;"/><polygon fill="#000000" points="588,212.6464,590.9389,203.6013,585.0611,203.6013,588,212.6464" style="stroke:#000000;stroke-width:1.0;"/><text fill="#000000" font-family="sans-serif" font-size="13" lengthAdjust="spacing" textLength="58" x="597" y="212.1469">obsahuje</text><text fill="#000000" font-family="sans-serif" font-size="13" lengthAdjust="spacing" textLength="8" x="574.6438" y="189.2781">1</text><text fill="#000000" font-family="sans-serif" font-size="13" lengthAdjust="spacing" textLength="23" x="558.9758" y="235.1148">0..*</text></g><!--link Oblast to Lokalita--><g id="link_Oblast_Lokalita"><path codeLine="117" d="M583,408.54 C583,432.24 583,458.81 583,484.77 " fill="none" id="Oblast-Lokalita" style="stroke:#181818;stroke-width:1.0;"/><polygon fill="#000000" points="588,451.7264,590.9389,442.6813,585.0611,442.6813,588,451.7264" style="stroke:#000000;stroke-width:1.0;"/><text fill="#000000" font-family="sans-serif" font-size="13" lengthAdjust="spacing" textLength="58" x="597" y="451.2269">obsahuje</text><text fill="#000000" font-family="sans-serif" font-size="13" lengthAdjust="spacing" textLength="8" x="574.6563" y="428.2542">1</text><text fill="#000000" font-family="sans-serif" font-size="13" lengthAdjust="spacing" textLength="23" x="559.3711" y="474.3035">0..*</text></g><!--link Lokalita to Skala--><g id="link_Lokalita_Skala"><path codeLine="118" d="M583,745.27 C583,770.25 583,796.5 583,821.72 " fill="none" id="Lokalita-Skala" style="stroke:#181818;stroke-width:1.0;"/><polygon fill="#000000" points="588,788.5864,590.9389,779.5413,585.0611,779.5413,588,788.5864" style="stroke:#000000;stroke-width:1.0;"/><text fill="#000000" font-family="sans-serif" font-size="13" lengthAdjust="spacing" textLength="58" x="597" y="788.0869">obsahuje</text><text fill="#000000" font-family="sans-serif" font-size="13" lengthAdjust="spacing" textLength="8" x="574.7688" y="765.3004">1</text><text fill="#000000" font-family="sans-serif" font-size="13" lengthAdjust="spacing" textLength="23" x="559.3711" y="810.8128">0..*</text></g><!--link Skala to Cesta--><g id="link_Skala_Cesta"><path codeLine="119" d="M583,1098.45 C583,1122.83 583,1148.8 583,1174.89 " fill="none" id="Skala-Cesta" style="stroke:#181818;stroke-width:1.0;"/><polygon fill="#000000" points="588,1141.7364,590.9389,1132.6913,585.0611,1132.6913,588,1141.7364" style="stroke:#000000;stroke-width:1.0;"/><text fill="#000000" font-family="sans-serif" font-size="13" lengthAdjust="spacing" textLength="58" x="597" y="1141.2369">obsahuje</text><text fill="#000000" font-family="sans-serif" font-size="13" lengthAdjust="spacing" textLength="8" x="574.7938" y="1118.0408">1</text><text fill="#000000" font-family="sans-serif" font-size="13" lengthAdjust="spacing" textLength="23" x="559.6227" y="1164.232">0..*</text></g><!--link Cesta to TypLezeni--><g id="link_Cesta_TypLezeni"><path codeLine="121" d="M433.27,1535.74 C354.4,1605.21 261.81,1686.75 201.63,1739.75 " fill="none" id="Cesta-TypLezeni" style="stroke:#181818;stroke-width:1.0;"/><polygon fill="#000000" points="283.1878,1672.4611,291.918,1668.6884,288.0332,1664.2774,283.1878,1672.4611" style="stroke:#000000;stroke-width:1.0;"/><text fill="#000000" font-family="sans-serif" font-size="13" lengthAdjust="spacing" textLength="48" x="295.94" y="1673.6569">ma_typ</text><text fill="#000000" font-family="sans-serif" font-size="13" lengthAdjust="spacing" textLength="23" x="402.4604" y="1538.8822">0..*</text><text fill="#000000" font-family="sans-serif" font-size="13" lengthAdjust="spacing" textLength="23" x="184.9833" y="1728.9599">0..*</text></g><!--link Cesta to TypJisteni--><g id="link_Cesta_TypJisteni"><path codeLine="122" d="M497.23,1631 C481.91,1671.57 467.28,1710.32 456.05,1740.03 " fill="none" id="Cesta-TypJisteni" style="stroke:#181818;stroke-width:1.0;"/><polygon fill="#000000" points="486.1033,1673.8339,492.0486,1666.4107,486.5499,1664.3338,486.1033,1673.8339" style="stroke:#000000;stroke-width:1.0;"/><text fill="#000000" font-family="sans-serif" font-size="13" lengthAdjust="spacing" textLength="65" x="496.87" y="1673.6569">ma_jisteni</text><text fill="#000000" font-family="sans-serif" font-size="13" lengthAdjust="spacing" textLength="23" x="471.0383" y="1650.8003">0..*</text><text fill="#000000" font-family="sans-serif" font-size="13" lengthAdjust="spacing" textLength="23" x="434.2139" y="1729.2741">0..*</text></g><!--link Cesta to TypSlunce--><g id="link_Cesta_TypSlunce"><path codeLine="123" d="M669.35,1631 C684.78,1671.57 699.51,1710.32 710.8,1740.03 " fill="none" id="Cesta-TypSlunce" style="stroke:#181818;stroke-width:1.0;"/><polygon fill="#000000" points="690.5868,1673.8301,690.1197,1664.331,684.6254,1666.4197,690.5868,1673.8301" style="stroke:#000000;stroke-width:1.0;"/><text fill="#000000" font-family="sans-serif" font-size="13" lengthAdjust="spacing" textLength="183" x="697.81" y="1673.6569">ma_typ_dopadajiciho_slunce</text><text fill="#000000" font-family="sans-serif" font-size="13" lengthAdjust="spacing" textLength="23" x="648.806" y="1650.8003">0..*</text><text fill="#000000" font-family="sans-serif" font-size="13" lengthAdjust="spacing" textLength="23" x="683.8147" y="1729.2741">0..*</text></g><!--link Cesta to Fotografie--><g id="link_Cesta_Fotografie"><path codeLine="124" d="M732.67,1524.86 C783.39,1566.95 839.87,1615.04 890,1660.59 C906.32,1675.43 923.33,1691.6 939.6,1707.43 " fill="none" id="Cesta-Fotografie" style="stroke:#181818;stroke-width:1.0;"/><polygon fill="#000000" points="914.0993,1672.4644,909.2611,1664.2764,905.3724,1668.684,914.0993,1672.4644" style="stroke:#000000;stroke-width:1.0;"/><text fill="#000000" font-family="sans-serif" font-size="13" lengthAdjust="spacing" textLength="59" x="919.35" y="1673.6569">ma_fotky</text><text fill="#000000" font-family="sans-serif" font-size="13" lengthAdjust="spacing" textLength="8" x="740.5936" y="1527.8331">1</text><text fill="#000000" font-family="sans-serif" font-size="13" lengthAdjust="spacing" textLength="23" x="908.4098" y="1696.4822">0..*</text></g><!--SRC=[hLRBZjiW5DtdAr1Mj5L6qwrLHHgrwdCqC-gqwuZO98Fj039WAQxwxyKyZ8d9ez5i4dCvtCSvzsABYb2E6hG3UOs4k9Eo8MibyRUSqMVION0xcvaTy1Dl2QFWpmo01I35gZ7h310gZOcY3hSP4De1tHeBPvo8aUKTu0qfSFcurWubPEOl0tRv9WCj8uM1iGAlSNCMrX5HUMy4wfrx8kG7kruQ1AgaGZNfLFdKvmAZZBohlxv2Up9Kw2F_VuNthD9XfOArVK0wD_SqhVD2iAtMxUo7SZtqceBzsL1oIE5uqLikJfAm02-ie2p7b6HWKpFa7RL2ufQodb9lzeGzwx0A2lshG_UB14-dCPQUtXouCQ13OhxwvE1XccDt0VyGyeRJ6iPdgEuMr7xX0euecWAUB5zdj36v1s5SsSTLINBEMR4ZjDglQjoPhR5iZMfPaUDLjHAuagnH9rLc3S5KeXmdslqZ5hfzS_shK-mN2VLEOwnwlJcePq3NgMU9VdGf4pX9FgMAfUhUC0KzSySFFFGI01WfCL7Hr11KTEKVLx7IfyY6L37F2r3WkaBHD6bEEuvp4ho9gkxlupEQfUOLAIt_YZSjQ_TQ9HvtGe6asiMxDcJ4H6QeQ4ym_6EeZS14dTC3dtJH2evBJwZWUO0n8rTtmqKtQ6ZzNtlkEaRkUGQ6vNG0Ba4EFh_h0HX3tJhfzGBiuFUvLZJ70zGkarxF8gtFpqooROCsXC2DVip0O4YulH1iBuEmDzm8mRGC8pOG6SPC9ptSUCTchIy0bpjCLGcfxko7r1ptCB53NT1kCk61y3X-QOslbu2NEPM1LITEG1ZRwyLt3J497qG9yQswFh9gwaike2WtExE_cngEJbyrfzRJNHy1mIZGOP6ZzXnLwRvxv-_dOB40yzkRcxTp_wcO0ROMw4ML62ndpXO3Xq-i23fOOx1zvqT8QufXzgKImMRMvW016eOZ0plKzuK67yVwJZPWry4d3xZ6yyvN1UEeG2N9oGjp7HZEHqMCsiQSrYrJxS7o7m00]--></g></svg>