<svg xmlns="http://www.w3.org/2000/svg" xmlns:xlink="http://www.w3.org/1999/xlink" contentStyleType="text/css" height="1004px" preserveAspectRatio="none" style="width:805px;height:1004px;background:#FFFFFF;" version="1.1" viewBox="0 0 805 1004" width="805px" zoomAndPan="magnify"><defs/><g><!--cluster Frontend application for nutrition optimization--><g id="cluster_Frontend application for nutrition optimization"><rect fill="none" height="991" rx="2.5" ry="2.5" style="stroke:#181818;stroke-width:1.0;" width="691.94" x="107.5" y="7"/><text fill="#000000" font-family="sans-serif" font-size="14" font-weight="bold" lengthAdjust="spacing" textLength="363" x="271.97" y="21.9951">Frontend application for nutrition optimization</text></g><g id="elem_UC_Register"><ellipse cx="257.9672" cy="57.0015" fill="#F1F1F1" rx="53.3472" ry="14.7215" style="stroke:#181818;stroke-width:0.5;"/><text fill="#000000" font-family="sans-serif" font-size="14" lengthAdjust="spacing" textLength="58" x="225.9672" y="60.749">Register</text></g><g id="elem_UC_Login"><ellipse cx="257.9738" cy="121.0012" fill="#F1F1F1" rx="40.6638" ry="14.5812" style="stroke:#181818;stroke-width:0.5;"/><text fill="#000000" font-family="sans-serif" font-size="14" lengthAdjust="spacing" textLength="41" x="234.8222" y="124.6632">Log in</text></g><g id="elem_UC_Logout"><ellipse cx="257.9687" cy="185" fill="#F1F1F1" rx="48.8687" ry="14.68" style="stroke:#181818;stroke-width:0.5;"/><text fill="#000000" font-family="sans-serif" font-size="14" lengthAdjust="spacing" textLength="52" x="228.9687" y="188.7475">Log out</text></g><g id="elem_UC_Goals"><ellipse cx="257.9693" cy="256.0019" fill="#F1F1F1" rx="96.8093" ry="21.7619" style="stroke:#181818;stroke-width:0.5;"/><text fill="#000000" font-family="sans-serif" font-size="14" lengthAdjust="spacing" textLength="157" x="179.4693" y="258.8485">Manage nutrition goals</text></g><g id="elem_UC_Meals"><ellipse cx="257.9682" cy="336.9996" fill="#F1F1F1" rx="107.7482" ry="23.9496" style="stroke:#181818;stroke-width:0.5;"/><text fill="#000000" font-family="sans-serif" font-size="14" lengthAdjust="spacing" textLength="181" x="167.4682" y="339.8463">Create and manage meals</text></g><g id="elem_UC_Optimize"><ellipse cx="257.9672" cy="416.9974" fill="#F1F1F1" rx="91.8872" ry="20.7774" style="stroke:#181818;stroke-width:0.5;"/><text fill="#000000" font-family="sans-serif" font-size="14" lengthAdjust="spacing" textLength="146" x="184.9672" y="419.8441">Send for optimization</text></g><g id="elem_UC_ViewResult"><ellipse cx="257.9703" cy="495.0041" fill="#F1F1F1" rx="99.5203" ry="22.3041" style="stroke:#181818;stroke-width:0.5;"/><text fill="#000000" font-family="sans-serif" font-size="14" lengthAdjust="spacing" textLength="163" x="176.4703" y="497.8507">View optimization result</text></g><g id="elem_UC_Tracker"><ellipse cx="257.9728" cy="572.0026" fill="#F1F1F1" rx="87.9128" ry="19.9826" style="stroke:#181818;stroke-width:0.5;"/><text fill="#000000" font-family="sans-serif" font-size="14" lengthAdjust="spacing" textLength="137" x="189.4728" y="574.8492">Track goal progress</text></g><g id="elem_UC_Ingredients"><ellipse cx="257.9704" cy="652.0001" fill="#F1F1F1" rx="113.3004" ry="25.0601" style="stroke:#181818;stroke-width:0.5;"/><text fill="#000000" font-family="sans-serif" font-size="14" lengthAdjust="spacing" textLength="193" x="161.4704" y="654.8468">Manage custom ingredients</text></g><g id="elem_UC_AddDirect"><ellipse cx="649.4404" cy="773.0021" fill="#F1F1F1" rx="95.4604" ry="21.4921" style="stroke:#181818;stroke-width:0.5;"/><text fill="#000000" font-family="sans-serif" font-size="14" lengthAdjust="spacing" textLength="154" x="572.4404" y="775.8488">Add ingredient directly</text></g><g id="elem_UC_AddWhole"><ellipse cx="649.4379" cy="693.0036" fill="#F1F1F1" rx="106.3679" ry="23.6736" style="stroke:#181818;stroke-width:0.5;"/><text fill="#000000" font-family="sans-serif" font-size="14" lengthAdjust="spacing" textLength="178" x="560.4379" y="695.8503">Add ingredient as a whole</text></g><g id="elem_UC_AddFromRecipe"><ellipse cx="649.4369" cy="604.9994" fill="#F1F1F1" rx="133.9969" ry="29.1994" style="stroke:#181818;stroke-width:0.5;"/><text fill="#000000" font-family="sans-serif" font-size="14" lengthAdjust="spacing" textLength="237" x="530.9369" y="607.8461">Create ingredient from ingredients</text></g><g id="elem_UC_DeleteIngredient"><ellipse cx="649.4396" cy="516.9999" fill="#F1F1F1" rx="105.4496" ry="23.4899" style="stroke:#181818;stroke-width:0.5;"/><text fill="#000000" font-family="sans-serif" font-size="14" lengthAdjust="spacing" textLength="176" x="561.4396" y="519.8466">Delete custom ingredient</text></g><g id="elem_UC_ShareDB"><ellipse cx="257.9721" cy="741.0044" fill="#F1F1F1" rx="134.4721" ry="29.2944" style="stroke:#181818;stroke-width:0.5;"/><text fill="#000000" font-family="sans-serif" font-size="14" lengthAdjust="spacing" textLength="238" x="138.9721" y="743.8511">Share custom ingredient database</text></g><g id="elem_UC_AdminAccess"><ellipse cx="257.9738" cy="827.0028" fill="#F1F1F1" rx="94.5638" ry="21.3128" style="stroke:#181818;stroke-width:0.5;"/><text fill="#000000" font-family="sans-serif" font-size="14" lengthAdjust="spacing" textLength="152" x="181.9738" y="829.8494">System administration</text></g><g id="elem_UC_AdminUsers"><ellipse cx="257.9693" cy="899.9959" fill="#F1F1F1" rx="71.9293" ry="16.7859" style="stroke:#181818;stroke-width:0.5;"/><text fill="#000000" font-family="sans-serif" font-size="14" lengthAdjust="spacing" textLength="98" x="205.9693" y="903.7434">Manage users</text></g><g id="elem_UC_AdminLogs"><ellipse cx="257.9666" cy="966.9953" fill="#F1F1F1" rx="65.0766" ry="15.4153" style="stroke:#181818;stroke-width:0.5;"/><text fill="#000000" font-family="sans-serif" font-size="14" lengthAdjust="spacing" textLength="79" x="215.4666" y="970.7429">Delete logs</text></g><!--entity User--><g id="elem_User"><ellipse cx="33" cy="354.85" fill="#F1F1F1" rx="16" ry="16" style="stroke:#181818;stroke-width:0.5;"/><path d="M33,374.85 C37,374.85 40,374.85 44,370.85 C52,370.85 60,378.85 60,386.85 L60,390.85 C60,394.85 56,398.85 52,398.85 L14,398.85 C10,398.85 6,394.85 6,390.85 L6,386.85 C6,378.85 14,370.85 22,370.85 C26,374.85 29,374.85 33,374.85 " fill="#F1F1F1" style="stroke:#181818;stroke-width:0.5;"/><text fill="#000000" font-family="sans-serif" font-size="14" lengthAdjust="spacing" textLength="32" x="17" y="412.3451">User</text></g><!--entity Admin--><g id="elem_Admin"><ellipse cx="33" cy="877.85" fill="#F1F1F1" rx="16" ry="16" style="stroke:#181818;stroke-width:0.5;"/><path d="M33,897.85 C37,897.85 40,897.85 44,893.85 C52,893.85 60,901.85 60,909.85 L60,913.85 C60,917.85 56,921.85 52,921.85 L14,921.85 C10,921.85 6,917.85 6,913.85 L6,909.85 C6,901.85 14,893.85 22,893.85 C26,897.85 29,897.85 33,897.85 " fill="#F1F1F1" style="stroke:#181818;stroke-width:0.5;"/><text fill="#000000" font-family="sans-serif" font-size="14" lengthAdjust="spacing" textLength="43" x="11.5" y="935.3451">Admin</text></g><!--link User to UC_Register--><g id="link_User_UC_Register"><path d="M37.69,337.9 C45.15,267.45 64.38,123.31 99.5,89 C127.14,62 164.962,55.0034 199.372,54.1234 " fill="none" id="User-to-UC_Register" style="stroke:#181818;stroke-width:1.0;"/><polygon fill="#181818" points="205.37,53.97,196.2707,50.2014,200.3716,54.0978,196.4752,58.1988,205.37,53.97" style="stroke:#181818;stroke-width:1.0;"/></g><!--link User to UC_Login--><g id="link_User_UC_Login"><path d="M33.86,337.9 C35.93,287.55 47.45,200.85 99.5,153 C131.33,123.73 176.3501,118.1511 211.6401,118.3211 " fill="none" id="User-to-UC_Login" style="stroke:#181818;stroke-width:1.0;"/><polygon fill="#181818" points="217.64,118.35,208.6594,114.3067,212.6401,118.3259,208.6208,122.3066,217.64,118.35" style="stroke:#181818;stroke-width:1.0;"/></g><!--link User to UC_Logout--><g id="link_User_UC_Logout"><path d="M39.39,337.9 C46.58,301.1 62.97,247.24 99.5,217 C129.91,191.83 168.8146,184.9457 202.9046,183.6057 " fill="none" id="User-to-UC_Logout" style="stroke:#181818;stroke-width:1.0;"/><polygon fill="#181818" points="208.9,183.37,199.7498,179.7266,203.9039,183.5664,200.0641,187.7204,208.9,183.37" style="stroke:#181818;stroke-width:1.0;"/></g><!--link User to UC_Goals--><g id="link_User_UC_Goals"><path d="M57.57,338.07 C68.56,322.9 82.9,306.63 99.5,296 C121.47,281.92 142.2805,274.1784 167.3605,268.2584 " fill="none" id="User-to-UC_Goals" style="stroke:#181818;stroke-width:1.0;"/><polygon fill="#181818" points="173.2,266.88,163.5218,265.0546,168.3337,268.0287,165.3596,272.8406,173.2,266.88" style="stroke:#181818;stroke-width:1.0;"/></g><!--link User to UC_Meals--><g id="link_User_UC_Meals"><path d="M60.9,372.18 C88.69,367.19 127.6044,360.21 167.3844,353.07 " fill="none" id="User-to-UC_Meals" style="stroke:#181818;stroke-width:1.0;"/><polygon fill="#181818" points="173.29,352.01,163.7249,349.6629,168.3686,352.8933,165.1382,357.5371,173.29,352.01" style="stroke:#181818;stroke-width:1.0;"/></g><!--link User to UC_Optimize--><g id="link_User_UC_Optimize"><path d="M60.9,381.82 C91.47,387.31 136.7444,395.4301 179.1444,403.0401 " fill="none" id="User-to-UC_Optimize" style="stroke:#181818;stroke-width:1.0;"/><polygon fill="#181818" points="185.05,404.1,176.8982,398.573,180.1286,403.2167,175.4849,406.4472,185.05,404.1" style="stroke:#181818;stroke-width:1.0;"/></g><!--link User to UC_ViewResult--><g id="link_User_UC_ViewResult"><path d="M59.07,416.1 C69.93,430.23 83.77,445.13 99.5,455 C121.12,468.57 141.3072,476.1434 165.8972,482.0734 " fill="none" id="User-to-UC_ViewResult" style="stroke:#181818;stroke-width:1.0;"/><polygon fill="#181818" points="171.73,483.48,163.9186,477.4816,166.8693,482.3078,162.0431,485.2586,171.73,483.48" style="stroke:#181818;stroke-width:1.0;"/></g><!--link User to UC_Tracker--><g id="link_User_UC_Tracker"><path d="M39.87,416.07 C47.39,452.23 63.97,504.81 99.5,535 C119.83,552.27 140.8771,560.6402 166.7071,565.8202 " fill="none" id="User-to-UC_Tracker" style="stroke:#181818;stroke-width:1.0;"/><polygon fill="#181818" points="172.59,567,164.5522,561.3084,167.6876,566.0169,162.9792,569.1523,172.59,567" style="stroke:#181818;stroke-width:1.0;"/></g><!--link User to UC_Ingredients--><g id="link_User_UC_Ingredients"><path d="M33.88,416.05 C35.91,467.44 47.34,557.29 99.5,609 C114.9,624.26 129.4214,632.466 150.2614,638.956 " fill="none" id="User-to-UC_Ingredients" style="stroke:#181818;stroke-width:1.0;"/><polygon fill="#181818" points="155.99,640.74,148.5864,634.2449,151.2161,639.2533,146.2077,641.8831,155.99,640.74" style="stroke:#181818;stroke-width:1.0;"/></g><!--link User to UC_ShareDB--><g id="link_User_UC_ShareDB"><path d="M37.06,415.97 C43.79,491.66 62.29,654.65 99.5,695 C111.86,708.4 122.3078,715.755 139.3878,722.575 " fill="none" id="User-to-UC_ShareDB" style="stroke:#181818;stroke-width:1.0;"/><polygon fill="#181818" points="144.96,724.8,138.085,717.7477,140.3165,722.9459,135.1184,725.1774,144.96,724.8" style="stroke:#181818;stroke-width:1.0;"/></g><!--link UC_Ingredients to UC_AddDirect--><g id="link_UC_Ingredients_UC_AddDirect"><path d="M330.64,671.51 C350.94,677.85 372.84,685.47 392.44,694 C406.5,700.11 408.28,705.15 422.44,711 C472.93,731.85 526.7657,746.522 572.1257,757.062 " fill="none" id="UC_Ingredients-to-UC_AddDirect" style="stroke:#181818;stroke-width:1.0;stroke-dasharray:7.0,7.0;"/><polygon fill="#181818" points="577.97,758.42,570.1089,752.4868,573.0998,757.2883,568.2982,760.2792,577.97,758.42" style="stroke:#181818;stroke-width:1.0;"/><text fill="#000000" font-family="sans-serif" font-size="13" lengthAdjust="spacing" textLength="61" x="423.44" y="707.0669">&#171;include&#187;</text></g><!--link UC_Ingredients to UC_AddWhole--><g id="link_UC_Ingredients_UC_AddWhole"><path d="M344.4,668.49 C369.47,672.83 396.98,677.1 422.44,680 C461.98,684.51 499.5978,687.1748 537.8878,689.1248 " fill="none" id="UC_Ingredients-to-UC_AddWhole" style="stroke:#181818;stroke-width:1.0;stroke-dasharray:7.0,7.0;"/><polygon fill="#181818" points="543.88,689.43,535.0951,684.9774,538.8865,689.1757,534.6882,692.9671,543.88,689.43" style="stroke:#181818;stroke-width:1.0;"/><text fill="#000000" font-family="sans-serif" font-size="13" lengthAdjust="spacing" textLength="61" x="423.44" y="676.0669">&#171;include&#187;</text></g><!--link UC_Ingredients to UC_AddFromRecipe--><g id="link_UC_Ingredients_UC_AddFromRecipe"><path d="M358.26,640.02 C411,633.65 470.1832,626.5087 525.3832,619.8487 " fill="none" id="UC_Ingredients-to-UC_AddFromRecipe" style="stroke:#181818;stroke-width:1.0;stroke-dasharray:7.0,7.0;"/><polygon fill="#181818" points="531.34,619.13,521.9257,616.2369,526.376,619.7289,522.8839,624.1793,531.34,619.13" style="stroke:#181818;stroke-width:1.0;"/><text fill="#000000" font-family="sans-serif" font-size="13" lengthAdjust="spacing" textLength="61" x="423.44" y="621.7569">&#171;include&#187;</text></g><!--link UC_Ingredients to UC_DeleteIngredient--><g id="link_UC_Ingredients_UC_DeleteIngredient"><path d="M325.87,631.62 C347.27,624.79 370.97,616.9 392.44,609 C447.99,588.58 459.77,578.07 515.44,558 C537.38,550.09 555.9298,544.0663 577.6898,537.4463 " fill="none" id="UC_Ingredients-to-UC_DeleteIngredient" style="stroke:#181818;stroke-width:1.0;stroke-dasharray:7.0,7.0;"/><polygon fill="#181818" points="583.43,535.7,573.6554,534.4927,578.6465,537.1553,575.9839,542.1463,583.43,535.7" style="stroke:#181818;stroke-width:1.0;"/><text fill="#000000" font-family="sans-serif" font-size="13" lengthAdjust="spacing" textLength="61" x="423.44" y="566.1369">&#171;include&#187;</text></g><!--link Admin to UC_AdminAccess--><g id="link_Admin_UC_AdminAccess"><path d="M60.75,884.29 C72.37,877.95 86.31,870.98 99.5,866 C126.91,855.66 152.1835,848.6287 179.4935,842.3287 " fill="none" id="Admin-to-UC_AdminAccess" style="stroke:#181818;stroke-width:1.0;"/><polygon fill="#181818" points="185.34,840.98,175.6712,839.1054,180.468,842.1039,177.4694,846.9007,185.34,840.98" style="stroke:#181818;stroke-width:1.0;"/></g><!--link Admin to UC_AdminUsers--><g id="link_Admin_UC_AdminUsers"><path d="M60.9,900 C91.71,900 137.43,900 180.01,900 " fill="none" id="Admin-to-UC_AdminUsers" style="stroke:#181818;stroke-width:1.0;"/><polygon fill="#181818" points="186.01,900,177.01,896,181.01,900,177.01,904,186.01,900" style="stroke:#181818;stroke-width:1.0;"/></g><!--link Admin to UC_AdminLogs--><g id="link_Admin_UC_AdminLogs"><path d="M60.98,916.12 C72.52,922.45 86.35,929.31 99.5,934 C132.39,945.73 164.7867,952.8635 195.3867,958.1235 " fill="none" id="Admin-to-UC_AdminLogs" style="stroke:#181818;stroke-width:1.0;"/><polygon fill="#181818" points="201.3,959.14,193.1077,953.6731,196.3723,958.2929,191.7524,961.5575,201.3,959.14" style="stroke:#181818;stroke-width:1.0;"/></g><!--SRC=[ZPF1Rjim38RlUWeYbsw7z06Ama3MeCM05GFIRZiEciquGcN9a6G4wR1t7qN53fscG6_YpvyMINssk4sGF0JJxX8q9c2TZ7SglXZNww0xY3lT-BrnBMorZIWolQvVT8jFwM0HSg5shPK6NISVIbhlCVeEbM8D5ZyYXWNe2FamYgkcCuvLFYarVHGMzy6xXAu1tVVMr3ft2LkgSaCAXYFV9zEPLqujuAzI09yss9gOC7pck-v-Zt7EVVCj63TcAA8hZx8Vaj0fueyzQaVpYXjRJoiPZGyvoBQxW3hHoDHiLoew5Bx77F3tdl8yUGRP-MZxNZJCnfy6zpCJhJiETkenvpUiPFTpe8VXtg0FlYNhT3UdQ7enJJt4v3jQ11aRWovDvgydAVjNJIDSHrRiONHJUitI1IyvDEnttg9m_ygns9VmRyFbZgYAEEWsM9kUIzTeCLsOOIme-TCWPUqx7IxKGAEJ_gFZr2FxrbzApO6e8Q8pbmHGc3qLqxggQrgqMEn0PCUP9RCUHTlMjtC3iHRLFwMkOBbSyg-H3-fug6O0Ix6mUwPaQgLK-9HA8L4g4tHI57H9UMH9QX8PgK-hd7lW-hgQiGCtS7jhN6s71glgVJUpyr7p2PaFLPmpSrPqV1n-BtwTyLITe_0sKG1ug-Tt_my0]--></g></svg>